<svg width="304" height="62" viewBox="0 0 304 62" fill="none" xmlns="http://www.w3.org/2000/svg">
<path fill-rule="evenodd" clip-rule="evenodd" d="M12.3587 38.6241H0.279297L4.97288 12.649C5.53503 9.44154 7.10301 6.49506 9.4508 4.23435C11.7986 1.97363 14.8049 0.515439 18.0364 0.0699682C19.7908 -0.112716 21.5639 0.0817691 23.2368 0.640342C24.9093 1.19891 26.4428 2.10861 27.734 3.30822C29.025 4.50785 30.0437 5.96956 30.7212 7.59501C31.399 9.22049 31.7203 10.972 31.663 12.7317V13.1L31.0432 13.6219L29.8603 14.8026L28.7863 16.0777L27.8211 17.4237L26.9812 18.8287L26.2715 20.2786L25.699 21.7686L25.2685 23.2799L24.8166 25.7972C22.8985 27.1294 20.6763 27.9606 18.3534 28.2152C17.6627 28.2877 16.9674 28.3049 16.2739 28.2671L18.59 15.6763C19.0923 15.4478 19.5011 15.0547 19.7486 14.5622C19.9961 14.0697 20.0673 13.5076 19.9504 12.9691C19.8335 12.4306 19.5355 11.9483 19.106 11.6023C18.6765 11.2562 18.1413 11.0673 17.5893 11.0669H17.4544C16.9211 11.0967 16.4126 11.3019 16.0084 11.6506C15.6042 11.9993 15.3271 12.4717 15.2204 12.9943C15.1136 13.5167 15.1833 14.0598 15.4184 14.5386C15.6535 15.0174 16.0409 15.405 16.52 15.6409L14.2725 27.9814L14.2039 28.3687L13.7994 30.6073L12.3587 38.6241Z" fill="#C90C0F"/>
<path fill-rule="evenodd" clip-rule="evenodd" d="M44.322 9.92999L42.1692 22.4453C41.8262 22.2587 41.89 22.1548 41.0124 22.1548C40.3568 22.233 39.7394 22.5039 39.2385 22.9332C38.7377 23.3625 38.376 23.9308 38.1995 24.5658L35.5972 38.871H23.5178L26.1201 24.2305C27.478 16.667 35.2873 8.86974 44.322 9.92999Z" fill="#C90C0F"/>
<path fill-rule="evenodd" clip-rule="evenodd" d="M173.11 9.67975L170.959 22.195C170.616 22.0061 170.682 21.9022 169.802 21.9022C169.146 21.9788 168.528 22.2496 168.027 22.6796C167.526 23.1096 167.166 23.6794 166.992 24.3156L164.39 38.6208H152.303L154.917 23.9803C156.266 16.4168 164.082 8.61949 173.11 9.67975Z" fill="#13336D"/>
<path fill-rule="evenodd" clip-rule="evenodd" d="M187.086 27.1208H191.498C192.648 27.1208 193.065 25.4678 191.917 24.1431C190.895 23.0601 190.183 21.7227 189.856 20.2708C189.528 18.819 189.598 17.3061 190.058 15.8904C190.517 14.4747 191.349 13.2083 192.467 12.2237C193.585 11.2391 194.948 10.5725 196.412 10.2936C197.298 10.0673 198.197 9.88756 199.102 9.75523C199.932 9.63296 200.77 9.5714 201.61 9.57104H207.294L205.333 20.7876H200.744C199.989 20.7876 199.036 21.9494 200.54 23.3733C204.238 26.8658 205.286 35.6052 198.104 37.6738C195.967 38.2986 193.753 38.6165 191.527 38.6183H185.073L187.086 27.1208Z" fill="#13336D"/>
<path fill-rule="evenodd" clip-rule="evenodd" d="M55.7815 11.3703C56.1175 11.3349 56.4439 11.316 56.7704 11.3042L54.4899 23.6849C53.9876 23.9111 53.5776 24.3012 53.3273 24.7912C53.0768 25.281 53.0011 25.8413 53.1123 26.3799C53.2237 26.9186 53.5154 27.4034 53.9396 27.7543C54.3635 28.1052 54.8949 28.3016 55.4456 28.3111C55.9966 28.3205 56.5343 28.1425 56.9701 27.8062C57.4061 27.4697 57.7143 26.9953 57.844 26.4609C57.9736 25.9263 57.9173 25.3638 57.6838 24.8656C57.4503 24.3676 57.0541 23.9636 56.5599 23.7203L58.8002 11.4105C61.8075 11.8586 64.5468 13.3895 66.5014 15.7145C68.4559 18.0395 69.4907 20.998 69.4105 24.032C69.4559 27.7878 68.1304 31.4316 65.6812 34.2832C63.2319 37.1346 59.8265 38.9987 56.1009 39.5274C54.3463 39.7097 52.5731 39.5149 50.9001 38.9559C49.2273 38.3972 47.6938 37.4871 46.4026 36.2876C45.1114 35.0878 44.0927 33.6258 43.4147 32.0003C42.7367 30.3747 42.4152 28.6233 42.472 26.8633C42.428 23.1082 43.7544 19.4654 46.2034 16.6146C48.6524 13.7639 52.0569 11.8998 55.7815 11.3703Z" fill="#C90C0F"/>
<path fill-rule="evenodd" clip-rule="evenodd" d="M112.275 38.6255H100.189L104.885 12.6503C105.445 9.44288 107.011 6.49593 109.358 4.23432C111.704 1.97274 114.71 0.513358 117.941 0.0665709C119.695 -0.116149 121.468 0.0783314 123.141 0.636922C124.813 1.19551 126.347 2.10525 127.638 3.30491C128.929 4.50458 129.947 5.96632 130.624 7.59177C131.302 9.21725 131.623 10.9687 131.565 12.7283C131.576 13.5327 131.52 14.3367 131.4 15.1321C131.215 15.2817 131.031 15.4391 130.846 15.6044C130.373 16.02 129.923 16.4474 129.486 16.8984C128.958 17.4655 128.465 18.064 128.01 18.6907C127.747 19.078 127.503 19.4629 127.271 19.8714C127.04 20.2799 126.848 20.6979 126.656 21.1324C126.465 21.5669 126.332 22.0203 126.183 22.4831C126.034 22.9459 125.963 23.4276 125.88 23.9212C125.831 24.2919 125.793 24.6579 125.767 25.024C123.632 26.8068 121.019 27.9228 118.253 28.2331C117.56 28.3051 116.862 28.3233 116.167 28.2874L118.485 15.6965C118.984 15.4699 119.391 15.0804 119.639 14.5921C119.887 14.1039 119.962 13.546 119.85 13.0101C119.738 12.4742 119.447 11.9922 119.024 11.6435C118.601 11.2948 118.072 11.1 117.524 11.0913C116.975 11.0825 116.44 11.2603 116.007 11.5953C115.573 11.9304 115.266 12.4028 115.137 12.9348C115.008 13.4669 115.065 14.0269 115.297 14.5228C115.529 15.0187 115.924 15.421 116.415 15.6634L114.175 28.0064L113.959 29.1871L113.699 30.6322L112.275 38.6255Z" fill="#13336D"/>
<path fill-rule="evenodd" clip-rule="evenodd" d="M98.076 38.6256H85.9895L90.8014 12.7095H102.831L98.076 38.6256Z" fill="#C90C0F"/>
<path fill-rule="evenodd" clip-rule="evenodd" d="M86.2616 28.3489L88.3695 16.4736L84.0757 16.5161L84.3714 14.9103C84.5456 14.2738 84.9063 13.7039 85.4076 13.2738C85.9089 12.8437 86.5278 12.5732 87.1843 12.497C87.7334 12.448 88.2853 12.5493 88.7812 12.7898L90.934 0.274529C90.792 0.258 90.21 0.243831 90.0681 0.232025C81.2156 -0.540145 73.6381 7.13432 72.3015 14.575L67.932 38.8736H80.0185L81.9276 28.3749L86.2616 28.3489Z" fill="#C90C0F"/>
<path fill-rule="evenodd" clip-rule="evenodd" d="M187.143 21.1703L189.249 9.29493L186.41 9.32324L188.004 1.03955H176.303L172.227 22.2353C171.281 27.5177 171.328 31.3006 173.5 34.2429C174.549 35.6614 175.914 36.8168 177.488 37.618C179.061 38.4192 180.799 38.8443 182.566 38.8594C182.741 38.8594 183.659 38.8712 183.838 38.8735L185.967 26.9651C185.868 26.9651 185.021 26.984 184.929 26.984C182.327 26.984 183.509 24.6911 183.926 22.3699L184.162 21.1892L187.143 21.1703Z" fill="#13336D"/>
<path fill-rule="evenodd" clip-rule="evenodd" d="M153.592 23.1301C153.607 24.0889 153.528 25.0464 153.356 25.9898L151.021 38.6255H140.278C132.824 38.6255 126.741 33.7162 126.656 25.9614C126.711 23.7408 127.328 21.5701 128.448 19.6509C129.569 17.7317 131.157 16.1262 133.065 14.9834L137.841 24.018C137.589 24.5049 137.509 25.0629 137.617 25.6006C137.724 26.1385 138.011 26.6238 138.431 26.9771C138.852 27.3301 139.38 27.5301 139.929 27.544C140.478 27.558 141.015 27.3851 141.453 27.0538C141.891 26.7225 142.202 26.2523 142.337 25.7208C142.471 25.1893 142.421 24.6277 142.193 24.1288C141.966 23.6296 141.575 23.2227 141.085 22.9747C140.595 22.7267 140.035 22.6525 139.497 22.7641L132.656 9.92533L132.71 9.90641C143.363 7.01373 153.455 11.2996 153.592 23.1301Z" fill="#13336D"/>
<path fill-rule="evenodd" clip-rule="evenodd" d="M116.004 55.8636L118.249 43.5514H113.931L111.634 56.1659C111.576 56.4873 111.471 56.7983 111.322 57.0892C111.133 57.4486 110.878 57.769 110.569 58.0337C110.168 58.358 109.705 58.5988 109.209 58.7422C108.519 58.9485 107.801 59.0465 107.08 59.0326C106.385 59.055 105.692 58.9566 105.031 58.7422C104.614 58.6146 104.243 58.3684 103.964 58.0337C103.754 57.7603 103.626 57.4325 103.595 57.0892C103.56 56.7813 103.574 56.4698 103.635 56.1659L105.933 43.5609H101.61L99.363 55.8731C99.2047 56.6863 99.2634 57.5268 99.5333 58.31C99.8158 59.0633 100.291 59.7294 100.913 60.2416C101.63 60.8247 102.458 61.2561 103.347 61.5097C104.429 61.8285 105.552 61.9822 106.68 61.9654C107.877 61.9779 109.071 61.8294 110.229 61.5239C111.227 61.2608 112.175 60.8374 113.037 60.27C113.808 59.759 114.474 59.1049 114.998 58.3431C115.498 57.5976 115.838 56.7565 115.996 55.8731L116.004 55.8636ZM122.684 61.3963L123.765 55.4717H125.346L128.279 61.3963H132.878L128.951 53.8565L134.97 48.1372H130.508L125.343 53.2071H124.179L125.937 43.5632H121.892L118.651 61.3963H122.684ZM145.464 51.2424C145.012 51.1924 144.558 51.1678 144.104 51.1692C143.707 51.1664 143.312 51.198 142.921 51.2637C142.511 51.3326 142.112 51.459 141.738 51.6391C141.358 51.8285 141.023 52.0977 140.756 52.4278C140.462 52.821 140.266 53.2784 140.184 53.762L138.79 61.4034H134.797L137.215 48.1325H141.22L140.747 50.704C140.88 50.4632 141.032 50.2325 141.201 50.0145C141.393 49.7791 141.617 49.5708 141.866 49.3958C142.242 49.1269 142.637 48.8853 143.048 48.6733C143.273 48.5457 143.507 48.4371 143.758 48.312C144.024 48.1932 144.301 48.0983 144.584 48.0286C144.893 47.9526 145.211 47.9143 145.53 47.9153C145.609 47.9138 145.688 47.9193 145.767 47.9318C145.857 47.9377 145.947 47.9488 146.036 47.9648L145.443 51.2424H145.464ZM159.265 61.3963L159.351 60.9241C159.126 60.7293 158.946 60.4874 158.825 60.2157C158.712 59.945 158.676 59.6482 158.721 59.3585L160.044 52.1114C160.252 51.2849 160.127 50.41 159.696 49.6745C159.217 49.0034 158.516 48.5233 157.716 48.319C156.622 48.013 155.488 47.873 154.352 47.9034C153.848 47.9001 153.346 47.9252 152.845 47.979C152.246 48.0425 151.654 48.1587 151.075 48.3261C150.462 48.499 149.875 48.7573 149.334 49.0936C148.769 49.4409 148.281 49.8988 147.898 50.4396C147.468 51.0663 147.178 51.7782 147.049 52.527H150.834C150.9 52.2522 150.993 51.9848 151.113 51.7289C151.249 51.4415 151.433 51.1794 151.657 50.9543C151.931 50.6913 152.258 50.4894 152.615 50.3616C153.098 50.1971 153.606 50.1172 154.115 50.1255C154.58 50.1092 155.043 50.1855 155.478 50.3498C155.774 50.4554 156.025 50.6599 156.188 50.9284C156.311 51.1803 156.347 51.4661 156.289 51.7407C156.231 52.0418 156.091 52.3211 155.885 52.5483C155.65 52.7939 155.354 52.9717 155.026 53.0631C154.248 53.2709 153.486 53.4456 152.753 53.592C152.019 53.7384 151.314 53.8801 150.654 54.0194C150.029 54.1486 149.413 54.3158 148.809 54.52C148.274 54.6971 147.764 54.9434 147.293 55.252C146.848 55.5515 146.47 55.9397 146.183 56.3926C145.858 56.9161 145.642 57.4989 145.544 58.1069C145.375 58.8319 145.454 59.5927 145.769 60.2676C146.079 60.8424 146.581 61.2903 147.188 61.5333C147.927 61.8254 148.717 61.9659 149.512 61.9465C150.179 61.9461 150.845 61.867 151.494 61.7104C152.026 61.5827 152.543 61.3992 153.037 61.1626C153.42 60.9833 153.789 60.7741 154.139 60.5368C154.435 60.3314 154.655 60.1755 154.806 60.0645V60.1236C154.804 60.1443 154.8 60.1649 154.794 60.185C154.755 60.4013 154.755 60.6228 154.794 60.8391C154.828 61.0329 154.898 61.2185 155 61.3869L159.265 61.3963ZM155.485 56.1659C155.376 56.8585 155.1 57.5142 154.681 58.0762C154.304 58.5431 153.808 58.9004 153.245 59.1105C152.638 59.3287 151.997 59.4336 151.352 59.4199C151.022 59.4317 150.693 59.367 150.392 59.231C150.175 59.1254 149.993 58.9618 149.864 58.7587C149.755 58.574 149.689 58.3676 149.67 58.1542C149.646 57.9575 149.653 57.7584 149.689 57.5638C149.746 57.3074 149.868 57.0701 150.044 56.8743C150.255 56.6257 150.508 56.4155 150.791 56.2533C151.108 56.0667 151.456 55.9387 151.818 55.8754C152.175 55.8093 152.57 55.7361 153.001 55.6511C153.432 55.5661 153.883 55.4575 154.35 55.3394C154.81 55.223 155.264 55.0827 155.71 54.9191L155.473 56.1683L155.485 56.1659ZM168.847 46.6189L169.405 43.5491H165.362L164.806 46.6189H168.847ZM166.15 61.4058L168.568 48.1349H164.546L162.109 61.3963L166.15 61.4058ZM183.912 61.4058L185.532 52.5176C185.754 51.6226 185.658 50.679 185.26 49.8469C184.856 49.1446 184.205 48.6178 183.434 48.3686C182.443 48.0397 181.402 47.8869 180.358 47.9176C179.827 47.9202 179.299 48.0102 178.797 48.1844C178.27 48.3663 177.771 48.6222 177.316 48.9448C176.841 49.2832 176.417 49.687 176.055 50.1444L176.419 48.1349H172.428L170.008 61.4058H174.009L175.572 52.8364C175.623 52.5842 175.721 52.3435 175.861 52.1279C176.039 51.8474 176.267 51.6016 176.533 51.403C176.877 51.1525 177.262 50.9638 177.671 50.8457C178.217 50.6885 178.782 50.6129 179.351 50.6214C179.817 50.602 180.284 50.6776 180.72 50.8434C180.998 50.9463 181.226 51.1529 181.354 51.4195C181.471 51.6769 181.521 51.9593 181.501 52.2413C181.477 52.5584 181.434 52.8737 181.373 53.1858L179.873 61.4129L183.912 61.4058ZM202.4 54.9427C202.491 54.4794 202.542 54.0095 202.554 53.5377C202.575 53.0446 202.532 52.5509 202.426 52.0689C202.305 51.5312 202.106 51.0141 201.834 50.534C201.633 50.1803 201.385 49.8554 201.096 49.5682C200.762 49.2386 200.385 48.9559 199.975 48.7276C199.482 48.4638 198.956 48.2669 198.411 48.1419C197.745 47.9807 197.062 47.9013 196.377 47.9058C195.384 47.8968 194.396 48.0378 193.445 48.3238C192.531 48.6064 191.676 49.0546 190.924 49.6461C190.134 50.2809 189.478 51.0649 188.993 51.9532C188.42 53.0038 188.026 54.1427 187.829 55.3229C187.64 56.2589 187.649 57.224 187.855 58.1565C188.043 58.9363 188.433 59.6529 188.986 60.2345C189.553 60.8185 190.252 61.2594 191.023 61.5215C191.91 61.823 192.842 61.9702 193.779 61.956C194.957 61.9666 196.129 61.7822 197.247 61.4105C198.237 61.0851 199.157 60.5765 199.958 59.911C200.697 59.2942 201.289 58.5216 201.692 57.6488H197.72C197.601 57.8821 197.44 58.0925 197.247 58.2699C197.005 58.4895 196.739 58.6819 196.455 58.8437C196.151 59.0232 195.827 59.1665 195.489 59.2711C195.154 59.3776 194.803 59.4324 194.451 59.434C193.974 59.4473 193.501 59.3521 193.067 59.1554C192.714 58.9944 192.405 58.7516 192.166 58.447C191.948 58.158 191.796 57.8252 191.721 57.4717C191.644 57.1312 191.637 56.7787 191.7 56.4351C191.7 56.3643 191.723 56.2816 191.742 56.173C191.761 56.0644 191.768 55.9652 191.787 55.8613C191.801 55.7734 191.823 55.6872 191.853 55.6039H202.246C202.258 55.5238 202.276 55.445 202.3 55.3678C202.317 55.304 202.326 55.2402 202.343 55.1788C202.36 55.1174 202.383 55.0348 202.4 54.9427ZM198.44 53.5471H192.225C192.29 53.2002 192.407 52.8652 192.573 52.553C192.753 52.1893 192.993 51.8583 193.282 51.573C193.608 51.2549 193.993 51.003 194.415 50.8315C194.917 50.6273 195.454 50.526 195.996 50.534C196.415 50.5267 196.832 50.6004 197.224 50.7513C197.518 50.8715 197.778 51.062 197.981 51.3062C198.16 51.5267 198.292 51.7813 198.369 52.0547C198.446 52.3131 198.486 52.5811 198.487 52.8505C198.491 53.0805 198.474 53.3105 198.437 53.5377L198.44 53.5471Z" fill="#C90C0F"/>
<path d="M219.213 14.6933V13.7871H219.463C219.601 13.7871 219.772 13.7824 219.976 13.7731C220.179 13.7638 220.341 13.7452 220.462 13.7173C220.832 13.6243 221.146 13.4339 221.405 13.1458C221.673 12.8483 221.807 12.4765 221.807 12.0304C221.807 11.4169 221.659 10.9893 221.363 10.7477C221.067 10.4967 220.693 10.3711 220.24 10.3711C219.879 10.3711 219.56 10.4037 219.282 10.4688C219.005 10.5339 218.778 10.6175 218.602 10.7198L218.325 9.86915C218.491 9.76691 218.764 9.66466 219.144 9.56242C219.532 9.46017 219.967 9.40918 220.448 9.40918C220.762 9.40918 221.067 9.44636 221.363 9.52072C221.659 9.59508 221.918 9.72521 222.14 9.91111C222.372 10.0877 222.557 10.3339 222.695 10.6499C222.834 10.9567 222.903 11.3425 222.903 11.8073C222.903 12.2813 222.783 12.7275 222.543 13.1458C222.311 13.5548 221.951 13.8615 221.461 14.066V14.1218C221.979 14.224 222.385 14.475 222.681 14.8747C222.987 15.265 223.139 15.7949 223.139 16.4641C223.139 17.0032 223.056 17.4632 222.89 17.8443C222.732 18.2254 222.515 18.5414 222.237 18.7924C221.969 19.034 221.655 19.2154 221.294 19.3363C220.933 19.4478 220.559 19.5036 220.17 19.5036C219.68 19.5036 219.268 19.4712 218.935 19.4061C218.612 19.341 218.343 19.2526 218.131 19.1411L218.408 18.193C218.593 18.2952 218.834 18.3789 219.13 18.4439C219.426 18.509 219.786 18.5414 220.212 18.5414C220.462 18.5414 220.697 18.4997 220.919 18.4161C221.141 18.3231 221.336 18.193 221.502 18.0257C221.669 17.8584 221.798 17.6491 221.891 17.3981C221.992 17.1379 222.043 16.8404 222.043 16.5058C222.043 15.9016 221.881 15.4648 221.558 15.1952C221.243 14.9164 220.818 14.7538 220.281 14.7073C220.189 14.698 220.105 14.6933 220.031 14.6933C219.967 14.6933 219.883 14.6933 219.782 14.6933H219.213ZM228.337 16.6035H225.589L224.812 19.3363H223.786L226.713 9.42299H227.282L230.21 19.3363H229.127L228.337 16.6035ZM225.867 15.6693H228.087L227.24 12.6577L226.977 11.1938H226.949L226.686 12.6855L225.867 15.6693ZM235.644 10.5384H232.203V19.3363H231.162V9.57649H236.684V19.3363H235.644V10.5384ZM239.381 9.57649V12.9785C239.381 13.657 239.496 14.131 239.728 14.4006C239.959 14.6609 240.297 14.791 240.741 14.791C241.064 14.791 241.374 14.7304 241.67 14.6096C241.975 14.4888 242.22 14.3308 242.405 14.1356V9.57649H243.446V19.3363H242.405V15.1535C242.22 15.2929 241.961 15.4276 241.628 15.5577C241.295 15.6878 240.926 15.7532 240.519 15.7532C240.223 15.7532 239.94 15.7157 239.672 15.6414C239.413 15.567 239.182 15.4369 238.978 15.251C238.784 15.0558 238.627 14.7955 238.507 14.4702C238.396 14.1449 238.34 13.7266 238.34 13.2154V9.57649H239.381ZM248.958 16.6035H246.211L245.434 19.3363H244.407L247.335 9.42299H247.904L250.831 19.3363H249.749L248.958 16.6035ZM246.489 15.6693H248.708L247.862 12.6577L247.599 11.1938H247.571L247.307 12.6855L246.489 15.6693ZM256.564 18.9597C256.332 19.1549 256.041 19.2943 255.69 19.3782C255.338 19.4619 254.968 19.5036 254.58 19.5036C254.09 19.5036 253.636 19.4106 253.22 19.2247C252.804 19.0388 252.443 18.7459 252.138 18.3462C251.842 17.9372 251.611 17.4122 251.444 16.7708C251.278 16.1295 251.194 15.358 251.194 14.4564C251.194 13.5269 251.287 12.7413 251.472 12.1C251.666 11.4586 251.92 10.9381 252.235 10.5384C252.549 10.1387 252.91 9.85056 253.317 9.67396C253.733 9.49735 254.159 9.40918 254.594 9.40918C255.038 9.40918 255.403 9.44158 255.69 9.50665C255.986 9.57171 256.24 9.65085 256.453 9.7438L256.203 10.6919C256.018 10.5897 255.801 10.5105 255.551 10.4547C255.301 10.399 255.015 10.3711 254.691 10.3711C254.367 10.3711 254.062 10.4454 253.775 10.5942C253.488 10.7336 253.234 10.966 253.012 11.2913C252.79 11.6073 252.614 12.0256 252.485 12.5461C252.355 13.0666 252.29 13.7035 252.29 14.4564C252.29 15.8134 252.522 16.8359 252.984 17.5237C253.447 18.2023 254.062 18.5414 254.83 18.5414C255.144 18.5414 255.426 18.4997 255.676 18.4161C255.926 18.3231 256.138 18.2161 256.314 18.0952L256.564 18.9597ZM262.608 10.5384H260.221V19.3363H259.181V10.5384H256.794V9.57649H262.608V10.5384ZM268.425 12.9506L268.508 11.6679H268.466L267.981 12.9785L264.387 19.3363H263.694V9.57649H264.734V16.0596L264.637 17.3145H264.692L265.178 16.0039L268.786 9.57649H269.465V19.3363H268.425V12.9506ZM275.861 14.8327H272.281V19.3363H271.24V9.57649H272.281V13.8708H275.861V9.57649H276.901V19.3363H275.861V14.8327ZM283.41 12.9506L283.493 11.6679H283.452L282.966 12.9785L279.373 19.3363H278.679V9.57649H279.72V16.0596L279.622 17.3145H279.678L280.164 16.0039L283.771 9.57649H284.451V19.3363H283.41V12.9506ZM223.816 41.5432H223.081L222.914 39.7445H217.531L217.365 41.5432H216.629V38.7823H217.434C217.489 38.6801 217.577 38.4384 217.698 38.0573C217.827 37.6762 217.952 37.1326 218.072 36.4261C218.202 35.7104 218.313 34.8226 218.405 33.763C218.498 32.6941 218.539 31.4347 218.53 29.9847H222.803V38.7823H223.816V41.5432ZM221.763 38.7823V30.9466H219.529C219.483 33.0008 219.363 34.6646 219.168 35.938C218.974 37.2114 218.761 38.1595 218.53 38.7823H221.763ZM229.483 30.9466H227.29C227.216 32.8149 227.119 34.3765 226.999 35.6313C226.879 36.8861 226.694 37.8528 226.444 38.5313C226.287 38.9775 226.092 39.3028 225.861 39.5073C225.63 39.7118 225.367 39.8143 225.071 39.8143C224.802 39.8143 224.576 39.7678 224.391 39.6746L224.543 38.7127C224.728 38.7685 224.899 38.7592 225.057 38.6848C225.214 38.6105 225.362 38.3967 225.501 38.0435C225.602 37.7925 225.695 37.4579 225.778 37.0396C225.87 36.612 225.949 36.0729 226.014 35.4223C226.088 34.7716 226.148 34.0001 226.194 33.1078C226.24 32.2155 226.273 31.1745 226.291 29.9847H230.523V39.7445H229.483V30.9466ZM236.918 39.7445H235.878V35.464L234.768 35.7569L232.881 39.7445H231.674L233.381 36.2169L234.047 35.6313C233.51 35.4919 233.071 35.1944 232.728 34.739C232.395 34.2742 232.229 33.6376 232.229 32.829C232.229 32.2527 232.308 31.7739 232.465 31.3928C232.622 31.0117 232.835 30.7097 233.103 30.4866C233.371 30.2543 233.686 30.0962 234.047 30.0126C234.407 29.9196 234.791 29.8732 235.198 29.8732C235.448 29.8732 235.725 29.887 236.03 29.9149C236.345 29.9427 236.641 29.9985 236.918 30.0822V39.7445ZM235.115 30.8351C234.874 30.8351 234.648 30.8677 234.435 30.9328C234.222 30.9886 234.033 31.0953 233.866 31.2533C233.7 31.4021 233.566 31.6065 233.464 31.8671C233.371 32.1178 233.325 32.4386 233.325 32.829C233.325 33.5447 233.496 34.0604 233.838 34.3765C234.181 34.6925 234.611 34.8505 235.129 34.8505H235.878V30.9187C235.776 30.8815 235.665 30.8584 235.545 30.8491C235.425 30.8398 235.281 30.8351 235.115 30.8351ZM246.448 32.2014C246.448 32.4431 246.42 32.6848 246.365 32.9264C246.309 33.1681 246.221 33.396 246.101 33.6098C245.981 33.8235 245.828 34.014 245.643 34.1813C245.468 34.3486 245.25 34.4742 244.991 34.5579V34.6136C245.213 34.6601 245.426 34.739 245.629 34.8505C245.833 34.9528 246.013 35.1015 246.171 35.2967C246.328 35.4826 246.453 35.7149 246.545 35.9938C246.638 36.2634 246.684 36.5887 246.684 36.9698C246.684 37.4717 246.605 37.9086 246.448 38.2804C246.291 38.6429 246.073 38.9403 245.796 39.1727C245.528 39.4051 245.213 39.5772 244.852 39.6887C244.501 39.8002 244.126 39.856 243.729 39.856C243.599 39.856 243.446 39.856 243.271 39.856C243.104 39.856 242.924 39.8467 242.73 39.8281C242.536 39.8188 242.341 39.8002 242.147 39.7724C241.962 39.7538 241.791 39.7211 241.634 39.6746V30.0684C241.911 30.0126 242.235 29.9661 242.605 29.9289C242.984 29.8918 243.391 29.8732 243.826 29.8732C244.14 29.8732 244.455 29.9056 244.769 29.9706C245.084 30.0264 245.366 30.1379 245.616 30.3052C245.865 30.4726 246.064 30.7097 246.212 31.0164C246.369 31.3139 246.448 31.7088 246.448 32.2014ZM243.812 38.8938C244.062 38.8938 244.293 38.8567 244.506 38.7823C244.718 38.6986 244.903 38.5778 245.061 38.4198C245.227 38.2618 245.357 38.0714 245.449 37.8483C245.542 37.6159 245.588 37.3464 245.588 37.0396C245.588 36.6585 245.528 36.3518 245.407 36.1194C245.296 35.8777 245.148 35.6918 244.963 35.5617C244.778 35.4316 244.566 35.3431 244.325 35.2967C244.094 35.2502 243.853 35.2271 243.604 35.2271H242.674V38.7964C242.73 38.815 242.799 38.8288 242.882 38.8381C242.975 38.8474 243.072 38.8567 243.174 38.866C243.285 38.8753 243.396 38.8845 243.507 38.8938C243.618 38.8938 243.719 38.8938 243.812 38.8938ZM243.243 34.3207C243.372 34.3207 243.52 34.3162 243.687 34.3069C243.853 34.2976 243.992 34.2835 244.103 34.2649C244.445 34.1255 244.737 33.9024 244.977 33.5957C245.227 33.2797 245.352 32.894 245.352 32.4386C245.352 32.1319 245.31 31.8761 245.227 31.6716C245.144 31.4578 245.028 31.2905 244.88 31.1697C244.741 31.0488 244.575 30.9652 244.381 30.9187C244.186 30.8629 243.983 30.8351 243.77 30.8351C243.53 30.8351 243.312 30.8444 243.118 30.8629C242.924 30.8722 242.776 30.8863 242.674 30.9049V34.3207H243.243ZM251.897 37.0117H249.149L248.373 39.7445H247.346L250.273 29.8312H250.842L253.769 39.7445H252.687L251.897 37.0117ZM249.427 36.0775H251.647L250.8 33.0659L250.537 31.602H250.509L250.245 33.0938L249.427 36.0775ZM259.342 35.2409H255.763V39.7445H254.722V29.9847H255.763V34.279H259.342V29.9847H260.383V39.7445H259.342V35.2409ZM267.28 30.9466H264.894V39.7445H263.853V30.9466H261.467V29.9847H267.28V30.9466ZM271.34 37.0117H268.593L267.816 39.7445H266.789L269.716 29.8312H270.285L273.213 39.7445H272.13L271.34 37.0117ZM268.87 36.0775H271.09L270.243 33.0659L269.98 31.602H269.952L269.688 33.0938L268.87 36.0775ZM277.259 29.9847H278.258V34.53L278.73 34.3348L280.866 29.9847H282.032L279.854 34.2232L279.396 34.6694L279.965 35.2271L282.379 39.7445H281.088L278.758 35.213H278.258V39.7445H277.259V35.0457L276.801 35.2409L274.47 39.7445H273.25L275.636 35.3665L276.177 34.8505L275.664 34.3627L273.416 29.9847H274.637L276.774 34.3627H277.259V29.9847ZM287.863 35.2409H284.284V39.7445H283.243V29.9847H284.284V34.279H287.863V29.9847H288.904V39.7445H287.863V35.2409ZM295.413 33.3588L295.496 32.0761H295.454L294.969 33.3867L291.375 39.7445H290.681V29.9847H291.722V36.4678L291.625 37.7227H291.68L292.166 36.4121L295.773 29.9847H296.453V39.7445H295.413V33.3588ZM300.157 34.7809L297.826 29.9847H299.075L300.587 33.2889L300.864 34.1117L301.142 33.2889L302.738 29.9847H303.889L301.475 34.6832L304 39.7445H302.779L301.1 36.2448L300.781 35.3803L300.49 36.2448L298.77 39.7445H297.604L300.157 34.7809ZM221.18 58.9317H218.433L217.656 61.6644H216.629L219.557 51.7511H220.125L223.053 61.6644H221.971L221.18 58.9317ZM218.71 57.9974H220.93L220.084 54.9858L219.82 53.522H219.792L219.529 55.0137L218.71 57.9974ZM228.82 54.1213C228.82 54.363 228.792 54.6047 228.737 54.8464C228.681 55.088 228.593 55.3159 228.473 55.5297C228.353 55.7435 228.2 55.9339 228.015 56.1012C227.839 56.2685 227.622 56.3941 227.363 56.4778V56.5335C227.585 56.58 227.798 56.6589 228.001 56.7704C228.205 56.8727 228.385 57.0214 228.542 57.2166C228.7 57.4025 228.825 57.6349 228.917 57.9137C229.01 58.1833 229.056 58.5086 229.056 58.8897C229.056 59.3916 228.977 59.8285 228.82 60.2003C228.663 60.5628 228.445 60.8602 228.168 61.0926C227.9 61.325 227.585 61.4971 227.224 61.6086C226.873 61.7202 226.498 61.7759 226.1 61.7759C225.971 61.7759 225.818 61.7759 225.643 61.7759C225.476 61.7759 225.296 61.7666 225.101 61.7481C224.907 61.7388 224.713 61.7202 224.519 61.6923C224.334 61.6737 224.163 61.641 224.006 61.5946V51.9883C224.283 51.9325 224.607 51.886 224.977 51.8489C225.356 51.8117 225.763 51.7931 226.198 51.7931C226.512 51.7931 226.827 51.8255 227.141 51.8906C227.456 51.9463 227.738 52.0579 227.987 52.2252C228.237 52.3925 228.436 52.6296 228.584 52.9364C228.741 53.2338 228.82 53.6287 228.82 54.1213ZM226.184 60.8138C226.433 60.8138 226.665 60.7766 226.877 60.7022C227.09 60.6186 227.275 60.4977 227.432 60.3397C227.599 60.1817 227.728 59.9913 227.821 59.7682C227.913 59.5358 227.96 59.2663 227.96 58.9595C227.96 58.5784 227.9 58.2717 227.779 58.0393C227.668 57.7977 227.52 57.6118 227.335 57.4816C227.15 57.3515 226.938 57.2631 226.697 57.2166C226.466 57.1701 226.225 57.147 225.976 57.147H225.046V60.7163C225.101 60.7349 225.171 60.7487 225.254 60.758C225.347 60.7673 225.444 60.7766 225.545 60.7859C225.656 60.7952 225.767 60.8045 225.878 60.8138C225.989 60.8138 226.091 60.8138 226.184 60.8138ZM225.615 56.2406C225.744 56.2406 225.892 56.2361 226.059 56.2268C226.225 56.2175 226.364 56.2034 226.475 56.1848C226.817 56.0454 227.109 55.8223 227.349 55.5156C227.599 55.1996 227.724 54.814 227.724 54.3585C227.724 54.0518 227.682 53.796 227.599 53.5915C227.516 53.3777 227.4 53.2104 227.252 53.0896C227.113 52.9688 226.947 52.8851 226.753 52.8386C226.558 52.7829 226.355 52.755 226.142 52.755C225.902 52.755 225.684 52.7643 225.49 52.7829C225.296 52.7922 225.148 52.8062 225.046 52.8248V56.2406H225.615ZM235.385 52.8665H232.998V61.6644H231.958V52.8665H229.571V51.9046H235.385V52.8665ZM235.664 56.7845C235.664 55.13 235.928 53.8752 236.455 53.02C236.982 52.1649 237.787 51.7373 238.869 51.7373C239.452 51.7373 239.947 51.8582 240.354 52.0998C240.761 52.3322 241.089 52.6668 241.339 53.1037C241.598 53.5406 241.788 54.0704 241.908 54.6931C242.028 55.3159 242.088 56.013 242.088 56.7845C242.088 58.439 241.82 59.6939 241.283 60.549C240.756 61.4041 239.951 61.8317 238.869 61.8317C238.296 61.8317 237.806 61.7154 237.399 61.483C236.992 61.2413 236.659 60.9022 236.4 60.4653C236.141 60.0285 235.951 59.4987 235.831 58.8759C235.72 58.2531 235.664 57.556 235.664 56.7845ZM236.76 56.7845C236.76 57.3329 236.797 57.8534 236.871 58.3461C236.955 58.8387 237.08 59.2708 237.246 59.6426C237.413 60.0144 237.63 60.3118 237.898 60.5349C238.166 60.758 238.49 60.8695 238.869 60.8695C239.563 60.8695 240.09 60.5349 240.451 59.8657C240.812 59.1964 240.992 58.1695 240.992 56.7845C240.992 56.2454 240.95 55.7294 240.867 55.2368C240.793 54.7441 240.673 54.312 240.506 53.9402C240.34 53.5591 240.123 53.2569 239.854 53.0338C239.586 52.8108 239.258 52.6992 238.869 52.6992C238.185 52.6992 237.662 53.0338 237.302 53.7031C236.941 54.3723 236.76 55.3995 236.76 56.7845ZM249.592 55.2508L249.717 53.7729H249.661L249.217 55.1531L247.261 59.3916H246.914L244.861 55.1531L244.431 53.7729H244.375L244.569 55.2508V61.6644H243.57V51.9046H244.444L246.789 56.7009L247.136 57.8441H247.164L247.497 56.6868L249.717 51.9046H250.632V61.6644H249.592V55.2508ZM252.113 56.7845C252.113 55.13 252.376 53.8752 252.904 53.02C253.431 52.1649 254.236 51.7373 255.318 51.7373C255.901 51.7373 256.396 51.8582 256.803 52.0998C257.21 52.3322 257.538 52.6668 257.787 53.1037C258.046 53.5406 258.236 54.0704 258.356 54.6931C258.477 55.3159 258.537 56.013 258.537 56.7845C258.537 58.439 258.268 59.6939 257.732 60.549C257.205 61.4041 256.4 61.8317 255.318 61.8317C254.744 61.8317 254.254 61.7154 253.847 61.483C253.44 61.2413 253.107 60.9022 252.848 60.4653C252.589 60.0285 252.4 59.4987 252.28 58.8759C252.169 58.2531 252.113 57.556 252.113 56.7845ZM253.209 56.7845C253.209 57.3329 253.246 57.8534 253.32 58.3461C253.403 58.8387 253.528 59.2708 253.695 59.6426C253.861 60.0144 254.078 60.3118 254.347 60.5349C254.615 60.758 254.939 60.8695 255.318 60.8695C256.012 60.8695 256.539 60.5349 256.9 59.8657C257.26 59.1964 257.441 58.1695 257.441 56.7845C257.441 56.2454 257.399 55.7294 257.316 55.2368C257.242 54.7441 257.122 54.312 256.955 53.9402C256.789 53.5591 256.571 53.2569 256.303 53.0338C256.035 52.8108 255.706 52.6992 255.318 52.6992C254.633 52.6992 254.111 53.0338 253.75 53.7031C253.389 54.3723 253.209 55.3995 253.209 56.7845ZM260.019 51.9046H264.362V52.8665H261.059V55.8643C261.189 55.8364 261.346 55.8085 261.531 55.7806C261.725 55.7528 261.91 55.7387 262.086 55.7387C262.475 55.7387 262.84 55.7852 263.182 55.8781C263.525 55.9618 263.821 56.1105 264.07 56.3243C264.329 56.5381 264.533 56.831 264.681 57.2028C264.829 57.5653 264.903 58.0253 264.903 58.583C264.903 59.1407 264.829 59.624 264.681 60.033C264.542 60.4327 264.343 60.7628 264.084 61.023C263.834 61.274 263.534 61.4644 263.182 61.5946C262.831 61.7157 262.442 61.7759 262.017 61.7759C261.887 61.7759 261.735 61.7714 261.559 61.7621C261.392 61.7621 261.217 61.7528 261.032 61.7342C260.856 61.7249 260.676 61.7064 260.491 61.6785C260.315 61.6503 260.158 61.6179 260.019 61.5807V51.9046ZM261.059 60.7301C261.161 60.7673 261.314 60.7907 261.517 60.8C261.73 60.8093 261.929 60.8138 262.114 60.8138C262.613 60.8138 263.02 60.6512 263.335 60.3259C263.649 60.0006 263.807 59.4846 263.807 58.7782C263.807 58.332 263.756 57.9743 263.654 57.7047C263.562 57.4259 263.432 57.2121 263.266 57.0634C263.099 56.9146 262.9 56.8169 262.669 56.7704C262.447 56.724 262.206 56.7009 261.947 56.7009C261.883 56.7009 261.809 56.7054 261.725 56.7147C261.642 56.724 261.554 56.7333 261.462 56.7426C261.379 56.7519 261.3 56.7659 261.226 56.7845C261.152 56.8031 261.096 56.8169 261.059 56.8262V60.7301ZM266.405 51.9046H267.446V61.6644H266.405V51.9046ZM273.584 52.8665H271.392C271.318 54.7348 271.221 56.2964 271.1 57.5512C270.98 58.806 270.795 59.7727 270.546 60.4513C270.388 60.8974 270.194 61.2228 269.963 61.4272C269.732 61.6317 269.468 61.7342 269.172 61.7342C268.904 61.7342 268.677 61.6878 268.492 61.5946L268.645 60.6327C268.83 60.6884 269.001 60.6791 269.158 60.6048C269.315 60.5304 269.463 60.3166 269.602 59.9634C269.704 59.7124 269.796 59.3778 269.88 58.9595C269.972 58.532 270.051 57.9929 270.116 57.3422C270.19 56.6916 270.25 55.9201 270.296 55.0277C270.342 54.1354 270.375 53.0944 270.393 51.9046H274.625V61.6644H273.584V52.8665ZM276.608 51.9046H277.649V61.6644H276.608V51.9046ZM284.453 54.1213C284.453 54.363 284.425 54.6047 284.369 54.8464C284.314 55.088 284.226 55.3159 284.106 55.5297C283.985 55.7435 283.833 55.9339 283.648 56.1012C283.472 56.2685 283.255 56.3941 282.996 56.4778V56.5335C283.218 56.58 283.43 56.6589 283.634 56.7704C283.837 56.8727 284.018 57.0214 284.175 57.2166C284.332 57.4025 284.457 57.6349 284.55 57.9137C284.642 58.1833 284.688 58.5086 284.688 58.8897C284.688 59.3916 284.61 59.8285 284.453 60.2003C284.295 60.5628 284.078 60.8602 283.8 61.0926C283.532 61.325 283.218 61.4971 282.857 61.6086C282.505 61.7202 282.131 61.7759 281.733 61.7759C281.604 61.7759 281.451 61.7759 281.275 61.7759C281.109 61.7759 280.929 61.7666 280.734 61.7481C280.54 61.7388 280.346 61.7202 280.152 61.6923C279.967 61.6737 279.795 61.641 279.638 61.5946V51.9883C279.916 51.9325 280.239 51.886 280.609 51.8489C280.989 51.8117 281.395 51.7931 281.83 51.7931C282.145 51.7931 282.459 51.8255 282.774 51.8906C283.088 51.9463 283.37 52.0579 283.62 52.2252C283.87 52.3925 284.069 52.6296 284.217 52.9364C284.374 53.2338 284.453 53.6287 284.453 54.1213ZM281.816 60.8138C282.066 60.8138 282.297 60.7766 282.51 60.7022C282.723 60.6186 282.908 60.4977 283.065 60.3397C283.232 60.1817 283.361 59.9913 283.454 59.7682C283.546 59.5358 283.592 59.2663 283.592 58.9595C283.592 58.5784 283.532 58.2717 283.412 58.0393C283.301 57.7977 283.153 57.6118 282.968 57.4816C282.783 57.3515 282.57 57.2631 282.33 57.2166C282.098 57.1701 281.858 57.147 281.608 57.147H280.679V60.7163C280.734 60.7349 280.804 60.7487 280.887 60.758C280.979 60.7673 281.077 60.7766 281.178 60.7859C281.289 60.7952 281.4 60.8045 281.511 60.8138C281.622 60.8138 281.724 60.8138 281.816 60.8138ZM281.247 56.2406C281.377 56.2406 281.525 56.2361 281.691 56.2268C281.858 56.2175 281.997 56.2034 282.108 56.1848C282.45 56.0454 282.741 55.8223 282.982 55.5156C283.232 55.1996 283.356 54.814 283.356 54.3585C283.356 54.0518 283.315 53.796 283.232 53.5915C283.148 53.3777 283.033 53.2104 282.885 53.0896C282.746 52.9688 282.579 52.8851 282.385 52.8386C282.191 52.7829 281.987 52.755 281.775 52.755C281.534 52.755 281.317 52.7643 281.123 52.7829C280.928 52.7922 280.781 52.8062 280.679 52.8248V56.2406H281.247Z" fill="#303030"/>
</svg>
