<svg width="389" height="479" viewBox="0 0 389 479" fill="none" xmlns="http://www.w3.org/2000/svg">
<g filter="url(#filter0_i)">
<path fill-rule="evenodd" clip-rule="evenodd" d="M149.692 479H0L58.1648 156.839C65.1311 117.058 84.5621 80.5137 113.657 52.4749C142.752 24.4359 180.007 6.35043 220.053 0.8254C241.794 -1.44037 263.768 0.971764 284.498 7.89955C305.225 14.8273 324.229 26.11 340.23 40.9884C356.228 55.867 368.852 73.9961 377.248 94.1561C385.648 114.316 389.629 136.039 388.919 157.864C384.707 234.127 363.949 269.54 304.076 319.911C280.306 336.435 252.768 346.744 223.982 349.901C215.423 350.8 206.805 351.014 198.212 350.546L226.913 194.386C233.138 191.552 238.205 186.676 241.271 180.568C244.338 174.46 245.221 167.487 243.772 160.809C242.323 154.131 238.631 148.149 233.308 143.857C227.985 139.565 221.353 137.222 214.512 137.217H212.841C206.231 137.586 199.93 140.131 194.921 144.456C189.913 148.781 186.479 154.641 185.156 161.121C183.833 167.601 184.696 174.336 187.61 180.275C190.523 186.214 195.324 191.021 201.261 193.946L173.41 347.002L172.56 351.805L167.547 379.569L149.692 479Z" fill="#841819"/>
</g>
<path d="M59.1489 157.017L59.1498 157.012C66.0795 117.439 85.4086 81.0868 114.351 53.1949C143.289 25.3068 180.343 7.31709 220.173 1.81829C241.767 -0.429742 263.591 1.96718 284.181 8.84799C304.773 15.7305 323.652 26.9396 339.549 41.7207C355.442 56.502 367.984 74.5126 376.325 94.5405L377.206 94.1737L376.325 94.5406C384.668 114.566 388.623 136.143 387.92 157.821C385.818 195.865 379.593 223.621 366.488 248.126C353.382 272.633 333.348 293.975 303.467 319.116C279.844 335.529 252.48 345.769 223.875 348.907C215.746 349.761 207.565 349.993 199.402 349.605L227.804 195.074C234.018 192.117 239.074 187.173 242.165 181.017C245.334 174.704 246.246 167.499 244.749 160.597C243.252 153.695 239.436 147.514 233.936 143.078C228.435 138.643 221.582 136.222 214.513 136.217H214.512H212.841H212.813L212.786 136.218C205.955 136.6 199.444 139.23 194.268 143.699L194.921 144.456L194.268 143.699C189.092 148.168 185.543 154.224 184.176 160.921C182.809 167.618 183.701 174.578 186.712 180.715C189.611 186.626 194.32 191.452 200.144 194.5L172.426 346.823L172.425 346.828L171.576 351.627L171.575 351.631L166.562 379.392L166.562 379.393L148.856 478H1.19671L59.1489 157.017Z" stroke="#841819" stroke-width="2"/>
<defs>
<filter id="filter0_i" x="0" y="0" width="389" height="479" filterUnits="userSpaceOnUse" color-interpolation-filters="sRGB">
<feFlood flood-opacity="0" result="BackgroundImageFix"/>
<feBlend mode="normal" in="SourceGraphic" in2="BackgroundImageFix" result="shape"/>
<feColorMatrix in="SourceAlpha" type="matrix" values="0 0 0 0 0 0 0 0 0 0 0 0 0 0 0 0 0 0 127 0" result="hardAlpha"/>
<feOffset/>
<feGaussianBlur stdDeviation="10"/>
<feComposite in2="hardAlpha" operator="arithmetic" k2="-1" k3="1"/>
<feColorMatrix type="matrix" values="0 0 0 0 0 0 0 0 0 0 0 0 0 0 0 0 0 0 0.5 0"/>
<feBlend mode="normal" in2="shape" result="effect1_innerShadow"/>
</filter>
</defs>
</svg>
