<svg width="35" height="45" viewBox="0 0 35 45" fill="none" xmlns="http://www.w3.org/2000/svg">
<path d="M2.44621 41.2606H6.43259V42.5726C6.43331 43.2162 6.69127 43.8332 7.14986 44.2882C7.60846 44.7433 8.23024 44.9993 8.8788 45H29.3812C29.3955 45 29.4095 44.9988 29.4238 44.998C29.4371 44.999 29.4505 45 29.464 45H29.468C29.5461 44.9994 29.6233 44.9827 29.6946 44.9508C29.7659 44.919 29.8297 44.8727 29.882 44.8151C29.8931 44.8057 29.9045 44.7964 29.9152 44.7864L34.7623 40.1506C34.773 40.1405 34.7826 40.1294 34.7925 40.1187C34.8601 40.0641 34.914 39.9947 34.9499 39.9159C34.9858 39.8371 35.0028 39.7511 34.9996 39.6647C34.9996 39.6577 34.9982 39.6509 34.9977 39.644C34.9986 39.6294 35 39.6148 35 39.6001V7.27422C34.9992 6.63067 34.7413 6.01368 34.2827 5.55862C33.8241 5.10356 33.2023 4.84758 32.5538 4.84684H28.567V2.42739C28.5663 1.78383 28.3083 1.16685 27.8497 0.711784C27.3911 0.256721 26.7694 0.000741282 26.1208 0H2.44621C1.79766 0.000741282 1.17589 0.256721 0.717303 0.711784C0.258712 1.16685 0.00074703 1.78383 0 2.42739V38.8332C0.00074703 39.4768 0.258712 40.0938 0.717303 40.5488C1.17589 41.0039 1.79766 41.2599 2.44621 41.2606ZM30.0012 40.4171L32.9766 40.3029L30.0197 43.1308L30.0012 40.4171ZM33.8706 7.27422V39.1477L29.6537 39.3096C29.5464 39.3073 29.4399 39.3273 29.3409 39.3684C29.2419 39.4094 29.1526 39.4705 29.0788 39.5478C29.005 39.6251 28.9484 39.7168 28.9124 39.8172C28.8765 39.9175 28.8621 40.0241 28.8702 40.1303L28.8958 43.8797H8.8788C8.52958 43.8793 8.19478 43.7414 7.94785 43.4964C7.70091 43.2514 7.56201 42.9191 7.56161 42.5726V7.27422C7.56203 6.9277 7.70094 6.59549 7.94787 6.35046C8.1948 6.10543 8.52959 5.96759 8.8788 5.96717H32.5534C32.9026 5.96756 33.2374 6.1054 33.4844 6.35043C33.7313 6.59547 33.8702 6.92769 33.8706 7.27422ZM1.12902 2.42739C1.12939 2.08085 1.26829 1.74861 1.51523 1.50357C1.76217 1.25853 2.09698 1.1207 2.44621 1.12033H26.1208C26.47 1.12073 26.8048 1.25856 27.0518 1.5036C27.2987 1.74863 27.4376 2.08086 27.438 2.42739V4.84684H8.8788C8.23025 4.84758 7.60848 5.10356 7.14989 5.55862C6.6913 6.01368 6.43334 6.63067 6.43259 7.27422V40.1403H2.44621C2.09698 40.1399 1.76217 40.0021 1.51523 39.757C1.26829 39.512 1.12939 39.1798 1.12902 38.8332V2.42739Z" fill="#4F4F4F"/>
<path d="M10.8321 24.9668H31.2508C31.4005 24.9668 31.5441 24.9077 31.65 24.8027C31.7558 24.6976 31.8153 24.5552 31.8153 24.4066C31.8153 24.258 31.7558 24.1156 31.65 24.0105C31.5441 23.9055 31.4005 23.8464 31.2508 23.8464H10.8321C10.6824 23.8464 10.5388 23.9055 10.4329 24.0105C10.3271 24.1156 10.2676 24.258 10.2676 24.4066C10.2676 24.5552 10.3271 24.6976 10.4329 24.8027C10.5388 24.9077 10.6824 24.9668 10.8321 24.9668Z" fill="#4F4F4F"/>
<path d="M10.8321 31.2595H31.2508C31.4005 31.2595 31.5441 31.2005 31.65 31.0954C31.7558 30.9904 31.8153 30.8479 31.8153 30.6993C31.8153 30.5508 31.7558 30.4083 31.65 30.3032C31.5441 30.1982 31.4005 30.1392 31.2508 30.1392H10.8321C10.6824 30.1392 10.5388 30.1982 10.4329 30.3032C10.3271 30.4083 10.2676 30.5508 10.2676 30.6993C10.2676 30.8479 10.3271 30.9904 10.4329 31.0954C10.5388 31.2005 10.6824 31.2595 10.8321 31.2595Z" fill="#4F4F4F"/>
<path d="M10.8321 37.5528H31.2508C31.4005 37.5528 31.5441 37.4938 31.65 37.3888C31.7558 37.2837 31.8153 37.1412 31.8153 36.9927C31.8153 36.8441 31.7558 36.7016 31.65 36.5966C31.5441 36.4915 31.4005 36.4325 31.2508 36.4325H10.8321C10.6824 36.4325 10.5388 36.4915 10.4329 36.5966C10.3271 36.7016 10.2676 36.8441 10.2676 36.9927C10.2676 37.1412 10.3271 37.2837 10.4329 37.3888C10.5388 37.4938 10.6824 37.5528 10.8321 37.5528Z" fill="#4F4F4F"/>
<path d="M11.0203 19.361H18.5659C18.7654 19.3607 18.9567 19.282 19.0979 19.142C19.239 19.0019 19.3183 18.8121 19.3186 18.6141V11.1265C19.3183 10.9285 19.239 10.7387 19.0979 10.5986C18.9567 10.4586 18.7654 10.3799 18.5659 10.3796H11.0203C10.8207 10.3799 10.6294 10.4586 10.4883 10.5986C10.3472 10.7387 10.2678 10.9285 10.2676 11.1265V18.6141C10.2678 18.8121 10.3472 19.0019 10.4883 19.142C10.6294 19.282 10.8207 19.3607 11.0203 19.361ZM11.3966 11.5H18.1895V18.2406H11.3966V11.5Z" fill="#4F4F4F"/>
<path d="M22.004 12.3795H31.248C31.3977 12.3795 31.5413 12.3205 31.6472 12.2154C31.753 12.1104 31.8125 11.9679 31.8125 11.8193C31.8125 11.6708 31.753 11.5283 31.6472 11.4232C31.5413 11.3182 31.3977 11.2592 31.248 11.2592H22.004C21.8542 11.2592 21.7107 11.3182 21.6048 11.4232C21.4989 11.5283 21.4395 11.6708 21.4395 11.8193C21.4395 11.9679 21.4989 12.1104 21.6048 12.2154C21.7107 12.3205 21.8542 12.3795 22.004 12.3795Z" fill="#4F4F4F"/>
<path d="M22.004 18.6734H31.248C31.3977 18.6734 31.5413 18.6144 31.6472 18.5094C31.753 18.4043 31.8125 18.2618 31.8125 18.1133C31.8125 17.9647 31.753 17.8222 31.6472 17.7172C31.5413 17.6121 31.3977 17.5531 31.248 17.5531H22.004C21.8542 17.5531 21.7107 17.6121 21.6048 17.7172C21.4989 17.8222 21.4395 17.9647 21.4395 18.1133C21.4395 18.2618 21.4989 18.4043 21.6048 18.5094C21.7107 18.6144 21.8542 18.6734 22.004 18.6734Z" fill="#4F4F4F"/>
</svg>
