<?xml version="1.0" encoding="utf-8"?>
<!-- Generator: Adobe Illustrator 24.0.2, SVG Export Plug-In . SVG Version: 6.00 Build 0)  -->
<svg version="1.1" id="Layer_1" xmlns="http://www.w3.org/2000/svg" xmlns:xlink="http://www.w3.org/1999/xlink" x="0px" y="0px"
	 viewBox="0 0 274.2 274.2" enable-background="new 0 0 274.2 274.2" xml:space="preserve">
<path fill="#333333" d="M4.4,101.2C2.1,109.5,0.7,118,0,126.6l12.1,0.9c-1.1,14.1,0.3,28.3,3.9,42l-11.7,3.1
	c2.2,8.2,5.2,16.2,8.9,23.9l11-5.3c6.1,12.7,14.4,24.4,24.3,34.4l-8.6,8.6c6,6,12.6,11.5,19.6,16.3l6.8-10c11.7,8,24.7,14,38.3,17.7
	l-3.2,11.6c8.2,2.2,16.6,3.7,25.1,4.3l1-12.1c14.1,1.1,28.3-0.2,42-3.9l3.2,11.8c8.2-2.2,16.2-5.2,23.8-8.8l-5.3-11
	c12.8-6.1,24.4-14.3,34.4-24.3l8.6,8.6c6-6,11.5-12.6,16.3-19.6l-10-6.9c8-11.7,14-24.6,17.6-38.3l11.7,3.1
	c2.2-8.2,3.7-16.6,4.3-25.1l-12.1-1c1.1-14.1-0.2-28.3-3.9-42l11.8-3.2c-2.2-8.2-5.2-16.2-8.8-23.9l-11,5.3
	c-6.1-12.8-14.3-24.4-24.3-34.4l8.6-8.6c-6-6-12.6-11.5-19.6-16.3l-6.9,10c-11.7-8-24.6-14-38.3-17.7l3.1-11.7
	c-8.2-2.2-16.6-3.7-25.1-4.3l-1,12.1c-14.1-1.1-28.3,0.2-42,3.8l-3.1-11.7C93.5,6.4,85.5,9.4,77.9,13l5.2,11
	c-12.8,6.1-24.4,14.3-34.5,24.3l-8.5-8.7c-6,6-11.5,12.5-16.3,19.6l10,6.9c-8,11.7-14,24.6-17.7,38.3L4.4,101.2z M33.5,109.3
	c15.4-63.8,93-99,151.1-68.4c59.5,27.5,78.9,110.5,37.7,161.5C150.9,294.5,4,221.8,33.5,109.3L33.5,109.3z"/>
</svg>
