<?xml version="1.0" encoding="utf-8"?>
<!-- Generator: Adobe Illustrator 24.0.2, SVG Export Plug-In . SVG Version: 6.00 Build 0)  -->
<svg version="1.1" id="Layer_1" xmlns="http://www.w3.org/2000/svg" xmlns:xlink="http://www.w3.org/1999/xlink" x="0px" y="0px"
	 viewBox="0 0 101.6 101.6" enable-background="new 0 0 101.6 101.6" xml:space="preserve">
<path fill="#333333" d="M1.7,37.7c-2.6,9.7-2.3,20,1,29.5c3.2,9.5,9.2,17.9,17.2,24c8,6.1,17.6,9.7,27.6,10.4
	c10,0.7,20-1.7,28.7-6.7c8.7-5,15.7-12.5,20.2-21.5c4.4-9,6.1-19.1,4.8-29.1c-1.3-10-5.5-19.3-12.2-26.9C82.4,9.7,73.7,4.3,64,1.7
	C51-1.8,37.1,0.1,25.4,6.8C13.8,13.6,5.2,24.7,1.7,37.7z M15.2,41.3c1.9-7,5.8-13.3,11.3-18.1c5.5-4.8,12.3-7.9,19.5-8.8
	c7.2-0.9,14.6,0.3,21.1,3.5c6.5,3.2,12,8.3,15.6,14.6S88,46,87.6,53.2c-0.5,7.3-3.1,14.2-7.5,20C75.6,79,69.6,83.4,62.7,85.7
	s-14.3,2.6-21.4,0.7c-9.4-2.5-17.5-8.7-22.4-17.2C14.1,60.8,12.7,50.7,15.2,41.3L15.2,41.3z"/>
</svg>
