<svg width="100" height="100" viewBox="0 0 100 100" fill="none" xmlns="http://www.w3.org/2000/svg">
<path d="M95.0937 49.9592C95.0732 48.9138 95.0322 47.8888 94.9707 46.8844L99.542 46.5564C99.4805 45.4289 99.3575 44.281 99.1935 43.1741L94.6428 43.8095C94.4993 42.7846 94.3353 41.7597 94.1098 40.7757L98.6195 39.8328C98.394 38.7258 98.1071 37.6189 97.7996 36.512L93.3718 37.7829C93.0849 36.7784 92.7774 35.7945 92.4289 34.8311L96.7746 33.2732C96.3852 32.2277 95.9752 31.1618 95.5242 30.1163L91.3015 31.9817C90.871 31.0388 90.4405 30.0958 89.969 29.1939L94.0483 27.062C93.5358 26.0576 92.9619 25.0736 92.3674 24.1102L88.4521 26.5085C87.8987 25.6271 87.3247 24.7866 86.7302 23.9462L90.502 21.2813C89.846 20.3589 89.1491 19.4364 88.4521 18.5755L84.8648 21.4863C84.2294 20.6869 83.5324 19.9284 82.8354 19.1699L86.1972 16.0131C85.4388 15.1932 84.6188 14.3937 83.7989 13.6148L80.6421 16.9971C79.9041 16.3001 79.1252 15.6236 78.3257 14.9677L81.2365 11.3804C80.3551 10.6834 79.4326 9.98646 78.5102 9.3305L75.8658 13.1023C75.0254 12.5078 74.1644 11.9339 73.283 11.4009L75.6814 7.46513C74.6974 6.89116 73.7135 6.31717 72.709 5.8047L70.5976 9.90446C69.6752 9.43299 68.7527 8.98203 67.8098 8.57205L69.6342 4.3493C68.5887 3.89832 67.5228 3.48835 66.4569 3.09887L64.9195 7.44461C63.956 7.09613 62.9721 6.80915 61.9881 6.52217L63.2181 2.09441C62.1316 1.78693 61.0247 1.52045 59.9178 1.29496L58.9953 5.78421C57.9908 5.57922 56.9659 5.41523 55.941 5.27174L56.556 0.720996C55.449 0.577505 54.3011 0.454504 53.1736 0.393008L52.8662 4.96427C51.8822 4.90277 50.8778 4.86177 49.8733 4.86177H49.7913V0.27002C48.6434 0.27002 47.516 0.311012 46.3885 0.393008L46.7165 4.98476C45.6711 5.06675 44.6461 5.16925 43.6417 5.31275L43.0062 0.741515C41.8993 0.905506 40.7718 1.08998 39.6649 1.33597L40.6079 5.82522C39.5829 6.0302 38.599 6.29669 37.5945 6.56318L36.3646 2.13542C35.2782 2.4429 34.1712 2.79138 33.1258 3.16036L34.6632 7.5061C33.6997 7.85458 32.7363 8.22356 31.7934 8.65403L29.969 4.43128C28.9235 4.88225 27.8986 5.37424 26.8941 5.88671L29.026 9.98648C28.1036 10.4579 27.2221 10.9499 26.3407 11.4829L23.9423 7.5676C22.9789 8.14157 22.0154 8.77704 21.093 9.433L23.7783 13.2048C22.9379 13.7992 22.1179 14.4142 21.3185 15.0497L18.4076 11.4829C17.5262 12.2003 16.6652 12.9588 15.8453 13.7172L19.0021 17.0996C18.2436 17.7965 17.5262 18.5345 16.8087 19.2724L13.4469 16.1361C12.668 16.9561 11.93 17.817 11.2125 18.6985L14.7998 21.6093C14.1438 22.4088 13.5289 23.2287 12.9344 24.0692L9.16263 21.4043C8.50667 22.3268 7.87123 23.2902 7.29726 24.2536L11.233 26.6315C10.7001 27.513 10.2081 28.4149 9.71611 29.3374L5.63683 27.226C5.10386 28.2099 4.61189 29.2554 4.16091 30.3008L8.3837 32.1252C7.97372 33.0682 7.60474 34.0316 7.25626 34.995L2.931 33.4576C2.54152 34.5236 2.19304 35.61 1.90606 36.6965L6.33381 37.9469C6.06733 38.9308 5.80084 39.9148 5.59586 40.9397L1.10661 40.0173C0.881119 41.1242 0.676134 42.2516 0.532642 43.3586L5.08338 43.9735C4.96039 44.9985 4.85788 46.0234 4.77588 47.0484L0.18415 46.7409C0.143152 47.3763 0.122651 47.9913 0.102153 48.6268C0.0816538 49.1187 0.081665 49.5902 0.081665 50.0822V50.1232H4.67338C4.67338 50.5947 4.67339 51.0456 4.71439 51.5171C4.71439 52.0911 4.7554 52.6445 4.7964 53.2185L0.204653 53.526C0.286648 54.6534 0.389139 55.8014 0.553129 56.9083L5.10387 56.2933C5.24736 57.3183 5.41135 58.3227 5.61634 59.3271L1.12709 60.2701C1.35258 61.3565 1.61906 62.484 1.92655 63.5704L6.37479 62.32C6.64127 63.3039 6.94878 64.2879 7.29726 65.2513L2.97201 66.8092C3.34099 67.8752 3.77146 68.9206 4.22244 69.966L8.44519 68.1212C8.85517 69.0641 9.28563 69.9866 9.7776 70.909L5.67784 73.0204C6.19031 74.0248 6.76427 75.0293 7.33824 75.9927L11.274 73.5943C11.807 74.4553 12.381 75.3162 12.9754 76.1567L9.22413 78.8216C9.85959 79.744 10.5566 80.6459 11.274 81.5274L14.8408 78.6166C15.4968 79.416 16.1733 80.1745 16.8702 80.9329L13.5084 84.0897C14.2874 84.9097 15.0868 85.7091 15.9068 86.4881L19.0636 83.1058C19.822 83.8233 20.5805 84.4997 21.3799 85.1352L18.4691 88.7225C19.3506 89.44 20.2525 90.1164 21.1749 90.7724L23.8398 87.0006C24.6803 87.595 25.5412 88.169 26.4226 88.702L24.0243 92.6439C24.9877 93.2384 25.9922 93.7919 26.9966 94.3248L29.108 90.2251C30.0305 90.6965 30.9529 91.1475 31.8959 91.5575L30.0715 95.7802C31.0964 96.2312 32.1623 96.6412 33.2283 97.0307L34.7657 92.6849C35.7223 93.0334 36.7062 93.3409 37.7175 93.6074L36.4876 98.0556C37.574 98.3631 38.681 98.6296 39.7879 98.8551L40.7103 94.3453C41.7148 94.5708 42.7192 94.7143 43.7442 94.8578L43.1292 99.429C44.2566 99.5725 45.3841 99.6955 46.5115 99.757L46.819 95.1653C47.8234 95.2473 48.8484 95.2882 49.8733 95.2882H49.9143V99.88C51.0418 99.88 52.1897 99.839 53.2966 99.757L52.9891 95.1653C54.0141 95.1038 55.039 95.0013 56.064 94.8578L56.6789 99.4085C57.8064 99.265 58.9338 99.0601 60.0407 98.8346L59.0978 94.3453C60.1227 94.1403 61.1067 93.8738 62.0906 93.6074L63.3411 98.0351C64.4275 97.7276 65.5139 97.3792 66.5799 97.0102L65.0425 92.6644C66.0059 92.3159 66.9694 91.947 67.8918 91.537L69.7367 95.7597C70.7821 95.3088 71.8071 94.8168 72.8115 94.2838L70.6796 90.2045C71.5816 89.7331 72.4835 89.2206 73.365 88.6877L75.7633 92.6234C76.7268 92.029 77.6902 91.414 78.5922 90.758L75.9273 86.9862C76.7678 86.3918 77.6082 85.7768 78.3872 85.1208L81.298 88.7081C82.1795 87.9907 83.0404 87.2322 83.8604 86.4738L80.7241 83.0914C81.462 82.3945 82.2 81.677 82.8969 80.9186L86.2793 84.0754C87.0377 83.235 87.7962 82.374 88.5136 81.5131L84.9263 78.6022C85.5823 77.8027 86.1973 76.9828 86.7917 76.1423L90.5635 78.8072C91.2195 77.8848 91.8344 76.9213 92.4289 75.9579L88.4931 73.5595C89.0261 72.6781 89.5386 71.7761 90.01 70.8742L94.0893 72.9855C94.6223 71.9811 95.1143 70.9562 95.5652 69.9107L91.3425 68.0863C91.7524 67.1434 92.1214 66.1799 92.4699 65.2165L96.8157 66.7539C97.1846 65.6879 97.5331 64.6015 97.8406 63.5151L93.4128 62.2646C93.6793 61.2807 93.9253 60.2968 94.1508 59.2718L98.64 60.1943C98.8655 59.1078 99.0705 57.9804 99.214 56.8529L94.6633 56.238C94.7863 55.2131 94.9092 54.1881 94.9707 53.1632L99.5625 53.4706C99.6445 52.3432 99.665 51.2158 99.665 50.0883V49.9448L95.0937 49.9592ZM49.8733 90.9773C41.783 90.9753 33.875 88.5743 27.1492 84.0779C20.4235 79.5814 15.1821 73.1916 12.088 65.7163C8.99381 58.241 8.18582 50.0161 9.76616 42.0816C11.3465 34.1472 15.2442 26.8595 20.9663 21.1402C26.6885 15.4209 33.9781 11.5269 41.9134 9.95051C49.8486 8.37415 58.0732 9.18627 65.5469 12.2842C73.0206 15.3821 79.4078 20.6266 83.9009 27.3546C88.3939 34.0826 90.791 41.9919 90.789 50.0822C90.7765 60.928 86.4611 71.3257 78.79 78.9929C71.119 86.6601 60.7191 90.9703 49.8733 90.9773V90.9773Z" fill="#939393"/>
</svg>
