<?xml version="1.0" encoding="utf-8"?>
<!-- Generator: Adobe Illustrator 24.0.2, SVG Export Plug-In . SVG Version: 6.00 Build 0)  -->
<svg version="1.1" id="Layer_1" xmlns="http://www.w3.org/2000/svg" xmlns:xlink="http://www.w3.org/1999/xlink" x="0px" y="0px"
	 viewBox="0 0 143.6 143.6" enable-background="new 0 0 143.6 143.6" xml:space="preserve">
<path fill="#333333" d="M2.5,53.2c-3.7,13.7-3.2,28.2,1.4,41.7c4.6,13.5,13,25.2,24.3,33.9c11.3,8.7,24.8,13.8,39,14.7
	c14.2,0.9,28.3-2.4,40.6-9.5c12.3-7.1,22.2-17.7,28.5-30.4c6.3-12.7,8.7-27.1,6.8-41.1s-7.8-27.3-17.2-38
	c-9.4-10.7-21.7-18.3-35.4-22C72-2.5,52.4,0.1,35.9,9.6S7.4,34.8,2.5,53.2L2.5,53.2z M5.6,54c3.5-13.1,10.8-24.8,21-33.8
	C36.8,11.3,49.4,5.6,62.9,3.9c13.4-1.8,27.1,0.5,39.2,6.5c12.2,6,22.3,15.5,29,27.2c6.8,11.7,9.9,25.2,9,38.7
	c-0.9,13.5-5.8,26.5-14,37.2c-8.2,10.8-19.5,18.8-32.3,23.2C81,141,67.2,141.5,54.1,138c-17.6-4.7-32.5-16.2-41.6-31.9
	C3.4,90.3,0.9,71.6,5.6,54L5.6,54z"/>
</svg>
