<svg width="337" height="337" viewBox="0 0 337 337" fill="none" xmlns="http://www.w3.org/2000/svg">
<path d="M35.6753 132.586L35.5952 132.885C34.7517 136.033 34.0071 139.208 33.3952 142.418C33.0791 144.002 32.7943 145.596 32.5753 147.205C31.9984 150.815 31.5717 154.396 31.2782 158.009L43.3535 158.936C42.2784 173.063 43.6119 187.271 47.2969 200.951L35.552 204.09C37.7634 212.315 40.7346 220.317 44.4274 227.991L55.3887 222.724C61.5221 235.473 69.7519 247.102 79.7351 257.127L71.1106 265.72C77.1246 271.753 83.692 277.207 90.7261 282.011L97.5688 271.982C109.256 280.003 122.224 285.976 135.917 289.644L132.724 301.291L132.823 301.317C141.005 303.502 149.367 304.947 157.808 305.633L158.777 293.533C172.886 294.615 187.077 293.289 200.741 289.612L203.915 301.364C212.12 299.164 220.103 296.205 227.76 292.524L222.502 281.526C235.271 275.429 246.913 267.211 256.932 257.22L265.523 265.844C271.55 259.84 277.004 253.288 281.814 246.271L271.827 239.404C279.843 227.739 285.81 214.793 289.472 201.121L301.17 204.256L301.214 204.091C303.398 195.931 304.825 187.587 305.478 179.165L293.412 178.205C294.51 164.094 293.183 149.9 289.49 136.238L301.277 133.074C299.066 124.859 296.108 116.862 292.441 109.185L281.444 114.443C275.336 101.681 267.119 90.041 257.139 80.013L265.763 71.4201C259.752 65.3957 253.204 59.9325 246.201 55.0983L239.324 65.1188C227.658 57.1038 214.717 51.1248 201.052 47.4361L204.186 35.738L203.988 35.685C195.85 33.5128 187.532 32.0824 179.136 31.4113L178.168 43.5093C164.055 42.3847 149.853 43.6849 136.179 47.3537L133.04 35.6088C124.82 37.8065 116.822 40.7645 109.149 44.4446L114.383 55.3968C101.617 61.5104 89.9682 69.7234 79.9215 79.6935L71.3734 71.0365C65.3312 77.0323 59.8658 83.5825 55.049 90.6008L65.0359 97.4681C56.9973 109.135 51.0051 122.087 47.3164 135.767L35.6753 132.586ZM64.7462 140.732C70.2412 120.237 81.6901 101.831 97.6451 87.8421C113.6 73.8532 133.345 64.9093 154.383 62.1412C175.42 59.3732 196.807 62.9053 215.837 72.291C234.868 81.6767 250.688 96.4945 261.297 114.871C271.907 133.247 276.829 154.357 275.442 175.531C274.055 196.704 266.421 216.991 253.505 233.827C240.589 250.662 222.971 263.289 202.879 270.112C182.787 276.935 161.122 277.647 140.625 272.159C113.154 264.761 89.7388 246.771 75.5141 222.133C61.2894 197.495 57.417 168.221 64.7462 140.732V140.732Z" fill="#333333"/>
</svg>
