<svg width="177" height="177" viewBox="0 0 177 177" fill="none" xmlns="http://www.w3.org/2000/svg">
<path d="M19.0107 69.9133C15.3311 83.6331 15.8026 98.1358 20.3654 111.588C24.9283 125.039 33.3776 136.836 44.6448 145.486C55.9121 154.136 69.4913 159.25 83.6653 160.182C97.8393 161.115 111.971 157.823 124.275 150.723C136.578 143.624 146.499 133.036 152.785 120.297C159.07 107.559 161.437 93.2429 159.586 79.1594C157.735 65.0759 151.75 51.8575 142.387 41.1758C133.023 30.4941 120.703 22.8287 106.983 19.1492C88.5863 14.2378 68.9925 16.8241 52.5002 26.3409C36.0079 35.8577 23.964 51.5278 19.0107 69.9133V69.9133ZM22.1926 70.7659C25.7035 57.677 33.0165 45.923 43.207 36.9899C53.3974 28.0568 66.0078 22.3458 79.4437 20.5789C92.8796 18.8119 106.538 21.0685 118.691 27.0632C130.845 33.0578 140.948 42.5215 147.724 54.2576C154.499 65.9937 157.643 79.4753 156.757 92.9979C155.872 106.521 150.997 119.477 142.748 130.229C134.5 140.981 123.248 149.046 110.417 153.404C97.585 157.763 83.7492 158.219 70.6585 154.714C53.1079 149.995 38.147 138.505 29.0602 122.766C19.9734 107.026 17.5035 88.3245 22.1926 70.7659V70.7659Z" fill="#333333"/>
</svg>
