<svg width="14" height="14" viewBox="0 0 14 14" fill="none" xmlns="http://www.w3.org/2000/svg">
<g clip-path="url(#clip0)">
<path d="M5.79729 8.20286C4.46102 6.86659 4.15929 5.53031 4.09122 4.99493C4.0722 4.8469 4.12315 4.69844 4.22905 4.59327L5.31043 3.51238C5.4695 3.3534 5.49773 3.10565 5.3785 2.91496L3.65674 0.241445C3.52483 0.0302982 3.25399 -0.0459068 3.03133 0.0654796L0.267294 1.36724C0.0872392 1.4559 -0.0186665 1.6472 0.00177672 1.84686C0.146604 3.22272 0.746432 6.60493 4.07022 9.92896C7.39402 13.253 10.7757 13.8526 12.1523 13.9974C12.352 14.0179 12.5433 13.912 12.6319 13.7319L13.9337 10.9679C14.0447 10.7457 13.969 10.4756 13.7587 10.3434L11.0852 8.62214C10.8946 8.50278 10.6469 8.53081 10.4878 8.68972L9.40688 9.7711C9.30171 9.87701 9.15326 9.92795 9.00522 9.90893C8.46985 9.84086 7.13357 9.53914 5.79729 8.20286V8.20286Z" fill="#151517"/>
<path d="M11.1035 7.48278C10.8369 7.48278 10.6208 7.26665 10.6208 7.00002C10.6185 5.00131 8.99881 3.3816 7.00009 3.37934C6.73347 3.37934 6.51733 3.1632 6.51733 2.89658C6.51733 2.62996 6.73347 2.41382 7.00009 2.41382C9.53183 2.41661 11.5835 4.46829 11.5863 7.00002C11.5863 7.26665 11.3702 7.48278 11.1035 7.48278Z" fill="#151517"/>
<path d="M13.5173 7.48276C13.2507 7.48276 13.0346 7.26662 13.0346 7C13.0308 3.66879 10.3313 0.969242 7.00009 0.965517C6.73347 0.965517 6.51733 0.749379 6.51733 0.482759C6.51733 0.216138 6.73347 0 7.00009 0C10.8643 0.00425694 13.9958 3.13577 14.0001 7C14.0001 7.12804 13.9492 7.25083 13.8587 7.34136C13.7682 7.4319 13.6454 7.48276 13.5173 7.48276Z" fill="#151517"/>
</g>
<defs>
<clipPath id="clip0">
<rect width="14" height="14" fill="white"/>
</clipPath>
</defs>
</svg>
