<svg width="18" height="18" viewBox="0 0 18 18" fill="none" xmlns="http://www.w3.org/2000/svg">
<path d="M6.25079 18.0001C7.31844 18.0001 8.18394 17.1346 8.18394 16.0669C8.18394 14.9993 7.31844 14.1338 6.25079 14.1338C5.18313 14.1338 4.31763 14.9993 4.31763 16.0669C4.31763 17.1346 5.18313 18.0001 6.25079 18.0001Z" fill="#C90C0F"/>
<path d="M14.4129 18.0001C15.4805 18.0001 16.3461 17.1346 16.3461 16.0669C16.3461 14.9993 15.4805 14.1338 14.4129 14.1338C13.3452 14.1338 12.4797 14.9993 12.4797 16.0669C12.4797 17.1346 13.3452 18.0001 14.4129 18.0001Z" fill="#C90C0F"/>
<path d="M4.72563 3.3723L4.05976 1.35321C3.7947 0.554992 3.05346 0.0120052 2.21248 0H0.773345C0.536079 0 0.34375 0.192329 0.34375 0.429595C0.34375 0.666862 0.536079 0.859191 0.773345 0.859191H2.21248C2.67957 0.86951 3.09087 1.16943 3.24353 1.61099L5.94999 9.83773L5.75668 10.3317C5.52114 10.9476 5.58462 11.6379 5.92853 12.2005C6.28601 12.7462 6.88742 13.083 7.53952 13.1026H15.9166C16.1539 13.1026 16.3462 12.9103 16.3462 12.673C16.3462 12.4358 16.1539 12.2434 15.9166 12.2434H7.53948C7.17781 12.2309 6.84676 12.0372 6.65883 11.7279C6.45606 11.4227 6.41593 11.0374 6.55144 10.6969L6.80918 10.0525C6.84791 9.94952 6.85539 9.83744 6.83064 9.73026L6.70175 9.40805L15.444 8.5059C16.0805 8.44863 16.6086 7.98976 16.7543 7.36746L17.6564 3.56557L4.72563 3.3723Z" fill="#C90C0F"/>
</svg>
