<svg width="696" height="202" viewBox="0 0 696 202" fill="none" xmlns="http://www.w3.org/2000/svg">
<g filter="url(#filter0_i)">
<path d="M512.31 128.846L520.889 80.7991L520.889 80.7988C523.11 68.3369 530.679 55.6259 541.452 46.473C551.962 37.5431 565.452 32.0568 579.902 33.4258L573.098 73.025C573.039 72.9995 572.978 72.9747 572.913 72.9511C572.272 72.7181 571.429 72.6368 569.949 72.6368H569.891L569.833 72.6435C567.429 72.9242 565.164 73.916 563.329 75.4916L563.981 76.2503L563.329 75.4917C561.494 77.0675 560.173 79.1554 559.535 81.487L559.524 81.5289L559.516 81.5717L550.916 128.846H512.31Z" fill="#192D52" stroke="#192D52" stroke-width="2"/>
<path d="M642.987 128.838H622.481L628.899 92.1823H642.893C645.425 92.1823 647.062 90.3232 647.477 88.0244C647.889 85.7396 647.154 82.9384 645.057 80.5164L645.043 80.5002L645.028 80.4846C641.713 76.9736 639.405 72.6384 638.345 67.9324L638.345 67.9323C637.285 63.2263 637.511 58.3223 639 53.7334C640.489 49.1446 643.187 45.0395 646.812 41.8477L646.812 41.8476C650.435 38.6557 654.852 36.4946 659.6 35.5904L659.63 35.5846L659.66 35.577C662.607 34.8247 665.592 34.2273 668.601 33.7874L668.602 33.7873C671.345 33.3833 674.114 33.1799 676.887 33.1787C676.887 33.1787 676.887 33.1787 676.888 33.1787L694.81 33.1787L688.566 68.8895H673.976C672.243 68.8895 670.438 70.1772 669.83 72.146C669.195 74.2049 669.904 76.7533 672.605 79.3091L672.605 79.3098C678.589 84.9612 682.482 94.9458 681.915 104.358C681.352 113.689 676.425 122.36 664.823 125.701L664.819 125.702C657.728 127.776 650.377 128.832 642.987 128.838Z" fill="#192D52" stroke="#192D52" stroke-width="2"/>
<path d="M337.099 128.862L352.675 42.7093L352.676 42.7035C354.523 32.1288 359.687 22.4128 367.424 14.9561C375.157 7.5034 385.06 2.69259 395.707 1.2167C401.458 0.620121 407.27 1.2588 412.753 3.08988C418.241 4.92274 423.272 7.90774 427.507 11.8438L427.507 11.8439C431.743 15.78 435.084 20.5759 437.306 25.9087L437.307 25.9088C439.529 31.2418 440.582 36.988 440.393 42.7607L440.393 42.7835L440.393 42.8063C440.425 45.3287 440.262 47.8496 439.903 50.3462C439.372 50.7839 438.841 51.2401 438.311 51.7149C436.702 53.1286 435.173 54.5829 433.684 56.1174L433.677 56.1248L433.67 56.1323C431.867 58.0683 430.183 60.112 428.629 62.252L428.62 62.265L428.611 62.2784C427.716 63.5976 426.882 64.9145 426.087 66.3156C425.281 67.7354 424.62 69.1792 423.974 70.6451C423.417 71.9085 423 73.2227 422.595 74.5018C422.512 74.764 422.429 75.0248 422.346 75.2833C421.875 76.7458 421.625 78.2599 421.383 79.7221C421.353 79.9021 421.324 80.0812 421.294 80.2594L421.291 80.2756L421.289 80.292C421.138 81.4139 421.02 82.524 420.933 83.6334C413.968 89.3443 405.492 92.9212 396.529 93.9274C394.631 94.1245 392.722 94.1988 390.814 94.1497L398.309 53.4488C399.975 52.5716 401.333 51.1981 402.189 49.5126C403.125 47.6686 403.406 45.561 402.983 43.5364C402.56 41.5121 401.46 39.6918 399.864 38.3749C398.268 37.0581 396.27 36.3228 394.2 36.2897C392.13 36.2567 390.11 36.9277 388.472 38.193C386.835 39.4582 385.676 41.2423 385.189 43.2523C384.702 45.2618 384.914 47.3774 385.792 49.2509C386.561 50.8926 387.8 52.2625 389.344 53.1923L381.941 93.9801L381.941 93.9809L381.217 97.9497L381.217 97.9518L380.342 102.811L380.342 102.812L375.7 128.862H337.099Z" fill="#192D52" stroke="#192D52" stroke-width="2"/>
<path fill-rule="evenodd" clip-rule="evenodd" d="M40.6117 129.861H0L15.7802 42.5303C17.6702 31.7465 22.9418 21.8403 30.8353 14.2396C38.7287 6.6389 48.8362 1.73635 59.7007 0.238639C65.599 -0.375559 71.5605 0.278315 77.1847 2.15628C82.808 4.03423 87.9636 7.09271 92.3048 11.1259C96.6451 15.1591 100.07 20.0735 102.348 25.5384C104.627 31.0034 105.707 36.892 105.514 42.8082V44.0467L103.43 45.8012L99.4536 49.7708L95.8426 54.0579L92.5975 58.5832L89.7739 63.307L87.3878 68.1816L85.463 73.1912L84.0154 78.2722L82.4962 86.7353C76.0473 91.2146 68.5764 94.0091 60.7665 94.865C58.4444 95.1087 56.1066 95.1666 53.7752 95.0396L61.5619 52.7083C63.2506 51.9402 64.6252 50.6185 65.4572 48.9627C66.2893 47.3069 66.5287 45.4168 66.1357 43.6065C65.7426 41.7961 64.7408 40.1745 63.2968 39.0111C61.8527 37.8477 60.0533 37.2125 58.1975 37.2111H57.7441C55.9509 37.3111 54.2413 38.0012 52.8824 39.1735C51.5236 40.3459 50.5919 41.9343 50.2331 43.691C49.8741 45.4476 50.1082 47.2734 50.8987 48.8832C51.6892 50.493 52.9916 51.7962 54.6024 52.5892L47.0463 94.079L46.8157 95.381L45.4556 102.907L40.6117 129.861Z" fill="#841819"/>
<path fill-rule="evenodd" clip-rule="evenodd" d="M148.075 33.3857L140.837 75.463C139.684 74.8358 139.898 74.4865 136.948 74.4865C134.744 74.7492 132.668 75.6602 130.984 77.1035C129.3 78.5468 128.084 80.4576 127.491 82.5924L118.741 130.688H78.1296L86.8788 81.4651C91.4442 56.036 117.699 29.8211 148.075 33.3857Z" fill="#841819"/>
<path fill-rule="evenodd" clip-rule="evenodd" d="M186.603 38.2282C187.732 38.1091 188.83 38.0456 189.927 38.0059L182.26 79.6307C180.571 80.3913 179.193 81.7028 178.351 83.3502C177.509 84.9968 177.254 86.8807 177.628 88.6916C178.003 90.5025 178.984 92.1324 180.41 93.3122C181.835 94.4919 183.621 95.1525 185.473 95.1842C187.325 95.216 189.133 94.6174 190.598 93.4869C192.064 92.3555 193.101 90.7606 193.537 88.9639C193.972 87.1665 193.783 85.2754 192.998 83.6003C192.213 81.9259 190.881 80.5675 189.219 79.7498L196.751 38.3631C206.862 39.8696 216.072 45.0167 222.643 52.8335C229.215 60.6504 232.694 70.597 232.424 80.7978C232.577 93.4249 228.12 105.676 219.886 115.263C211.651 124.85 200.202 131.117 187.676 132.894C181.777 133.507 175.816 132.852 170.191 130.973C164.567 129.095 159.411 126.035 155.07 122.002C150.729 117.968 147.304 113.053 145.024 107.588C142.745 102.122 141.664 96.2338 141.855 90.3168C141.707 77.6917 146.166 65.4445 154.4 55.86C162.634 46.2754 174.08 40.0083 186.603 38.2282Z" fill="#841819"/>
<path fill-rule="evenodd" clip-rule="evenodd" d="M328.8 129.862H288.164L304.342 42.7297H344.787L328.8 129.862Z" fill="#841819"/>
<path fill-rule="evenodd" clip-rule="evenodd" d="M289.079 95.3109L296.166 55.385L281.729 55.5279L282.724 50.1293C283.309 47.9893 284.522 46.073 286.207 44.6271C287.893 43.181 289.974 42.2715 292.181 42.0155C294.027 41.8509 295.882 42.1913 297.549 43L304.787 0.922666C304.31 0.867093 302.354 0.819458 301.876 0.779763C272.113 -1.81633 246.638 23.9858 242.144 49.0019L227.453 130.695H268.089L274.507 95.3982L289.079 95.3109Z" fill="#841819"/>
<path d="M629.935 4.49463L624.803 31.156L624.571 32.3571L625.795 32.3449L634.134 32.2618L627.411 70.1809L618.222 70.2392L617.408 70.2443L617.248 71.0427L616.453 75.0122L616.451 75.0222L616.449 75.0321C616.184 76.5079 615.827 77.9727 615.476 79.4144C615.371 79.8429 615.267 80.2695 615.166 80.6936C614.735 82.5086 614.355 84.2975 614.314 85.8658C614.273 87.4338 614.565 88.9722 615.68 90.0986C616.788 91.2183 618.501 91.7218 620.806 91.7218C620.968 91.7218 621.724 91.7066 622.479 91.6915L622.563 91.6898C622.745 91.6862 622.926 91.6826 623.099 91.6791L616.304 129.684C615.155 129.67 613.318 129.648 612.864 129.648C607.082 129.597 601.391 128.206 596.241 125.583L596.241 125.583C591.089 122.96 586.62 119.177 583.186 114.533C576.152 105.004 575.91 92.6677 579.085 74.9388C579.085 74.9367 579.086 74.9346 579.086 74.9325L592.632 4.49463H629.935Z" fill="#192D52" stroke="#192D52" stroke-width="2"/>
<path d="M514.45 77.7767L514.45 77.7801C514.498 80.9374 514.237 84.0908 513.671 87.1976C513.671 87.1985 513.671 87.1994 513.671 87.2002L505.972 128.862H470.686C446.079 128.862 426.177 112.711 425.889 87.291C426.073 80.0001 428.098 72.8736 431.777 66.5718C435.282 60.5688 440.179 55.4993 446.05 51.7863L461.374 80.7714C460.606 82.4914 460.388 84.4109 460.758 86.2664L460.758 86.2668C461.163 88.298 462.248 90.1304 463.834 91.4641L463.834 91.4643C465.421 92.797 467.414 93.552 469.486 93.6045C471.559 93.6571 473.587 93.0047 475.24 91.754C476.892 90.5033 478.07 88.728 478.577 86.7202C479.085 84.7127 478.894 82.5919 478.035 80.7075C477.175 78.8225 475.7 77.2863 473.851 76.3503L473.851 76.3502C472.228 75.5288 470.402 75.2124 468.607 75.432L446.528 33.9995C463.893 29.5048 480.629 30.787 493.112 37.8434C505.788 45.0093 514.223 58.209 514.45 77.7767Z" fill="#192D52" stroke="#192D52" stroke-width="2"/>
<path fill-rule="evenodd" clip-rule="evenodd" d="M385.211 179.755L393.165 136.452H377.869L369.731 180.818C369.525 181.948 369.152 183.042 368.624 184.065C367.956 185.329 367.051 186.456 365.959 187.387C364.537 188.528 362.898 189.375 361.14 189.879C358.694 190.605 356.15 190.95 353.597 190.901C351.136 190.979 348.68 190.633 346.338 189.879C344.861 189.43 343.547 188.564 342.558 187.387C341.813 186.426 341.36 185.273 341.251 184.065C341.127 182.982 341.175 181.887 341.393 180.818L349.532 136.485H334.219L326.256 179.788C325.696 182.648 325.903 185.604 326.86 188.359C327.86 191.008 329.545 193.351 331.746 195.153C334.287 197.203 337.221 198.721 340.371 199.613C344.203 200.734 348.185 201.274 352.18 201.215C356.422 201.26 360.651 200.737 364.752 199.662C368.288 198.737 371.649 197.248 374.701 195.252C377.434 193.455 379.793 191.155 381.649 188.475C383.422 185.853 384.626 182.895 385.186 179.788L385.211 179.755ZM408.881 199.214L412.711 178.376H418.31L428.703 199.214H444.996L431.083 172.696L452.405 152.581H436.598L418.301 170.412H414.178L420.405 136.493H406.073L394.59 199.214H408.881ZM489.586 163.502C487.985 163.326 486.376 163.239 484.766 163.244C483.362 163.234 481.96 163.346 480.575 163.577C479.123 163.819 477.712 164.263 476.385 164.897C475.038 165.563 473.852 166.51 472.906 167.671C471.865 169.054 471.17 170.663 470.878 172.363L465.941 199.239H451.794L460.359 152.564H474.549L472.873 161.608C473.346 160.761 473.885 159.95 474.482 159.183C475.164 158.355 475.956 157.623 476.837 157.007C478.171 156.061 479.571 155.212 481.028 154.466C481.824 154.017 482.654 153.635 483.542 153.195C484.485 152.777 485.464 152.443 486.468 152.198C487.565 151.931 488.69 151.797 489.82 151.8C490.101 151.795 490.381 151.814 490.658 151.858C490.978 151.879 491.298 151.918 491.614 151.974L489.51 163.502H489.586ZM538.483 199.214L538.785 197.553C537.988 196.868 537.352 196.017 536.924 195.061C536.522 194.11 536.394 193.066 536.555 192.047L541.24 166.558C541.978 163.651 541.536 160.574 540.008 157.987C538.312 155.627 535.826 153.938 532.993 153.22C529.117 152.144 525.099 151.651 521.075 151.758C519.291 151.747 517.509 151.835 515.736 152.024C513.613 152.247 511.516 152.656 509.466 153.245C507.292 153.853 505.215 154.761 503.298 155.944C501.297 157.166 499.566 158.776 498.21 160.678C496.686 162.882 495.66 165.386 495.201 168.02H508.611C508.845 167.053 509.176 166.113 509.6 165.213C510.081 164.202 510.733 163.28 511.528 162.489C512.498 161.563 513.655 160.853 514.923 160.404C516.632 159.825 518.43 159.544 520.236 159.573C521.883 159.516 523.524 159.784 525.064 160.362C526.114 160.734 527.002 161.453 527.579 162.397C528.017 163.283 528.144 164.288 527.939 165.254C527.732 166.313 527.237 167.296 526.506 168.095C525.674 168.958 524.623 169.584 523.463 169.905C520.706 170.636 518.007 171.25 515.409 171.765C512.81 172.28 510.313 172.779 507.974 173.269C505.761 173.723 503.577 174.311 501.437 175.029C499.541 175.652 497.735 176.518 496.064 177.604C494.488 178.657 493.149 180.022 492.133 181.615C490.984 183.457 490.215 185.506 489.87 187.645C489.272 190.195 489.552 192.87 490.667 195.244C491.766 197.266 493.545 198.841 495.696 199.696C498.313 200.723 501.112 201.217 503.926 201.149C506.292 201.147 508.65 200.869 510.95 200.319C512.835 199.869 514.667 199.224 516.415 198.392C517.773 197.761 519.079 197.026 520.32 196.191C521.368 195.468 522.147 194.92 522.684 194.53V194.737C522.675 194.811 522.662 194.883 522.642 194.953C522.504 195.714 522.504 196.493 522.642 197.254C522.763 197.936 523.01 198.589 523.371 199.181L538.483 199.214ZM525.089 180.818C524.705 183.254 523.726 185.56 522.24 187.537C520.904 189.179 519.146 190.435 517.152 191.175C515.003 191.942 512.731 192.311 510.447 192.263C509.276 192.304 508.112 192.077 507.044 191.598C506.278 191.227 505.631 190.651 505.175 189.937C504.789 189.288 504.555 188.562 504.488 187.811C504.404 187.119 504.427 186.419 504.555 185.735C504.758 184.833 505.19 183.998 505.812 183.31C506.56 182.435 507.456 181.696 508.461 181.125C509.583 180.469 510.815 180.019 512.098 179.797C513.364 179.564 514.763 179.306 516.289 179.008C517.814 178.709 519.415 178.326 521.066 177.911C522.697 177.502 524.306 177.008 525.886 176.433L525.047 180.826L525.089 180.818ZM572.428 147.24L574.406 136.444H560.082L558.112 147.24H572.428ZM562.873 199.247L571.439 152.572H557.19L548.557 199.214L562.873 199.247ZM625.801 199.247L631.542 167.987C632.327 164.839 631.986 161.52 630.578 158.593C629.148 156.123 626.842 154.271 624.108 153.394C620.598 152.238 616.91 151.7 613.212 151.808C611.328 151.817 609.459 152.134 607.68 152.747C605.812 153.386 604.045 154.286 602.433 155.421C600.75 156.611 599.247 158.031 597.966 159.64L599.257 152.572H585.117L576.543 199.247H590.716L596.256 169.108C596.434 168.221 596.781 167.374 597.279 166.616C597.909 165.63 598.715 164.765 599.659 164.067C600.877 163.185 602.241 162.522 603.691 162.107C605.624 161.553 607.629 161.288 609.641 161.318C611.296 161.249 612.947 161.515 614.494 162.098C615.479 162.46 616.284 163.187 616.74 164.125C617.154 165.03 617.332 166.023 617.26 167.015C617.175 168.13 617.024 169.239 616.807 170.337L611.494 199.272L625.801 199.247ZM691.302 176.516C691.624 174.887 691.806 173.234 691.847 171.574C691.922 169.84 691.769 168.104 691.394 166.409C690.966 164.518 690.26 162.699 689.299 161.01C688.586 159.766 687.707 158.623 686.684 157.613C685.501 156.454 684.164 155.46 682.711 154.657C680.965 153.729 679.102 153.036 677.171 152.597C674.811 152.03 672.391 151.751 669.963 151.767C666.446 151.735 662.945 152.231 659.578 153.237C656.337 154.231 653.309 155.807 650.643 157.888C647.846 160.12 645.522 162.877 643.804 166.002C641.772 169.697 640.379 173.702 639.68 177.853C639.012 181.145 639.043 184.54 639.773 187.819C640.438 190.562 641.82 193.082 643.779 195.128C645.789 197.182 648.262 198.732 650.995 199.654C654.138 200.715 657.441 201.232 660.76 201.182C664.935 201.22 669.086 200.571 673.047 199.264C676.555 198.119 679.813 196.33 682.652 193.99C685.269 191.821 687.367 189.103 688.796 186.034H674.723C674.3 186.854 673.732 187.594 673.047 188.218C672.189 188.99 671.247 189.667 670.239 190.236C669.162 190.867 668.015 191.371 666.82 191.739C665.629 192.114 664.389 192.307 663.14 192.312C661.452 192.359 659.775 192.024 658.237 191.332C656.987 190.766 655.893 189.912 655.044 188.841C654.273 187.824 653.735 186.654 653.468 185.411C653.196 184.213 653.17 182.973 653.393 181.765C653.393 181.516 653.476 181.225 653.543 180.843C653.61 180.461 653.636 180.112 653.703 179.747C653.75 179.438 653.829 179.135 653.937 178.841H690.757C690.8 178.56 690.863 178.282 690.95 178.011C691.008 177.787 691.042 177.562 691.101 177.346C691.159 177.131 691.243 176.84 691.302 176.516ZM677.271 171.608H655.253C655.485 170.388 655.9 169.209 656.485 168.111C657.125 166.832 657.975 165.668 659 164.665C660.155 163.546 661.518 162.66 663.014 162.057C664.79 161.338 666.695 160.982 668.613 161.01C670.099 160.985 671.577 161.244 672.963 161.774C674.005 162.197 674.926 162.867 675.645 163.726C676.28 164.502 676.747 165.397 677.02 166.359C677.293 167.267 677.435 168.21 677.439 169.158C677.454 169.967 677.394 170.775 677.263 171.574L677.271 171.608Z" fill="#841819"/>
</g>
<defs>
<filter id="filter0_i" x="0" y="0" width="696" height="201.22" filterUnits="userSpaceOnUse" color-interpolation-filters="sRGB">
<feFlood flood-opacity="0" result="BackgroundImageFix"/>
<feBlend mode="normal" in="SourceGraphic" in2="BackgroundImageFix" result="shape"/>
<feColorMatrix in="SourceAlpha" type="matrix" values="0 0 0 0 0 0 0 0 0 0 0 0 0 0 0 0 0 0 127 0" result="hardAlpha"/>
<feOffset/>
<feGaussianBlur stdDeviation="10"/>
<feComposite in2="hardAlpha" operator="arithmetic" k2="-1" k3="1"/>
<feColorMatrix type="matrix" values="0 0 0 0 0 0 0 0 0 0 0 0 0 0 0 0 0 0 0.5 0"/>
<feBlend mode="normal" in2="shape" result="effect1_innerShadow"/>
</filter>
</defs>
</svg>
