<svg width="1217" height="373" viewBox="0 0 1217 373" fill="none" xmlns="http://www.w3.org/2000/svg">
<g filter="url(#filter0_i)">
<path fill-rule="evenodd" clip-rule="evenodd" d="M71.0122 227.068H0L27.5927 74.3658C30.8974 55.5097 40.1152 38.188 53.9174 24.8977C67.7196 11.6074 85.3931 3.03497 104.39 0.416138C114.704 -0.657827 125.128 0.485513 134.962 3.76925C144.795 7.05297 153.81 12.4009 161.401 19.4532C168.99 26.5055 174.979 35.0987 178.962 44.6544C182.946 54.2102 184.835 64.5068 184.498 74.8517V77.0173L180.855 80.0852L173.901 87.0262L167.587 94.5225L161.913 102.435L156.975 110.695L152.803 119.219L149.437 127.978L146.906 136.863L144.25 151.661C132.974 159.493 119.91 164.38 106.254 165.876C102.194 166.302 98.1059 166.404 94.0293 166.182L107.645 92.1626C110.598 90.8195 113.001 88.5084 114.456 85.6132C115.911 82.7179 116.33 79.413 115.642 76.2475C114.955 73.082 113.203 70.2466 110.678 68.2122C108.153 66.1779 105.007 65.0672 101.762 65.0648H100.969C97.8336 65.2398 94.8443 66.4464 92.4682 68.4962C90.0922 70.5462 88.4632 73.3237 87.8357 76.3954C87.208 79.4669 87.6174 82.6594 88.9996 85.4742C90.3818 88.2891 92.6591 90.5678 95.4757 91.9544L82.2635 164.502L81.8602 166.779L79.482 179.939L71.0122 227.068Z" fill="#841819"/>
</g>
<path d="M1.19689 226.068L28.5767 74.5436L28.5776 74.5384C31.8457 55.8914 40.9614 38.7614 54.611 25.6181C68.2567 12.4785 85.7289 4.00169 104.511 1.40904C114.677 0.352779 124.952 1.48094 134.646 4.71777C144.343 7.95632 153.234 13.2307 160.72 20.1858C168.205 27.1409 174.111 35.6155 178.039 45.0391L178.039 45.0392C181.968 54.4631 183.831 64.6174 183.499 74.8192L183.498 74.8354V74.8517V76.552L180.211 79.3203L180.178 79.3475L180.148 79.3775L173.194 86.3185L173.164 86.349L173.136 86.382L166.822 93.8783L166.797 93.9081L166.774 93.9398L161.1 101.853L161.076 101.886L161.054 101.922L156.117 110.182L156.096 110.218L156.077 110.255L151.905 118.779L151.885 118.819L151.87 118.86L148.504 127.62L148.488 127.661L148.476 127.704L145.944 136.589L145.931 136.637L145.922 136.686L143.339 151.075C132.278 158.674 119.5 163.418 106.148 164.882C102.518 165.263 98.866 165.381 95.2199 165.237L108.536 92.8458C111.478 91.3824 113.871 89.0042 115.35 86.0622C116.907 82.9627 117.355 79.4245 116.62 76.0354C115.884 72.6463 114.009 69.6111 111.306 67.4335L110.678 68.2122L111.306 67.4335C108.603 65.256 105.236 64.0674 101.763 64.0648H101.762H100.969H100.941L100.914 64.0664C97.5578 64.2536 94.3583 65.5449 91.815 67.739L91.8149 67.7391C89.2717 69.9333 87.5278 72.9066 86.8559 76.1952C86.184 79.4836 86.6222 82.9015 88.102 85.915C89.4697 88.7005 91.6562 90.9953 94.3601 92.4986L81.2796 164.323L81.2788 164.327L80.8761 166.601L80.8755 166.604L78.4979 179.761L78.4977 179.762L70.1759 226.068H1.19689Z" stroke="#841819" stroke-width="2"/>
<g filter="url(#filter1_i)">
<path fill-rule="evenodd" clip-rule="evenodd" d="M258.918 58.3765L246.262 131.951C244.246 130.855 244.621 130.244 239.462 130.244C235.608 130.703 231.978 132.296 229.034 134.82C226.089 137.344 223.963 140.685 222.925 144.418L207.627 228.515H136.615L151.913 142.446C159.896 97.982 205.805 52.1435 258.918 58.3765Z" fill="#841819"/>
</g>
<path d="M257.753 59.2534L245.527 130.325C245.201 130.118 244.845 129.913 244.38 129.746C243.396 129.391 242.043 129.244 239.462 129.244H239.402L239.343 129.251C235.293 129.734 231.478 131.408 228.383 134.061C225.288 136.713 223.053 140.225 221.962 144.15L221.95 144.194L221.942 144.239L206.793 227.515H137.808L152.897 142.623C156.844 120.643 170.183 98.2666 189.139 82.162C207.835 66.2793 231.923 56.5538 257.753 59.2534Z" stroke="#841819" stroke-width="2"/>
<g filter="url(#filter2_i)">
<path fill-rule="evenodd" clip-rule="evenodd" d="M1016.03 56.9051L1003.39 130.48C1001.38 129.369 1001.77 128.759 996.592 128.759C992.734 129.209 989.1 130.8 986.156 133.329C983.211 135.857 981.092 139.206 980.07 142.946L964.771 227.044H893.717L909.085 140.975C917.013 96.5106 962.963 50.6721 1016.03 56.9051Z" fill="#192D52"/>
</g>
<path d="M1014.87 57.7819L1002.66 128.844C1002.33 128.636 1001.98 128.431 1001.52 128.263C1000.53 127.905 999.179 127.759 996.592 127.759H996.534L996.476 127.765C992.42 128.239 988.6 129.912 985.504 132.57L986.156 133.329L985.504 132.57C982.409 135.228 980.18 138.75 979.105 142.682L979.094 142.724L979.086 142.767L963.937 226.044H894.912L910.07 141.151L910.07 141.15C913.988 119.171 927.324 96.7951 946.278 80.6906C964.972 64.8079 989.06 55.0826 1014.87 57.7819Z" stroke="#192D52" stroke-width="2"/>
<g filter="url(#filter3_i)">
<path fill-rule="evenodd" clip-rule="evenodd" d="M1098.2 159.438H1124.14C1130.9 159.438 1133.35 149.721 1126.6 141.933C1120.59 135.566 1116.4 127.703 1114.48 119.168C1112.56 110.633 1112.97 101.739 1115.67 93.4166C1118.37 85.0942 1123.26 77.6494 1129.84 71.8611C1136.41 66.0729 1144.42 62.154 1153.02 60.5145C1158.24 59.1839 1163.52 58.1273 1168.84 57.3494C1173.72 56.6306 1178.65 56.2687 1183.58 56.2666H1217L1205.47 122.206H1178.49C1174.05 122.206 1168.45 129.036 1177.29 137.407C1199.03 157.939 1205.19 209.316 1162.97 221.477C1150.41 225.15 1137.39 227.019 1124.31 227.03H1086.37L1098.2 159.438Z" fill="#192D52"/>
</g>
<path d="M1124.3 226.03H1087.56L1099.04 160.438H1124.14C1128.12 160.438 1130.74 157.539 1131.42 153.783C1132.09 150.042 1130.9 145.367 1127.36 141.278L1127.34 141.262L1127.33 141.246C1121.44 135.01 1117.34 127.308 1115.46 118.949L1115.46 118.949C1113.57 110.589 1113.97 101.877 1116.62 93.7253C1119.27 85.5737 1124.06 78.2814 1130.5 72.6116L1130.5 72.6115C1136.93 66.9417 1144.78 63.1029 1153.21 61.4968L1153.24 61.4911L1153.27 61.4834C1158.45 60.1615 1163.69 59.1118 1168.98 58.3389L1168.98 58.3387C1173.82 57.627 1178.69 57.2687 1183.58 57.2666C1183.58 57.2666 1183.58 57.2666 1183.58 57.2666L1215.81 57.2666L1204.63 121.206H1178.49C1175.81 121.206 1172.93 123.225 1171.96 126.373C1170.96 129.611 1172.01 133.786 1176.61 138.133L1176.61 138.134C1187.24 148.18 1194.12 165.861 1193.12 182.521C1192.12 199.101 1183.33 214.572 1162.69 220.516L1162.69 220.517C1150.22 224.164 1137.3 226.019 1124.3 226.03Z" stroke="#192D52" stroke-width="2"/>
<g filter="url(#filter4_i)">
<path fill-rule="evenodd" clip-rule="evenodd" d="M326.287 66.8445C328.262 66.6363 330.181 66.5252 332.1 66.4558L318.693 139.24C315.741 140.569 313.33 142.863 311.859 145.743C310.386 148.622 309.941 151.917 310.595 155.083C311.25 158.25 312.965 161.1 315.458 163.162C317.951 165.225 321.074 166.38 324.312 166.436C327.551 166.491 330.712 165.445 333.274 163.468C335.837 161.49 337.649 158.701 338.411 155.559C339.174 152.416 338.843 149.11 337.47 146.181C336.097 143.253 333.768 140.878 330.862 139.448L344.033 67.0805C361.712 69.7148 377.816 78.7146 389.306 92.3829C400.797 106.051 406.88 123.443 406.409 141.28C406.676 163.36 398.883 184.781 384.485 201.545C370.086 218.307 350.066 229.266 328.164 232.374C317.849 233.446 307.425 232.301 297.59 229.015C287.756 225.73 278.741 220.38 271.15 213.328C263.559 206.274 257.571 197.68 253.585 188.124C249.599 178.567 247.709 168.271 248.043 157.925C247.784 135.849 255.582 114.434 269.979 97.6749C284.376 80.9156 304.391 69.9573 326.287 66.8445Z" fill="#841819"/>
</g>
<path d="M309.615 155.285L309.616 155.286C310.317 158.675 312.152 161.725 314.821 163.933C317.488 166.14 320.83 167.376 324.295 167.436C327.76 167.495 331.143 166.375 333.885 164.26L333.885 164.259C336.628 162.143 338.567 159.158 339.383 155.795L339.383 155.795C340.199 152.431 339.845 148.892 338.375 145.756L338.375 145.756C337.014 142.852 334.773 140.457 331.978 138.903L344.842 68.2187C361.904 70.9947 377.415 79.792 388.541 93.0264C399.874 106.508 405.874 123.662 405.409 141.254L405.408 141.273L405.409 141.292C405.673 163.128 397.966 184.314 383.726 200.893C369.49 217.467 349.697 228.304 328.042 231.381C317.875 232.435 307.601 231.305 297.907 228.066L297.59 229.015L297.907 228.066C288.208 224.827 279.317 219.55 271.831 212.595C264.345 205.639 258.439 197.163 254.508 187.739C250.577 178.314 248.713 168.16 249.042 157.957L249.043 157.935L249.042 157.913C248.787 136.081 256.499 114.901 270.738 98.3265C284.973 81.756 304.76 70.9192 326.41 67.8371C327.924 67.6779 329.408 67.5763 330.89 67.5067L317.803 138.554C314.862 140.003 312.463 142.362 310.969 145.288C309.392 148.37 308.916 151.896 309.615 155.285Z" stroke="#841819" stroke-width="2"/>
<g filter="url(#filter5_i)">
<path fill-rule="evenodd" clip-rule="evenodd" d="M658.4 227.071H587.346L614.953 74.3687C618.248 55.5128 627.456 38.1883 641.251 24.8927C655.046 11.5974 672.714 3.01793 691.709 0.391357C702.021 -0.682818 712.445 0.460495 722.278 3.74433C732.111 7.02817 741.125 12.3763 748.713 19.4289C756.303 26.4815 762.29 35.0748 766.272 44.6305C770.255 54.1863 772.141 64.4828 771.803 74.8269C771.864 79.5562 771.539 84.2825 770.829 88.9588C769.745 89.8381 768.66 90.7634 767.575 91.7352C764.793 94.1784 762.151 96.6911 759.578 99.3425C756.474 102.676 753.575 106.195 750.9 109.879C749.356 112.156 747.923 114.418 746.56 116.82C745.198 119.222 744.071 121.679 742.945 124.233C741.818 126.787 741.039 129.453 740.163 132.174C739.287 134.894 738.87 137.726 738.383 140.628C738.091 142.807 737.868 144.959 737.715 147.111C725.166 157.592 709.804 164.152 693.545 165.976C689.47 166.4 685.368 166.507 681.278 166.296L694.908 92.2766C697.842 90.9442 700.236 88.6545 701.693 85.7842C703.151 82.914 703.587 79.6339 702.93 76.4835C702.272 73.3331 700.56 70.5 698.074 68.4499C695.589 66.3998 692.479 65.2548 689.256 65.2033C686.032 65.1518 682.886 66.1968 680.337 68.1665C677.787 70.1362 675.985 72.9134 675.227 76.0411C674.469 79.1689 674.799 82.4611 676.164 85.3765C677.53 88.2919 679.849 90.6568 682.739 92.0822L669.568 164.644L668.302 171.585L666.773 180.081L658.4 227.071Z" fill="#192D52"/>
</g>
<path d="M588.543 226.071L615.937 74.5466L615.938 74.5409C619.196 55.894 628.302 38.7613 641.945 25.6127C655.583 12.4683 673.05 3.98456 691.829 1.38424C701.994 0.327805 712.269 1.45594 721.961 4.69283C731.659 7.93151 740.549 13.2061 748.033 20.1614L748.713 19.4289L748.033 20.1614C755.517 27.1168 761.422 35.5915 765.349 45.0151L765.349 45.0152C769.277 54.439 771.137 64.5932 770.803 74.7942L770.803 74.817L770.803 74.8398C770.862 79.3863 770.559 83.9299 769.897 88.428C768.902 89.243 767.906 90.0959 766.912 90.9868C764.112 93.4465 761.451 95.9765 758.86 98.6461L758.853 98.6535L758.846 98.661C755.714 102.024 752.79 105.574 750.091 109.291L750.081 109.304L750.072 109.318C748.517 111.612 747.069 113.897 745.691 116.326C744.302 118.774 743.158 121.27 742.03 123.83C741.073 125.998 740.36 128.25 739.651 130.486C739.505 130.947 739.359 131.408 739.211 131.867C738.406 134.368 737.977 136.958 737.553 139.522C737.501 139.836 737.449 140.149 737.397 140.462L737.394 140.479L737.392 140.495C737.116 142.55 736.902 144.582 736.749 146.613C724.412 156.81 709.361 163.195 693.438 164.982C689.794 165.361 686.129 165.483 682.47 165.348L695.799 92.9602C698.722 91.5086 701.104 89.1528 702.585 86.237C704.145 83.1642 704.613 79.6524 703.908 76.2791C703.204 72.9061 701.371 69.873 698.711 67.6784C696.05 65.484 692.722 64.2585 689.272 64.2034C685.821 64.1483 682.454 65.2667 679.725 67.3752C676.996 69.4836 675.067 72.4566 674.255 75.8056C673.444 79.1542 673.796 82.6792 675.259 85.8007C676.613 88.6922 678.843 91.0776 681.623 92.6261L668.584 164.464L668.584 164.465L667.319 171.405L667.318 171.408L665.788 179.903L665.788 179.905L657.563 226.071H588.543Z" stroke="#192D52" stroke-width="2"/>
<g filter="url(#filter6_i)">
<path fill-rule="evenodd" clip-rule="evenodd" d="M574.927 227.071H503.873L532.161 74.7158H602.881L574.927 227.071Z" fill="#841819"/>
</g>
<path d="M601.681 75.7158L574.094 226.071H505.076L532.993 75.7158H601.681Z" stroke="#841819" stroke-width="2"/>
<g filter="url(#filter7_i)">
<path fill-rule="evenodd" clip-rule="evenodd" d="M505.473 166.657L517.864 96.8438L492.622 97.0937L494.36 87.6539C495.384 83.912 497.505 80.5613 500.452 78.033C503.399 75.5045 507.037 73.9142 510.897 73.4665C514.124 73.1787 517.369 73.7738 520.284 75.1878L532.94 1.61304C532.106 1.51587 528.684 1.43257 527.85 1.36317C475.808 -3.17626 431.261 41.9403 423.404 85.6827L397.716 228.529H468.77L479.994 166.809L505.473 166.657Z" fill="#841819"/>
</g>
<path d="M519.516 73.7549C516.761 72.6487 513.778 72.2056 510.808 72.4704L510.794 72.4716L510.781 72.4731C506.724 72.9438 502.899 74.6156 499.801 77.274C496.702 79.9323 494.472 83.4555 493.396 87.3901L493.385 87.431L493.377 87.4728L491.638 96.9126L491.419 98.1057L492.632 98.0937L516.669 97.8557L504.634 165.662L479.988 165.809L479.158 165.814L479.01 166.631L467.936 227.529H398.912L424.388 85.8597L424.388 85.8595C428.272 64.2362 441.243 42.2184 459.713 26.1722C478.177 10.1323 502.065 0.117842 527.763 2.35939L527.767 2.35972C528.151 2.39165 529.019 2.42518 529.918 2.45991C530.063 2.46555 530.21 2.47123 530.356 2.47693C530.862 2.49672 531.351 2.5168 531.767 2.53692L519.516 73.7549Z" stroke="#841819" stroke-width="2"/>
<g filter="url(#filter8_i)">
<path fill-rule="evenodd" clip-rule="evenodd" d="M1098.53 124.455L1110.91 54.6423L1094.22 54.8087L1103.6 6.1106H1034.81L1010.85 130.716C1005.28 161.77 1005.56 184.009 1018.33 201.306C1024.5 209.645 1032.52 216.438 1041.77 221.148C1051.02 225.858 1061.24 228.357 1071.62 228.446C1072.65 228.446 1078.05 228.515 1079.11 228.529L1091.62 158.522C1091.04 158.522 1086.06 158.633 1085.52 158.633C1070.22 158.633 1077.17 145.153 1079.62 131.507L1081.01 124.566L1098.53 124.455Z" fill="#192D52"/>
</g>
<path d="M1071.63 227.446C1072.5 227.446 1076.39 227.494 1078.27 227.518L1090.42 159.541C1089.89 159.551 1089.23 159.564 1088.57 159.577L1088.47 159.579C1087.13 159.606 1085.79 159.633 1085.52 159.633C1081.58 159.633 1078.82 158.769 1077.09 157.017C1075.35 155.258 1074.85 152.816 1074.91 150.161C1074.98 147.507 1075.63 144.449 1076.38 141.271C1076.56 140.538 1076.74 139.798 1076.92 139.053C1077.54 136.528 1078.17 133.936 1078.64 131.331L1078.64 131.321L1078.64 131.311L1080.03 124.37L1080.19 123.571L1081 123.566L1097.7 123.46L1109.72 55.6542L1094.23 55.8087L1093.01 55.8209L1093.24 54.6197L1102.39 7.1106H1035.64L1011.83 130.892L1010.85 130.716M1071.63 227.446C1071.63 227.446 1071.63 227.446 1071.63 227.446L1071.62 228.446V227.446C1071.63 227.446 1071.63 227.446 1071.63 227.446ZM1071.63 227.446C1061.4 227.358 1051.33 224.896 1042.22 220.257C1033.11 215.617 1025.21 208.926 1019.13 200.712M1019.13 200.712C1006.63 183.778 1006.27 161.921 1011.83 130.899L1011.83 130.905L1010.85 130.716M1019.13 200.712L1018.33 201.306M1019.13 200.712C1019.13 200.712 1019.13 200.712 1019.13 200.712L1018.33 201.306M1010.85 130.716L1034.81 6.1106L1018.33 201.306M1010.85 130.716C1005.28 161.77 1005.56 184.009 1018.33 201.306" stroke="#192D52" stroke-width="2"/>
<g filter="url(#filter9_i)">
<path fill-rule="evenodd" clip-rule="evenodd" d="M901.297 135.977C901.382 141.613 900.916 147.243 899.906 152.788L886.179 227.071H823.025C779.202 227.071 743.445 198.21 742.945 152.622C743.269 139.567 746.893 126.806 753.48 115.524C760.066 104.241 769.403 94.8023 780.621 88.0842L808.7 141.197C807.215 144.059 806.749 147.34 807.379 150.501C808.01 153.663 809.699 156.516 812.169 158.593C814.639 160.668 817.743 161.844 820.971 161.926C824.199 162.007 827.359 160.991 829.931 159.044C832.504 157.096 834.337 154.332 835.127 151.207C835.919 148.082 835.621 144.781 834.283 141.848C832.945 138.913 830.648 136.521 827.769 135.063C824.888 133.606 821.597 133.169 818.435 133.826L778.215 58.3489L778.534 58.2377C841.16 41.2322 900.49 66.4281 901.297 135.977Z" fill="#192D52"/>
</g>
<path d="M900.297 135.992L900.297 135.989C899.897 101.534 885.027 78.1943 862.606 65.52C840.346 52.9364 810.5 50.7883 779.677 58.9664L818.975 132.711C822.127 132.218 825.363 132.725 828.22 134.171L828.221 134.171C831.302 135.731 833.761 138.292 835.193 141.433C836.625 144.573 836.944 148.107 836.097 151.453C835.251 154.798 833.289 157.757 830.535 159.841C827.781 161.926 824.4 163.013 820.945 162.925C817.491 162.838 814.169 161.579 811.525 159.358L811.525 159.358C808.881 157.135 807.074 154.082 806.398 150.696L806.398 150.696C805.758 147.486 806.174 144.16 807.576 141.211L780.233 89.4905C769.56 96.0831 760.668 105.194 754.343 116.028C747.845 127.16 744.268 139.749 743.945 152.629C744.448 197.565 779.656 226.071 823.025 226.071H885.347L898.922 152.609L900.297 135.992ZM900.297 135.992C900.381 141.562 899.921 147.126 898.923 152.607L899.906 152.788C900.916 147.243 901.382 141.613 901.297 135.977L900.297 135.992Z" stroke="#192D52" stroke-width="2"/>
<mask id="path-21-inside-1" fill="white">
<path fill-rule="evenodd" clip-rule="evenodd" d="M675.843 336.218L689.646 262.014H663.101L648.978 338.04C648.621 339.977 647.973 341.851 647.059 343.604C645.898 345.77 644.328 347.702 642.433 349.297C639.965 351.251 637.121 352.702 634.07 353.566C629.826 354.81 625.41 355.401 620.98 355.317C616.709 355.452 612.448 354.859 608.384 353.566C605.819 352.798 603.54 351.314 601.824 349.297C600.531 347.649 599.744 345.674 599.555 343.604C599.341 341.748 599.424 339.871 599.802 338.04L613.925 262.071H587.352L573.534 336.275C572.561 341.176 572.922 346.241 574.581 350.962C576.318 355.502 579.242 359.517 583.061 362.603C587.47 366.117 592.562 368.717 598.028 370.246C604.679 372.167 611.588 373.094 618.521 372.993C625.883 373.068 633.222 372.173 640.339 370.331C646.475 368.746 652.306 366.194 657.604 362.774C662.347 359.694 666.44 355.752 669.661 351.161C672.737 346.668 674.828 341.599 675.799 336.275L675.843 336.218ZM716.918 369.563L723.565 333.856H733.281L751.316 369.563H779.592L755.447 324.121L792.449 289.652H765.018L733.266 320.207H726.11L736.917 262.085H712.045L692.119 369.563H716.918ZM856.97 308.367C854.194 308.065 851.401 307.917 848.607 307.926C846.171 307.908 843.737 308.099 841.335 308.495C838.814 308.91 836.365 309.672 834.062 310.758C831.725 311.899 829.667 313.521 828.026 315.511C826.219 317.881 825.012 320.637 824.506 323.552L815.939 369.605H791.387L806.252 289.624H830.877L827.968 305.122C828.79 303.67 829.723 302.28 830.76 300.966C831.943 299.547 833.319 298.292 834.848 297.238C837.162 295.617 839.592 294.161 842.12 292.883C843.502 292.114 844.942 291.459 846.483 290.705C848.12 289.989 849.819 289.417 851.56 288.997C853.464 288.539 855.417 288.309 857.378 288.314C857.865 288.306 858.351 288.339 858.832 288.414C859.388 288.45 859.942 288.516 860.49 288.613L856.839 308.367H856.97ZM941.825 369.563L942.349 366.716C940.966 365.542 939.863 364.085 939.12 362.447C938.422 360.816 938.201 359.027 938.48 357.281L946.61 313.604C947.89 308.623 947.124 303.35 944.472 298.917C941.528 294.872 937.214 291.979 932.298 290.748C925.571 288.903 918.598 288.06 911.615 288.243C908.52 288.223 905.428 288.374 902.35 288.699C898.668 289.081 895.027 289.782 891.471 290.791C887.698 291.832 884.094 293.389 880.766 295.416C877.294 297.509 874.29 300.269 871.937 303.528C869.293 307.305 867.511 311.596 866.715 316.109H889.987C890.393 314.452 890.967 312.841 891.703 311.298C892.537 309.566 893.669 307.987 895.049 306.63C896.732 305.045 898.74 303.828 900.939 303.058C903.907 302.066 907.027 301.585 910.161 301.635C913.018 301.537 915.865 301.997 918.539 302.987C920.36 303.623 921.902 304.856 922.902 306.474C923.663 307.992 923.883 309.714 923.528 311.37C923.168 313.184 922.309 314.868 921.041 316.237C919.598 317.717 917.774 318.789 915.761 319.339C910.975 320.592 906.292 321.645 901.783 322.527C897.274 323.41 892.94 324.263 888.882 325.103C885.04 325.882 881.251 326.889 877.537 328.12C874.247 329.188 871.112 330.672 868.213 332.532C865.478 334.337 863.155 336.676 861.392 339.406C859.396 342.561 858.063 346.073 857.465 349.738C856.426 354.107 856.912 358.693 858.847 362.76C860.753 366.224 863.841 368.924 867.574 370.388C872.116 372.149 876.972 372.995 881.857 372.879C885.963 372.876 890.054 372.399 894.045 371.456C897.316 370.686 900.496 369.58 903.528 368.154C905.886 367.074 908.152 365.813 910.306 364.382C912.124 363.144 913.477 362.205 914.408 361.536V361.892C914.394 362.017 914.37 362.141 914.335 362.262C914.095 363.566 914.095 364.9 914.335 366.204C914.545 367.372 914.974 368.491 915.601 369.506L941.825 369.563ZM918.582 338.04C917.915 342.214 916.217 346.166 913.637 349.553C911.319 352.367 908.269 354.52 904.808 355.786C901.079 357.101 897.136 357.733 893.173 357.651C891.141 357.722 889.12 357.332 887.267 356.512C885.938 355.876 884.815 354.89 884.024 353.666C883.355 352.553 882.947 351.309 882.831 350.023C882.686 348.837 882.725 347.637 882.947 346.465C883.299 344.919 884.05 343.489 885.129 342.309C886.428 340.811 887.983 339.544 889.725 338.566C891.673 337.442 893.811 336.671 896.038 336.289C898.234 335.891 900.663 335.449 903.31 334.937C905.957 334.425 908.736 333.77 911.601 333.059C914.431 332.357 917.224 331.512 919.964 330.525L918.51 338.054L918.582 338.04ZM1000.73 280.501L1004.16 262H979.307L975.889 280.501H1000.73ZM984.151 369.62L999.016 289.638H974.289L959.308 369.563L984.151 369.62ZM1093.35 369.62L1103.32 316.052C1104.68 310.658 1104.09 304.971 1101.64 299.956C1099.16 295.723 1095.16 292.548 1090.42 291.047C1084.32 289.064 1077.92 288.144 1071.51 288.329C1068.24 288.344 1065 288.886 1061.91 289.937C1058.67 291.033 1055.6 292.575 1052.8 294.519C1049.88 296.559 1047.27 298.992 1045.05 301.749L1047.29 289.638H1022.75L1007.87 369.62H1032.47L1042.08 317.973C1042.39 316.453 1042.99 315.003 1043.86 313.704C1044.95 312.013 1046.35 310.531 1047.99 309.334C1050.1 307.824 1052.47 306.687 1054.98 305.976C1058.34 305.028 1061.82 304.573 1065.31 304.624C1068.18 304.507 1071.05 304.962 1073.73 305.962C1075.44 306.582 1076.84 307.827 1077.63 309.434C1078.35 310.985 1078.66 312.687 1078.53 314.387C1078.38 316.298 1078.12 318.198 1077.75 320.079L1068.53 369.662L1093.35 369.62ZM1207.02 330.668C1207.58 327.875 1207.9 325.043 1207.97 322.2C1208.1 319.228 1207.83 316.252 1207.18 313.348C1206.44 310.107 1205.21 306.99 1203.55 304.097C1202.31 301.965 1200.78 300.007 1199.01 298.276C1196.96 296.29 1194.64 294.586 1192.11 293.21C1189.08 291.62 1185.85 290.433 1182.5 289.681C1178.41 288.709 1174.2 288.23 1169.99 288.257C1163.89 288.203 1157.81 289.053 1151.97 290.776C1146.35 292.48 1141.09 295.181 1136.46 298.746C1131.61 302.572 1127.58 307.296 1124.6 312.65C1121.07 318.982 1118.65 325.846 1117.44 332.959C1116.28 338.6 1116.33 344.417 1117.6 350.037C1118.76 354.736 1121.15 359.056 1124.55 362.561C1128.04 366.08 1132.33 368.737 1137.08 370.317C1142.53 372.134 1148.26 373.021 1154.02 372.936C1161.27 373 1168.47 371.888 1175.34 369.648C1181.43 367.687 1187.09 364.622 1192.01 360.611C1196.55 356.894 1200.19 352.237 1202.67 346.977H1178.25C1177.52 348.383 1176.53 349.651 1175.34 350.72C1173.85 352.044 1172.22 353.203 1170.47 354.178C1168.6 355.26 1166.61 356.124 1164.54 356.754C1162.47 357.396 1160.32 357.726 1158.15 357.736C1155.22 357.816 1152.31 357.242 1149.64 356.057C1147.47 355.086 1145.57 353.623 1144.1 351.787C1142.76 350.045 1141.83 348.04 1141.37 345.91C1140.89 343.858 1140.85 341.733 1141.24 339.662C1141.24 339.235 1141.38 338.737 1141.5 338.082C1141.61 337.428 1141.66 336.83 1141.77 336.204C1141.86 335.674 1141.99 335.155 1142.18 334.653H1206.08C1206.15 334.17 1206.26 333.695 1206.41 333.229C1206.51 332.845 1206.57 332.461 1206.67 332.091C1206.77 331.721 1206.92 331.223 1207.02 330.668ZM1182.67 322.257H1144.46C1144.87 320.166 1145.59 318.147 1146.6 316.265C1147.71 314.074 1149.19 312.078 1150.97 310.359C1152.97 308.442 1155.34 306.924 1157.93 305.89C1161.02 304.659 1164.32 304.049 1167.65 304.097C1170.23 304.053 1172.79 304.497 1175.2 305.407C1177.01 306.131 1178.6 307.279 1179.85 308.751C1180.95 310.08 1181.76 311.614 1182.24 313.262C1182.71 314.819 1182.96 316.435 1182.96 318.058C1182.99 319.445 1182.89 320.831 1182.66 322.2L1182.67 322.257Z"/>
</mask>
<g filter="url(#filter10_i)">
<path fill-rule="evenodd" clip-rule="evenodd" d="M675.843 336.218L689.646 262.014H663.101L648.978 338.04C648.621 339.977 647.973 341.851 647.059 343.604C645.898 345.77 644.328 347.702 642.433 349.297C639.965 351.251 637.121 352.702 634.07 353.566C629.826 354.81 625.41 355.401 620.98 355.317C616.709 355.452 612.448 354.859 608.384 353.566C605.819 352.798 603.54 351.314 601.824 349.297C600.531 347.649 599.744 345.674 599.555 343.604C599.341 341.748 599.424 339.871 599.802 338.04L613.925 262.071H587.352L573.534 336.275C572.561 341.176 572.922 346.241 574.581 350.962C576.318 355.502 579.242 359.517 583.061 362.603C587.47 366.117 592.562 368.717 598.028 370.246C604.679 372.167 611.588 373.094 618.521 372.993C625.883 373.068 633.222 372.173 640.339 370.331C646.475 368.746 652.306 366.194 657.604 362.774C662.347 359.694 666.44 355.752 669.661 351.161C672.737 346.668 674.828 341.599 675.799 336.275L675.843 336.218ZM716.918 369.563L723.565 333.856H733.281L751.316 369.563H779.592L755.447 324.121L792.449 289.652H765.018L733.266 320.207H726.11L736.917 262.085H712.045L692.119 369.563H716.918ZM856.97 308.367C854.194 308.065 851.401 307.917 848.607 307.926C846.171 307.908 843.737 308.099 841.335 308.495C838.814 308.91 836.365 309.672 834.062 310.758C831.725 311.899 829.667 313.521 828.026 315.511C826.219 317.881 825.012 320.637 824.506 323.552L815.939 369.605H791.387L806.252 289.624H830.877L827.968 305.122C828.79 303.67 829.723 302.28 830.76 300.966C831.943 299.547 833.319 298.292 834.848 297.238C837.162 295.617 839.592 294.161 842.12 292.883C843.502 292.114 844.942 291.459 846.483 290.705C848.12 289.989 849.819 289.417 851.56 288.997C853.464 288.539 855.417 288.309 857.378 288.314C857.865 288.306 858.351 288.339 858.832 288.414C859.388 288.45 859.942 288.516 860.49 288.613L856.839 308.367H856.97ZM941.825 369.563L942.349 366.716C940.966 365.542 939.863 364.085 939.12 362.447C938.422 360.816 938.201 359.027 938.48 357.281L946.61 313.604C947.89 308.623 947.124 303.35 944.472 298.917C941.528 294.872 937.214 291.979 932.298 290.748C925.571 288.903 918.598 288.06 911.615 288.243C908.52 288.223 905.428 288.374 902.35 288.699C898.668 289.081 895.027 289.782 891.471 290.791C887.698 291.832 884.094 293.389 880.766 295.416C877.294 297.509 874.29 300.269 871.937 303.528C869.293 307.305 867.511 311.596 866.715 316.109H889.987C890.393 314.452 890.967 312.841 891.703 311.298C892.537 309.566 893.669 307.987 895.049 306.63C896.732 305.045 898.74 303.828 900.939 303.058C903.907 302.066 907.027 301.585 910.161 301.635C913.018 301.537 915.865 301.997 918.539 302.987C920.36 303.623 921.902 304.856 922.902 306.474C923.663 307.992 923.883 309.714 923.528 311.37C923.168 313.184 922.309 314.868 921.041 316.237C919.598 317.717 917.774 318.789 915.761 319.339C910.975 320.592 906.292 321.645 901.783 322.527C897.274 323.41 892.94 324.263 888.882 325.103C885.04 325.882 881.251 326.889 877.537 328.12C874.247 329.188 871.112 330.672 868.213 332.532C865.478 334.337 863.155 336.676 861.392 339.406C859.396 342.561 858.063 346.073 857.465 349.738C856.426 354.107 856.912 358.693 858.847 362.76C860.753 366.224 863.841 368.924 867.574 370.388C872.116 372.149 876.972 372.995 881.857 372.879C885.963 372.876 890.054 372.399 894.045 371.456C897.316 370.686 900.496 369.58 903.528 368.154C905.886 367.074 908.152 365.813 910.306 364.382C912.124 363.144 913.477 362.205 914.408 361.536V361.892C914.394 362.017 914.37 362.141 914.335 362.262C914.095 363.566 914.095 364.9 914.335 366.204C914.545 367.372 914.974 368.491 915.601 369.506L941.825 369.563ZM918.582 338.04C917.915 342.214 916.217 346.166 913.637 349.553C911.319 352.367 908.269 354.52 904.808 355.786C901.079 357.101 897.136 357.733 893.173 357.651C891.141 357.722 889.12 357.332 887.267 356.512C885.938 355.876 884.815 354.89 884.024 353.666C883.355 352.553 882.947 351.309 882.831 350.023C882.686 348.837 882.725 347.637 882.947 346.465C883.299 344.919 884.05 343.489 885.129 342.309C886.428 340.811 887.983 339.544 889.725 338.566C891.673 337.442 893.811 336.671 896.038 336.289C898.234 335.891 900.663 335.449 903.31 334.937C905.957 334.425 908.736 333.77 911.601 333.059C914.431 332.357 917.224 331.512 919.964 330.525L918.51 338.054L918.582 338.04ZM1000.73 280.501L1004.16 262H979.307L975.889 280.501H1000.73ZM984.151 369.62L999.016 289.638H974.289L959.308 369.563L984.151 369.62ZM1093.35 369.62L1103.32 316.052C1104.68 310.658 1104.09 304.971 1101.64 299.956C1099.16 295.723 1095.16 292.548 1090.42 291.047C1084.32 289.064 1077.92 288.144 1071.51 288.329C1068.24 288.344 1065 288.886 1061.91 289.937C1058.67 291.033 1055.6 292.575 1052.8 294.519C1049.88 296.559 1047.27 298.992 1045.05 301.749L1047.29 289.638H1022.75L1007.87 369.62H1032.47L1042.08 317.973C1042.39 316.453 1042.99 315.003 1043.86 313.704C1044.95 312.013 1046.35 310.531 1047.99 309.334C1050.1 307.824 1052.47 306.687 1054.98 305.976C1058.34 305.028 1061.82 304.573 1065.31 304.624C1068.18 304.507 1071.05 304.962 1073.73 305.962C1075.44 306.582 1076.84 307.827 1077.63 309.434C1078.35 310.985 1078.66 312.687 1078.53 314.387C1078.38 316.298 1078.12 318.198 1077.75 320.079L1068.53 369.662L1093.35 369.62ZM1207.02 330.668C1207.58 327.875 1207.9 325.043 1207.97 322.2C1208.1 319.228 1207.83 316.252 1207.18 313.348C1206.44 310.107 1205.21 306.99 1203.55 304.097C1202.31 301.965 1200.78 300.007 1199.01 298.276C1196.96 296.29 1194.64 294.586 1192.11 293.21C1189.08 291.62 1185.85 290.433 1182.5 289.681C1178.41 288.709 1174.2 288.23 1169.99 288.257C1163.89 288.203 1157.81 289.053 1151.97 290.776C1146.35 292.48 1141.09 295.181 1136.46 298.746C1131.61 302.572 1127.58 307.296 1124.6 312.65C1121.07 318.982 1118.65 325.846 1117.44 332.959C1116.28 338.6 1116.33 344.417 1117.6 350.037C1118.76 354.736 1121.15 359.056 1124.55 362.561C1128.04 366.08 1132.33 368.737 1137.08 370.317C1142.53 372.134 1148.26 373.021 1154.02 372.936C1161.27 373 1168.47 371.888 1175.34 369.648C1181.43 367.687 1187.09 364.622 1192.01 360.611C1196.55 356.894 1200.19 352.237 1202.67 346.977H1178.25C1177.52 348.383 1176.53 349.651 1175.34 350.72C1173.85 352.044 1172.22 353.203 1170.47 354.178C1168.6 355.26 1166.61 356.124 1164.54 356.754C1162.47 357.396 1160.32 357.726 1158.15 357.736C1155.22 357.816 1152.31 357.242 1149.64 356.057C1147.47 355.086 1145.57 353.623 1144.1 351.787C1142.76 350.045 1141.83 348.04 1141.37 345.91C1140.89 343.858 1140.85 341.733 1141.24 339.662C1141.24 339.235 1141.38 338.737 1141.5 338.082C1141.61 337.428 1141.66 336.83 1141.77 336.204C1141.86 335.674 1141.99 335.155 1142.18 334.653H1206.08C1206.15 334.17 1206.26 333.695 1206.41 333.229C1206.51 332.845 1206.57 332.461 1206.67 332.091C1206.77 331.721 1206.92 331.223 1207.02 330.668ZM1182.67 322.257H1144.46C1144.87 320.166 1145.59 318.147 1146.6 316.265C1147.71 314.074 1149.19 312.078 1150.97 310.359C1152.97 308.442 1155.34 306.924 1157.93 305.89C1161.02 304.659 1164.32 304.049 1167.65 304.097C1170.23 304.053 1172.79 304.497 1175.2 305.407C1177.01 306.131 1178.6 307.279 1179.85 308.751C1180.95 310.08 1181.76 311.614 1182.24 313.262C1182.71 314.819 1182.96 316.435 1182.96 318.058C1182.99 319.445 1182.89 320.831 1182.66 322.2L1182.67 322.257Z" fill="#841819"/>
</g>
<path fill-rule="evenodd" clip-rule="evenodd" d="M675.843 336.218L689.646 262.014H663.101L648.978 338.04C648.621 339.977 647.973 341.851 647.059 343.604C645.898 345.77 644.328 347.702 642.433 349.297C639.965 351.251 637.121 352.702 634.07 353.566C629.826 354.81 625.41 355.401 620.98 355.317C616.709 355.452 612.448 354.859 608.384 353.566C605.819 352.798 603.54 351.314 601.824 349.297C600.531 347.649 599.744 345.674 599.555 343.604C599.341 341.748 599.424 339.871 599.802 338.04L613.925 262.071H587.352L573.534 336.275C572.561 341.176 572.922 346.241 574.581 350.962C576.318 355.502 579.242 359.517 583.061 362.603C587.47 366.117 592.562 368.717 598.028 370.246C604.679 372.167 611.588 373.094 618.521 372.993C625.883 373.068 633.222 372.173 640.339 370.331C646.475 368.746 652.306 366.194 657.604 362.774C662.347 359.694 666.44 355.752 669.661 351.161C672.737 346.668 674.828 341.599 675.799 336.275L675.843 336.218ZM716.918 369.563L723.565 333.856H733.281L751.316 369.563H779.592L755.447 324.121L792.449 289.652H765.018L733.266 320.207H726.11L736.917 262.085H712.045L692.119 369.563H716.918ZM856.97 308.367C854.194 308.065 851.401 307.917 848.607 307.926C846.171 307.908 843.737 308.099 841.335 308.495C838.814 308.91 836.365 309.672 834.062 310.758C831.725 311.899 829.667 313.521 828.026 315.511C826.219 317.881 825.012 320.637 824.506 323.552L815.939 369.605H791.387L806.252 289.624H830.877L827.968 305.122C828.79 303.67 829.723 302.28 830.76 300.966C831.943 299.547 833.319 298.292 834.848 297.238C837.162 295.617 839.592 294.161 842.12 292.883C843.502 292.114 844.942 291.459 846.483 290.705C848.12 289.989 849.819 289.417 851.56 288.997C853.464 288.539 855.417 288.309 857.378 288.314C857.865 288.306 858.351 288.339 858.832 288.414C859.388 288.45 859.942 288.516 860.49 288.613L856.839 308.367H856.97ZM941.825 369.563L942.349 366.716C940.966 365.542 939.863 364.085 939.12 362.447C938.422 360.816 938.201 359.027 938.48 357.281L946.61 313.604C947.89 308.623 947.124 303.35 944.472 298.917C941.528 294.872 937.214 291.979 932.298 290.748C925.571 288.903 918.598 288.06 911.615 288.243C908.52 288.223 905.428 288.374 902.35 288.699C898.668 289.081 895.027 289.782 891.471 290.791C887.698 291.832 884.094 293.389 880.766 295.416C877.294 297.509 874.29 300.269 871.937 303.528C869.293 307.305 867.511 311.596 866.715 316.109H889.987C890.393 314.452 890.967 312.841 891.703 311.298C892.537 309.566 893.669 307.987 895.049 306.63C896.732 305.045 898.74 303.828 900.939 303.058C903.907 302.066 907.027 301.585 910.161 301.635C913.018 301.537 915.865 301.997 918.539 302.987C920.36 303.623 921.902 304.856 922.902 306.474C923.663 307.992 923.883 309.714 923.528 311.37C923.168 313.184 922.309 314.868 921.041 316.237C919.598 317.717 917.774 318.789 915.761 319.339C910.975 320.592 906.292 321.645 901.783 322.527C897.274 323.41 892.94 324.263 888.882 325.103C885.04 325.882 881.251 326.889 877.537 328.12C874.247 329.188 871.112 330.672 868.213 332.532C865.478 334.337 863.155 336.676 861.392 339.406C859.396 342.561 858.063 346.073 857.465 349.738C856.426 354.107 856.912 358.693 858.847 362.76C860.753 366.224 863.841 368.924 867.574 370.388C872.116 372.149 876.972 372.995 881.857 372.879C885.963 372.876 890.054 372.399 894.045 371.456C897.316 370.686 900.496 369.58 903.528 368.154C905.886 367.074 908.152 365.813 910.306 364.382C912.124 363.144 913.477 362.205 914.408 361.536V361.892C914.394 362.017 914.37 362.141 914.335 362.262C914.095 363.566 914.095 364.9 914.335 366.204C914.545 367.372 914.974 368.491 915.601 369.506L941.825 369.563ZM918.582 338.04C917.915 342.214 916.217 346.166 913.637 349.553C911.319 352.367 908.269 354.52 904.808 355.786C901.079 357.101 897.136 357.733 893.173 357.651C891.141 357.722 889.12 357.332 887.267 356.512C885.938 355.876 884.815 354.89 884.024 353.666C883.355 352.553 882.947 351.309 882.831 350.023C882.686 348.837 882.725 347.637 882.947 346.465C883.299 344.919 884.05 343.489 885.129 342.309C886.428 340.811 887.983 339.544 889.725 338.566C891.673 337.442 893.811 336.671 896.038 336.289C898.234 335.891 900.663 335.449 903.31 334.937C905.957 334.425 908.736 333.77 911.601 333.059C914.431 332.357 917.224 331.512 919.964 330.525L918.51 338.054L918.582 338.04ZM1000.73 280.501L1004.16 262H979.307L975.889 280.501H1000.73ZM984.151 369.62L999.016 289.638H974.289L959.308 369.563L984.151 369.62ZM1093.35 369.62L1103.32 316.052C1104.68 310.658 1104.09 304.971 1101.64 299.956C1099.16 295.723 1095.16 292.548 1090.42 291.047C1084.32 289.064 1077.92 288.144 1071.51 288.329C1068.24 288.344 1065 288.886 1061.91 289.937C1058.67 291.033 1055.6 292.575 1052.8 294.519C1049.88 296.559 1047.27 298.992 1045.05 301.749L1047.29 289.638H1022.75L1007.87 369.62H1032.47L1042.08 317.973C1042.39 316.453 1042.99 315.003 1043.86 313.704C1044.95 312.013 1046.35 310.531 1047.99 309.334C1050.1 307.824 1052.47 306.687 1054.98 305.976C1058.34 305.028 1061.82 304.573 1065.31 304.624C1068.18 304.507 1071.05 304.962 1073.73 305.962C1075.44 306.582 1076.84 307.827 1077.63 309.434C1078.35 310.985 1078.66 312.687 1078.53 314.387C1078.38 316.298 1078.12 318.198 1077.75 320.079L1068.53 369.662L1093.35 369.62ZM1207.02 330.668C1207.58 327.875 1207.9 325.043 1207.97 322.2C1208.1 319.228 1207.83 316.252 1207.18 313.348C1206.44 310.107 1205.21 306.99 1203.55 304.097C1202.31 301.965 1200.78 300.007 1199.01 298.276C1196.96 296.29 1194.64 294.586 1192.11 293.21C1189.08 291.62 1185.85 290.433 1182.5 289.681C1178.41 288.709 1174.2 288.23 1169.99 288.257C1163.89 288.203 1157.81 289.053 1151.97 290.776C1146.35 292.48 1141.09 295.181 1136.46 298.746C1131.61 302.572 1127.58 307.296 1124.6 312.65C1121.07 318.982 1118.65 325.846 1117.44 332.959C1116.28 338.6 1116.33 344.417 1117.6 350.037C1118.76 354.736 1121.15 359.056 1124.55 362.561C1128.04 366.08 1132.33 368.737 1137.08 370.317C1142.53 372.134 1148.26 373.021 1154.02 372.936C1161.27 373 1168.47 371.888 1175.34 369.648C1181.43 367.687 1187.09 364.622 1192.01 360.611C1196.55 356.894 1200.19 352.237 1202.67 346.977H1178.25C1177.52 348.383 1176.53 349.651 1175.34 350.72C1173.85 352.044 1172.22 353.203 1170.47 354.178C1168.6 355.26 1166.61 356.124 1164.54 356.754C1162.47 357.396 1160.32 357.726 1158.15 357.736C1155.22 357.816 1152.31 357.242 1149.64 356.057C1147.47 355.086 1145.57 353.623 1144.1 351.787C1142.76 350.045 1141.83 348.04 1141.37 345.91C1140.89 343.858 1140.85 341.733 1141.24 339.662C1141.24 339.235 1141.38 338.737 1141.5 338.082C1141.61 337.428 1141.66 336.83 1141.77 336.204C1141.86 335.674 1141.99 335.155 1142.18 334.653H1206.08C1206.15 334.17 1206.26 333.695 1206.41 333.229C1206.51 332.845 1206.57 332.461 1206.67 332.091C1206.77 331.721 1206.92 331.223 1207.02 330.668ZM1182.67 322.257H1144.46C1144.87 320.166 1145.59 318.147 1146.6 316.265C1147.71 314.074 1149.19 312.078 1150.97 310.359C1152.97 308.442 1155.34 306.924 1157.93 305.89C1161.02 304.659 1164.32 304.049 1167.65 304.097C1170.23 304.053 1172.79 304.497 1175.2 305.407C1177.01 306.131 1178.6 307.279 1179.85 308.751C1180.95 310.08 1181.76 311.614 1182.24 313.262C1182.71 314.819 1182.96 316.435 1182.96 318.058C1182.99 319.445 1182.89 320.831 1182.66 322.2L1182.67 322.257Z" stroke="#841819" stroke-width="2" mask="url(#path-21-inside-1)"/>
<defs>
<filter id="filter0_i" x="0" y="0.0249023" width="184.537" height="227.043" filterUnits="userSpaceOnUse" color-interpolation-filters="sRGB">
<feFlood flood-opacity="0" result="BackgroundImageFix"/>
<feBlend mode="normal" in="SourceGraphic" in2="BackgroundImageFix" result="shape"/>
<feColorMatrix in="SourceAlpha" type="matrix" values="0 0 0 0 0 0 0 0 0 0 0 0 0 0 0 0 0 0 127 0" result="hardAlpha"/>
<feOffset/>
<feGaussianBlur stdDeviation="10"/>
<feComposite in2="hardAlpha" operator="arithmetic" k2="-1" k3="1"/>
<feColorMatrix type="matrix" values="0 0 0 0 0 0 0 0 0 0 0 0 0 0 0 0 0 0 0.5 0"/>
<feBlend mode="normal" in2="shape" result="effect1_innerShadow"/>
</filter>
<filter id="filter1_i" x="136.615" y="57.8049" width="122.304" height="170.71" filterUnits="userSpaceOnUse" color-interpolation-filters="sRGB">
<feFlood flood-opacity="0" result="BackgroundImageFix"/>
<feBlend mode="normal" in="SourceGraphic" in2="BackgroundImageFix" result="shape"/>
<feColorMatrix in="SourceAlpha" type="matrix" values="0 0 0 0 0 0 0 0 0 0 0 0 0 0 0 0 0 0 127 0" result="hardAlpha"/>
<feOffset/>
<feGaussianBlur stdDeviation="10"/>
<feComposite in2="hardAlpha" operator="arithmetic" k2="-1" k3="1"/>
<feColorMatrix type="matrix" values="0 0 0 0 0 0 0 0 0 0 0 0 0 0 0 0 0 0 0.5 0"/>
<feBlend mode="normal" in2="shape" result="effect1_innerShadow"/>
</filter>
<filter id="filter2_i" x="893.717" y="56.3335" width="122.318" height="170.71" filterUnits="userSpaceOnUse" color-interpolation-filters="sRGB">
<feFlood flood-opacity="0" result="BackgroundImageFix"/>
<feBlend mode="normal" in="SourceGraphic" in2="BackgroundImageFix" result="shape"/>
<feColorMatrix in="SourceAlpha" type="matrix" values="0 0 0 0 0 0 0 0 0 0 0 0 0 0 0 0 0 0 127 0" result="hardAlpha"/>
<feOffset/>
<feGaussianBlur stdDeviation="10"/>
<feComposite in2="hardAlpha" operator="arithmetic" k2="-1" k3="1"/>
<feColorMatrix type="matrix" values="0 0 0 0 0 0 0 0 0 0 0 0 0 0 0 0 0 0 0.5 0"/>
<feBlend mode="normal" in2="shape" result="effect1_innerShadow"/>
</filter>
<filter id="filter3_i" x="1086.37" y="56.2666" width="130.634" height="170.763" filterUnits="userSpaceOnUse" color-interpolation-filters="sRGB">
<feFlood flood-opacity="0" result="BackgroundImageFix"/>
<feBlend mode="normal" in="SourceGraphic" in2="BackgroundImageFix" result="shape"/>
<feColorMatrix in="SourceAlpha" type="matrix" values="0 0 0 0 0 0 0 0 0 0 0 0 0 0 0 0 0 0 127 0" result="hardAlpha"/>
<feOffset/>
<feGaussianBlur stdDeviation="10"/>
<feComposite in2="hardAlpha" operator="arithmetic" k2="-1" k3="1"/>
<feColorMatrix type="matrix" values="0 0 0 0 0 0 0 0 0 0 0 0 0 0 0 0 0 0 0.5 0"/>
<feBlend mode="normal" in2="shape" result="effect1_innerShadow"/>
</filter>
<filter id="filter4_i" x="248.005" y="66.4558" width="158.429" height="166.308" filterUnits="userSpaceOnUse" color-interpolation-filters="sRGB">
<feFlood flood-opacity="0" result="BackgroundImageFix"/>
<feBlend mode="normal" in="SourceGraphic" in2="BackgroundImageFix" result="shape"/>
<feColorMatrix in="SourceAlpha" type="matrix" values="0 0 0 0 0 0 0 0 0 0 0 0 0 0 0 0 0 0 127 0" result="hardAlpha"/>
<feOffset/>
<feGaussianBlur stdDeviation="10"/>
<feComposite in2="hardAlpha" operator="arithmetic" k2="-1" k3="1"/>
<feColorMatrix type="matrix" values="0 0 0 0 0 0 0 0 0 0 0 0 0 0 0 0 0 0 0.5 0"/>
<feBlend mode="normal" in2="shape" result="effect1_innerShadow"/>
</filter>
<filter id="filter5_i" x="587.346" y="0" width="184.495" height="227.071" filterUnits="userSpaceOnUse" color-interpolation-filters="sRGB">
<feFlood flood-opacity="0" result="BackgroundImageFix"/>
<feBlend mode="normal" in="SourceGraphic" in2="BackgroundImageFix" result="shape"/>
<feColorMatrix in="SourceAlpha" type="matrix" values="0 0 0 0 0 0 0 0 0 0 0 0 0 0 0 0 0 0 127 0" result="hardAlpha"/>
<feOffset/>
<feGaussianBlur stdDeviation="10"/>
<feComposite in2="hardAlpha" operator="arithmetic" k2="-1" k3="1"/>
<feColorMatrix type="matrix" values="0 0 0 0 0 0 0 0 0 0 0 0 0 0 0 0 0 0 0.5 0"/>
<feBlend mode="normal" in2="shape" result="effect1_innerShadow"/>
</filter>
<filter id="filter6_i" x="503.873" y="74.7158" width="99.0083" height="152.356" filterUnits="userSpaceOnUse" color-interpolation-filters="sRGB">
<feFlood flood-opacity="0" result="BackgroundImageFix"/>
<feBlend mode="normal" in="SourceGraphic" in2="BackgroundImageFix" result="shape"/>
<feColorMatrix in="SourceAlpha" type="matrix" values="0 0 0 0 0 0 0 0 0 0 0 0 0 0 0 0 0 0 127 0" result="hardAlpha"/>
<feOffset/>
<feGaussianBlur stdDeviation="10"/>
<feComposite in2="hardAlpha" operator="arithmetic" k2="-1" k3="1"/>
<feColorMatrix type="matrix" values="0 0 0 0 0 0 0 0 0 0 0 0 0 0 0 0 0 0 0.5 0"/>
<feBlend mode="normal" in2="shape" result="effect1_innerShadow"/>
</filter>
<filter id="filter7_i" x="397.716" y="1.04688" width="135.224" height="227.482" filterUnits="userSpaceOnUse" color-interpolation-filters="sRGB">
<feFlood flood-opacity="0" result="BackgroundImageFix"/>
<feBlend mode="normal" in="SourceGraphic" in2="BackgroundImageFix" result="shape"/>
<feColorMatrix in="SourceAlpha" type="matrix" values="0 0 0 0 0 0 0 0 0 0 0 0 0 0 0 0 0 0 127 0" result="hardAlpha"/>
<feOffset/>
<feGaussianBlur stdDeviation="10"/>
<feComposite in2="hardAlpha" operator="arithmetic" k2="-1" k3="1"/>
<feColorMatrix type="matrix" values="0 0 0 0 0 0 0 0 0 0 0 0 0 0 0 0 0 0 0.5 0"/>
<feBlend mode="normal" in2="shape" result="effect1_innerShadow"/>
</filter>
<filter id="filter8_i" x="1007.4" y="6.1106" width="103.514" height="222.418" filterUnits="userSpaceOnUse" color-interpolation-filters="sRGB">
<feFlood flood-opacity="0" result="BackgroundImageFix"/>
<feBlend mode="normal" in="SourceGraphic" in2="BackgroundImageFix" result="shape"/>
<feColorMatrix in="SourceAlpha" type="matrix" values="0 0 0 0 0 0 0 0 0 0 0 0 0 0 0 0 0 0 127 0" result="hardAlpha"/>
<feOffset/>
<feGaussianBlur stdDeviation="10"/>
<feComposite in2="hardAlpha" operator="arithmetic" k2="-1" k3="1"/>
<feColorMatrix type="matrix" values="0 0 0 0 0 0 0 0 0 0 0 0 0 0 0 0 0 0 0.5 0"/>
<feBlend mode="normal" in2="shape" result="effect1_innerShadow"/>
</filter>
<filter id="filter9_i" x="742.945" y="53.1157" width="158.362" height="173.956" filterUnits="userSpaceOnUse" color-interpolation-filters="sRGB">
<feFlood flood-opacity="0" result="BackgroundImageFix"/>
<feBlend mode="normal" in="SourceGraphic" in2="BackgroundImageFix" result="shape"/>
<feColorMatrix in="SourceAlpha" type="matrix" values="0 0 0 0 0 0 0 0 0 0 0 0 0 0 0 0 0 0 127 0" result="hardAlpha"/>
<feOffset/>
<feGaussianBlur stdDeviation="10"/>
<feComposite in2="hardAlpha" operator="arithmetic" k2="-1" k3="1"/>
<feColorMatrix type="matrix" values="0 0 0 0 0 0 0 0 0 0 0 0 0 0 0 0 0 0 0.5 0"/>
<feBlend mode="normal" in2="shape" result="effect1_innerShadow"/>
</filter>
<filter id="filter10_i" x="573" y="262" width="635" height="111" filterUnits="userSpaceOnUse" color-interpolation-filters="sRGB">
<feFlood flood-opacity="0" result="BackgroundImageFix"/>
<feBlend mode="normal" in="SourceGraphic" in2="BackgroundImageFix" result="shape"/>
<feColorMatrix in="SourceAlpha" type="matrix" values="0 0 0 0 0 0 0 0 0 0 0 0 0 0 0 0 0 0 127 0" result="hardAlpha"/>
<feOffset/>
<feGaussianBlur stdDeviation="10"/>
<feComposite in2="hardAlpha" operator="arithmetic" k2="-1" k3="1"/>
<feColorMatrix type="matrix" values="0 0 0 0 0 0 0 0 0 0 0 0 0 0 0 0 0 0 0.5 0"/>
<feBlend mode="normal" in2="shape" result="effect1_innerShadow"/>
</filter>
</defs>
</svg>
