<svg width="782" height="246" viewBox="0 0 782 246" fill="none" xmlns="http://www.w3.org/2000/svg">
<g opacity="0.7" filter="url(#filter0_f)">
<path d="M556.876 170.292L565.523 121.864L565.523 121.864C567.762 109.303 575.391 96.4922 586.249 87.2674C596.844 78.2654 610.443 72.7352 625.011 74.1179L618.151 114.042C618.089 114.015 618.024 113.989 617.956 113.964C617.312 113.73 616.463 113.648 614.972 113.648H614.913L614.856 113.654C612.434 113.937 610.154 114.936 608.305 116.523L608.305 116.523C606.457 118.11 605.127 120.213 604.485 122.561L604.473 122.603L604.465 122.645L595.798 170.292H556.876Z" fill="white" stroke="white" stroke-width="2"/>
<path d="M688.577 170.284H667.902L674.373 133.329H688.481C691.028 133.329 692.676 131.459 693.093 129.145C693.508 126.846 692.769 124.025 690.656 121.586L690.642 121.569L690.627 121.554C687.286 118.015 684.959 113.645 683.891 108.901L683.891 108.901C682.822 104.157 683.05 99.2134 684.551 94.5876C686.052 89.9619 688.772 85.8238 692.425 82.6063L692.425 82.6062C696.078 79.3887 700.531 77.2101 705.316 76.2987L705.347 76.2929L705.377 76.2853C708.346 75.5271 711.354 74.925 714.387 74.4817L714.388 74.4815C717.154 74.0744 719.944 73.8694 722.739 73.8682C722.739 73.8682 722.739 73.8682 722.74 73.8682L740.81 73.8682L734.515 109.871H719.805C718.062 109.871 716.246 111.167 715.635 113.148C714.995 115.219 715.708 117.784 718.429 120.358L718.43 120.359C724.461 126.056 728.385 136.12 727.814 145.607C727.247 155.014 722.279 163.755 710.583 167.123L710.58 167.124C703.433 169.215 696.024 170.278 688.577 170.284Z" fill="white" stroke="white" stroke-width="2"/>
<path d="M380.307 170.308L396.005 83.4789L396.006 83.4731C397.868 72.8149 403.073 63.0221 410.871 55.5064C418.665 47.9948 428.647 43.1459 439.378 41.6584C445.174 41.057 451.033 41.7008 456.559 43.5464C462.091 45.3938 467.162 48.4026 471.431 52.3699L471.431 52.37C475.7 56.3374 479.068 61.1714 481.308 66.5465L481.308 66.5467C483.548 71.922 484.609 77.7138 484.419 83.5324L484.418 83.5552L484.419 83.578C484.452 86.1214 484.287 88.6632 483.925 91.1805C483.389 91.6222 482.853 92.0826 482.318 92.5618C480.697 93.9862 479.156 95.4516 477.655 96.9978L477.648 97.0052L477.641 97.0127C475.825 98.9635 474.128 101.023 472.562 103.179L472.553 103.192L472.544 103.205C471.642 104.535 470.802 105.862 470.001 107.273C469.189 108.704 468.523 110.159 467.872 111.636C467.31 112.909 466.891 114.233 466.483 115.522C466.399 115.786 466.316 116.049 466.232 116.309C465.757 117.783 465.505 119.308 465.261 120.781C465.231 120.963 465.201 121.143 465.171 121.323L465.169 121.339L465.166 121.355C465.015 122.487 464.895 123.607 464.807 124.726C457.787 130.483 449.243 134.089 440.208 135.103C438.291 135.302 436.364 135.377 434.439 135.327L441.994 94.298C443.673 93.4148 445.041 92.0311 445.904 90.3329C446.847 88.4762 447.129 86.354 446.704 84.3154C446.278 82.2771 445.17 80.4444 443.563 79.1184C441.956 77.7925 439.944 77.0521 437.86 77.0188C435.776 76.9855 433.741 77.6612 432.092 78.9352C430.444 80.2091 429.277 82.0055 428.787 84.0293C428.297 86.0528 428.51 88.1829 429.394 90.0694C430.169 91.7241 431.418 93.1045 432.975 94.0407L425.514 135.15L425.513 135.151L424.784 139.15L424.784 139.153L423.902 144.049L423.902 144.051L419.223 170.308H380.307Z" fill="white" stroke="white" stroke-width="2"/>
<path fill-rule="evenodd" clip-rule="evenodd" d="M81.5306 171.307H40.604L56.5065 83.2996C58.4111 72.4323 63.7237 62.4492 71.6783 54.7896C79.633 47.13 89.8188 42.1894 100.768 40.6801C106.712 40.0611 112.719 40.7201 118.387 42.6126C124.054 44.5051 129.25 47.5873 133.624 51.6517C137.998 55.7162 141.45 60.6687 143.745 66.176C146.042 71.6833 147.13 77.6176 146.936 83.5797V84.8278L144.836 86.5959L140.829 90.5962L137.19 94.9166L133.919 99.477L131.074 104.237L128.669 109.15L126.73 114.198L125.271 119.319L123.74 127.847C117.241 132.361 109.712 135.178 101.842 136.04C99.5015 136.286 97.1456 136.344 94.7961 136.216L102.643 93.5565C104.345 92.7824 105.73 91.4505 106.569 89.7819C107.407 88.1132 107.648 86.2085 107.252 84.3841C106.856 82.5597 105.847 80.9256 104.391 79.7531C102.936 78.5807 101.123 77.9406 99.2527 77.9392H98.7958C96.9886 78.04 95.2658 78.7354 93.8964 79.9168C92.527 81.0983 91.5882 82.699 91.2265 84.4693C90.8648 86.2396 91.1007 88.0795 91.8973 89.7018C92.6939 91.3241 94.0064 92.6374 95.6297 93.4365L88.0151 135.248L87.7826 136.56L86.412 144.145L81.5306 171.307Z" fill="white"/>
<path fill-rule="evenodd" clip-rule="evenodd" d="M189.827 74.0846L182.533 116.488C181.371 115.856 181.587 115.504 178.613 115.504C176.392 115.769 174.3 116.687 172.603 118.141C170.907 119.596 169.681 121.521 169.083 123.673L160.266 172.141H119.339L128.156 122.537C132.757 96.9105 159.216 70.4923 189.827 74.0846Z" fill="white"/>
<path fill-rule="evenodd" clip-rule="evenodd" d="M228.653 78.9645C229.792 78.8445 230.898 78.7805 232.004 78.7405L224.277 120.688C222.575 121.455 221.186 122.776 220.338 124.436C219.489 126.096 219.233 127.994 219.61 129.819C219.987 131.644 220.975 133.287 222.413 134.476C223.849 135.664 225.649 136.33 227.515 136.362C229.382 136.394 231.204 135.791 232.68 134.652C234.157 133.512 235.202 131.904 235.641 130.094C236.08 128.282 235.89 126.377 235.099 124.688C234.307 123.001 232.965 121.632 231.29 120.808L238.881 79.1005C249.07 80.6187 258.351 85.8056 264.974 93.6831C271.596 101.561 275.102 111.584 274.83 121.864C274.984 134.589 270.493 146.935 262.195 156.597C253.896 166.257 242.358 172.573 229.735 174.365C223.79 174.982 217.783 174.322 212.114 172.428C206.447 170.535 201.251 167.452 196.876 163.388C192.501 159.322 189.05 154.369 186.753 148.862C184.456 143.354 183.366 137.42 183.559 131.457C183.41 118.734 187.904 106.392 196.201 96.733C204.499 87.0741 216.034 80.7585 228.653 78.9645Z" fill="white"/>
<path fill-rule="evenodd" clip-rule="evenodd" d="M371.953 171.308H331.002L347.305 83.501H388.064L371.953 171.308Z" fill="white"/>
<path fill-rule="evenodd" clip-rule="evenodd" d="M331.924 136.49L339.065 96.2543L324.517 96.3983L325.519 90.9579C326.109 88.8013 327.332 86.8702 329.03 85.413C330.729 83.9558 332.825 83.0392 335.05 82.7812C336.91 82.6153 338.78 82.9583 340.46 83.7733L347.754 41.3698C347.273 41.3138 345.301 41.2657 344.82 41.2257C314.827 38.6095 289.153 64.6117 284.625 89.8218L269.82 172.149H310.771L317.239 136.578L331.924 136.49Z" fill="white"/>
<path d="M675.432 44.9617L670.258 71.8389L670.027 73.0401L671.25 73.0279L679.664 72.944L672.886 111.173L663.619 111.231L662.805 111.237L662.645 112.035L661.844 116.035L661.842 116.045L661.84 116.055C661.573 117.543 661.213 119.019 660.859 120.472C660.754 120.904 660.649 121.334 660.547 121.761C660.112 123.59 659.73 125.392 659.688 126.972C659.647 128.551 659.942 130.099 661.063 131.232C662.177 132.358 663.901 132.865 666.223 132.865C666.387 132.865 667.151 132.85 667.914 132.834L667.993 132.833C668.18 132.829 668.366 132.825 668.543 132.822L661.693 171.138C660.536 171.123 658.678 171.101 658.22 171.1C652.392 171.05 646.655 169.647 641.464 167.003L641.464 167.003C636.271 164.359 631.767 160.546 628.305 155.865C621.215 146.26 620.971 133.825 624.171 115.958C624.172 115.956 624.172 115.954 624.172 115.952L637.825 44.9617H675.432Z" fill="white" stroke="white" stroke-width="2"/>
<path d="M559.05 118.819L559.05 118.823C559.098 122.005 558.835 125.183 558.265 128.315C558.265 128.316 558.265 128.317 558.265 128.317L550.505 170.308H514.939C490.137 170.308 470.077 154.029 469.787 128.408C469.972 121.059 472.014 113.876 475.722 107.524C479.255 101.471 484.194 96.3594 490.115 92.6165L505.563 121.837C504.789 123.57 504.569 125.504 504.941 127.374L504.941 127.374C505.35 129.419 506.442 131.264 508.039 132.607L508.039 132.607C509.636 133.949 511.643 134.709 513.73 134.762C515.817 134.815 517.86 134.158 519.523 132.899C521.187 131.64 522.373 129.852 522.884 127.83C523.396 125.809 523.203 123.674 522.338 121.776C521.472 119.878 519.986 118.331 518.125 117.389L518.125 117.389C516.489 116.561 514.648 116.243 512.84 116.465L490.582 74.6978C508.087 70.165 524.959 71.4562 537.543 78.5698C550.32 85.7928 558.821 99.0975 559.05 118.819Z" fill="white" stroke="white" stroke-width="2"/>
</g>
<g opacity="0.3" filter="url(#filter1_if)">
<path d="M556.876 170.292L565.523 121.864L565.523 121.864C567.762 109.303 575.391 96.4922 586.249 87.2674C596.844 78.2654 610.443 72.7352 625.011 74.1179L618.151 114.042C618.089 114.015 618.024 113.989 617.956 113.964C617.312 113.73 616.463 113.648 614.972 113.648H614.913L614.856 113.654C612.434 113.937 610.154 114.936 608.305 116.523L608.305 116.523C606.457 118.11 605.127 120.213 604.485 122.561L604.473 122.603L604.465 122.645L595.798 170.292H556.876Z" fill="white" stroke="white" stroke-width="2"/>
<path d="M688.577 170.284H667.902L674.373 133.329H688.481C691.028 133.329 692.676 131.459 693.093 129.145C693.508 126.846 692.769 124.025 690.656 121.586L690.642 121.569L690.627 121.554C687.286 118.015 684.959 113.645 683.891 108.901L683.891 108.901C682.822 104.157 683.05 99.2134 684.551 94.5876C686.052 89.9619 688.772 85.8238 692.425 82.6063L692.425 82.6062C696.078 79.3887 700.531 77.2101 705.316 76.2987L705.347 76.2929L705.377 76.2853C708.346 75.5271 711.354 74.925 714.387 74.4817L714.388 74.4815C717.154 74.0744 719.944 73.8694 722.739 73.8682C722.739 73.8682 722.739 73.8682 722.74 73.8682L740.81 73.8682L734.515 109.871H719.805C718.062 109.871 716.246 111.167 715.635 113.148C714.995 115.219 715.708 117.784 718.429 120.358L718.43 120.359C724.461 126.056 728.385 136.12 727.814 145.607C727.247 155.014 722.279 163.755 710.583 167.123L710.58 167.124C703.433 169.215 696.024 170.278 688.577 170.284Z" fill="white" stroke="white" stroke-width="2"/>
<path d="M380.307 170.308L396.005 83.4789L396.006 83.4731C397.868 72.8149 403.073 63.0221 410.871 55.5064C418.665 47.9948 428.647 43.1459 439.378 41.6584C445.174 41.057 451.033 41.7008 456.559 43.5464C462.091 45.3938 467.162 48.4026 471.431 52.3699L471.431 52.37C475.7 56.3374 479.068 61.1714 481.308 66.5465L481.308 66.5467C483.548 71.922 484.609 77.7138 484.419 83.5324L484.418 83.5552L484.419 83.578C484.452 86.1214 484.287 88.6632 483.925 91.1805C483.389 91.6222 482.853 92.0826 482.318 92.5618C480.697 93.9862 479.156 95.4516 477.655 96.9978L477.648 97.0052L477.641 97.0127C475.825 98.9635 474.128 101.023 472.562 103.179L472.553 103.192L472.544 103.205C471.642 104.535 470.802 105.862 470.001 107.273C469.189 108.704 468.523 110.159 467.872 111.636C467.31 112.909 466.891 114.233 466.483 115.522C466.399 115.786 466.316 116.049 466.232 116.309C465.757 117.783 465.505 119.308 465.261 120.781C465.231 120.963 465.201 121.143 465.171 121.323L465.169 121.339L465.166 121.355C465.015 122.487 464.895 123.607 464.807 124.726C457.787 130.483 449.243 134.089 440.208 135.103C438.291 135.302 436.364 135.377 434.439 135.327L441.994 94.298C443.673 93.4148 445.041 92.0311 445.904 90.3329C446.847 88.4762 447.129 86.354 446.704 84.3154C446.278 82.2771 445.17 80.4444 443.563 79.1184C441.956 77.7925 439.944 77.0521 437.86 77.0188C435.776 76.9855 433.741 77.6612 432.092 78.9352C430.444 80.2091 429.277 82.0055 428.787 84.0293C428.297 86.0528 428.51 88.1829 429.394 90.0694C430.169 91.7241 431.418 93.1045 432.975 94.0407L425.514 135.15L425.513 135.151L424.784 139.15L424.784 139.153L423.902 144.049L423.902 144.051L419.223 170.308H380.307Z" fill="white" stroke="white" stroke-width="2"/>
<path fill-rule="evenodd" clip-rule="evenodd" d="M81.5306 171.307H40.604L56.5065 83.2996C58.4111 72.4323 63.7237 62.4492 71.6783 54.7896C79.633 47.13 89.8188 42.1894 100.768 40.6801C106.712 40.0611 112.719 40.7201 118.387 42.6126C124.054 44.5051 129.25 47.5873 133.624 51.6517C137.998 55.7162 141.45 60.6687 143.745 66.176C146.042 71.6833 147.13 77.6176 146.936 83.5797V84.8278L144.836 86.5959L140.829 90.5962L137.19 94.9166L133.919 99.477L131.074 104.237L128.669 109.15L126.73 114.198L125.271 119.319L123.74 127.847C117.241 132.361 109.712 135.178 101.842 136.04C99.5015 136.286 97.1456 136.344 94.7961 136.216L102.643 93.5565C104.345 92.7824 105.73 91.4505 106.569 89.7819C107.407 88.1132 107.648 86.2085 107.252 84.3841C106.856 82.5597 105.847 80.9256 104.391 79.7531C102.936 78.5807 101.123 77.9406 99.2527 77.9392H98.7958C96.9886 78.04 95.2658 78.7354 93.8964 79.9168C92.527 81.0983 91.5882 82.699 91.2265 84.4693C90.8648 86.2396 91.1007 88.0795 91.8973 89.7018C92.6939 91.3241 94.0064 92.6374 95.6297 93.4365L88.0151 135.248L87.7826 136.56L86.412 144.145L81.5306 171.307Z" fill="white"/>
<path fill-rule="evenodd" clip-rule="evenodd" d="M189.827 74.0846L182.533 116.488C181.371 115.856 181.587 115.504 178.613 115.504C176.392 115.769 174.3 116.687 172.603 118.141C170.907 119.596 169.681 121.521 169.083 123.673L160.266 172.141H119.339L128.156 122.537C132.757 96.9105 159.216 70.4923 189.827 74.0846Z" fill="white"/>
<path fill-rule="evenodd" clip-rule="evenodd" d="M228.653 78.9645C229.792 78.8445 230.898 78.7805 232.004 78.7405L224.277 120.688C222.575 121.455 221.186 122.776 220.338 124.436C219.489 126.096 219.233 127.994 219.61 129.819C219.987 131.644 220.975 133.287 222.413 134.476C223.849 135.664 225.649 136.33 227.515 136.362C229.382 136.394 231.204 135.791 232.68 134.652C234.157 133.512 235.202 131.904 235.641 130.094C236.08 128.282 235.89 126.377 235.099 124.688C234.307 123.001 232.965 121.632 231.29 120.808L238.881 79.1005C249.07 80.6187 258.351 85.8056 264.974 93.6831C271.596 101.561 275.102 111.584 274.83 121.864C274.984 134.589 270.493 146.935 262.195 156.597C253.896 166.257 242.358 172.573 229.735 174.365C223.79 174.982 217.783 174.322 212.114 172.428C206.447 170.535 201.251 167.452 196.876 163.388C192.501 159.322 189.05 154.369 186.753 148.862C184.456 143.354 183.366 137.42 183.559 131.457C183.41 118.734 187.904 106.392 196.201 96.733C204.499 87.0741 216.034 80.7585 228.653 78.9645Z" fill="white"/>
<path fill-rule="evenodd" clip-rule="evenodd" d="M371.953 171.308H331.002L347.305 83.501H388.064L371.953 171.308Z" fill="white"/>
<path fill-rule="evenodd" clip-rule="evenodd" d="M331.924 136.49L339.065 96.2543L324.517 96.3983L325.519 90.9579C326.109 88.8013 327.332 86.8702 329.03 85.413C330.729 83.9558 332.825 83.0392 335.05 82.7812C336.91 82.6153 338.78 82.9583 340.46 83.7733L347.754 41.3698C347.273 41.3138 345.301 41.2657 344.82 41.2257C314.827 38.6095 289.153 64.6117 284.625 89.8218L269.82 172.149H310.771L317.239 136.578L331.924 136.49Z" fill="white"/>
<path d="M675.432 44.9617L670.258 71.8389L670.027 73.0401L671.25 73.0279L679.664 72.944L672.886 111.173L663.619 111.231L662.805 111.237L662.645 112.035L661.844 116.035L661.842 116.045L661.84 116.055C661.573 117.543 661.213 119.019 660.859 120.472C660.754 120.904 660.649 121.334 660.547 121.761C660.112 123.59 659.73 125.392 659.688 126.972C659.647 128.551 659.942 130.099 661.063 131.232C662.177 132.358 663.901 132.865 666.223 132.865C666.387 132.865 667.151 132.85 667.914 132.834L667.993 132.833C668.18 132.829 668.366 132.825 668.543 132.822L661.693 171.138C660.536 171.123 658.678 171.101 658.22 171.1C652.392 171.05 646.655 169.647 641.464 167.003L641.464 167.003C636.271 164.359 631.767 160.546 628.305 155.865C621.215 146.26 620.971 133.825 624.171 115.958C624.172 115.956 624.172 115.954 624.172 115.952L637.825 44.9617H675.432Z" fill="white" stroke="white" stroke-width="2"/>
<path d="M559.05 118.819L559.05 118.823C559.098 122.005 558.835 125.183 558.265 128.315C558.265 128.316 558.265 128.317 558.265 128.317L550.505 170.308H514.939C490.137 170.308 470.077 154.029 469.787 128.408C469.972 121.059 472.014 113.876 475.722 107.524C479.255 101.471 484.194 96.3594 490.115 92.6165L505.563 121.837C504.789 123.57 504.569 125.504 504.941 127.374L504.941 127.374C505.35 129.419 506.442 131.264 508.039 132.607L508.039 132.607C509.636 133.949 511.643 134.709 513.73 134.762C515.817 134.815 517.86 134.158 519.523 132.899C521.187 131.64 522.373 129.852 522.884 127.83C523.396 125.809 523.203 123.674 522.338 121.776C521.472 119.878 519.986 118.331 518.125 117.389L518.125 117.389C516.489 116.561 514.648 116.243 512.84 116.465L490.582 74.6978C508.087 70.165 524.959 71.4562 537.543 78.5698C550.32 85.7928 558.821 99.0975 559.05 118.819Z" fill="white" stroke="white" stroke-width="2"/>
</g>
<g filter="url(#filter2_i)">
<path d="M618.902 77.4258L612.098 117.025C612.039 116.999 611.978 116.975 611.913 116.951C611.272 116.718 610.429 116.637 608.949 116.637H608.891L608.833 116.644C606.429 116.924 604.164 117.916 602.329 119.492L602.947 120.212L602.329 119.492C600.494 121.067 599.173 123.155 598.535 125.487L598.524 125.529L598.516 125.572L589.916 172.846H551.31L559.889 124.799L559.889 124.799C562.11 112.337 569.679 99.6259 580.452 90.473C590.962 81.5431 604.452 76.0568 618.902 77.4258Z" fill="#15243F" stroke="#15243F" stroke-width="2"/>
<path d="M681.987 172.838H661.481L667.899 136.182H681.893C684.425 136.182 686.062 134.323 686.477 132.024C686.889 129.74 686.154 126.938 684.057 124.516L684.043 124.5L684.028 124.485C680.713 120.974 678.405 116.638 677.345 111.932L677.345 111.932C676.285 107.226 676.511 102.322 678 97.7334C679.489 93.1446 682.187 89.0395 685.812 85.8477L685.812 85.8476C689.435 82.6557 693.852 80.4946 698.6 79.5904L698.63 79.5846L698.66 79.577C701.607 78.8247 704.592 78.2273 707.601 77.7874L707.602 77.7873C710.345 77.3833 713.114 77.1799 715.887 77.1787C715.887 77.1787 715.887 77.1787 715.888 77.1787L733.81 77.1787L727.566 112.89H712.976C711.243 112.89 709.438 114.177 708.83 116.146C708.195 118.205 708.904 120.753 711.605 123.309L711.605 123.31C717.589 128.961 721.482 138.946 720.915 148.358C720.352 157.689 715.425 166.36 703.823 169.701L703.819 169.702C696.728 171.776 689.377 172.832 681.987 172.838Z" fill="#15243F" stroke="#15243F" stroke-width="2"/>
<path d="M376.099 172.862L391.675 86.7093L391.676 86.7035C393.523 76.1288 398.687 66.4128 406.424 58.9561C414.157 51.5034 424.06 46.6926 434.707 45.2167C440.458 44.6201 446.27 45.2588 451.753 47.0899C457.241 48.9227 462.272 51.9077 466.507 55.8438L466.507 55.8439C470.743 59.78 474.084 64.5759 476.306 69.9087L476.307 69.9088C478.529 75.2418 479.582 80.988 479.393 86.7607L479.393 86.7835L479.393 86.8063C479.425 89.3287 479.262 91.8496 478.903 94.3462C478.372 94.784 477.841 95.2403 477.311 95.7151C475.702 97.1287 474.173 98.583 472.684 100.117L472.677 100.125L472.67 100.132C470.867 102.068 469.183 104.112 467.629 106.252L467.62 106.265L467.611 106.278C466.716 107.598 465.882 108.915 465.087 110.316C464.281 111.735 463.62 113.179 462.974 114.645C462.417 115.909 462 117.223 461.595 118.502C461.512 118.764 461.429 119.025 461.346 119.283C460.875 120.746 460.625 122.26 460.383 123.722C460.353 123.902 460.324 124.081 460.294 124.259L460.291 124.276L460.289 124.292C460.138 125.414 460.02 126.524 459.933 127.633C452.968 133.344 444.492 136.921 435.529 137.927C433.631 138.125 431.722 138.199 429.814 138.15L437.309 97.4488C438.975 96.5716 440.333 95.1981 441.189 93.5126C442.125 91.6686 442.406 89.561 441.983 87.5364C441.56 85.5121 440.46 83.6918 438.864 82.3749C437.268 81.0581 435.27 80.3228 433.2 80.2897C431.13 80.2567 429.11 80.9277 427.472 82.193C425.835 83.4582 424.676 85.2423 424.189 87.2523C423.702 89.2618 423.914 91.3774 424.792 93.2509C425.561 94.8926 426.8 96.2625 428.344 97.1923L420.941 137.98L420.941 137.981L420.217 141.95L420.217 141.952L419.342 146.811L419.342 146.812L414.7 172.862H376.099Z" fill="#15243F" stroke="#15243F" stroke-width="2"/>
<path fill-rule="evenodd" clip-rule="evenodd" d="M79.6117 173.861H39L54.7802 86.5303C56.6702 75.7465 61.9418 65.8403 69.8353 58.2396C77.7287 50.6389 87.8362 45.7363 98.7007 44.2386C104.599 43.6244 110.561 44.2783 116.185 46.1563C121.808 48.0342 126.964 51.0927 131.305 55.1259C135.645 59.1591 139.07 64.0735 141.348 69.5384C143.627 75.0034 144.707 80.892 144.514 86.8082V88.0467L142.43 89.8012L138.454 93.7708L134.843 98.0579L131.597 102.583L128.774 107.307L126.388 112.182L124.463 117.191L123.015 122.272L121.496 130.735C115.047 135.215 107.576 138.009 99.7665 138.865C97.4444 139.109 95.1066 139.167 92.7752 139.04L100.562 96.7083C102.251 95.9402 103.625 94.6185 104.457 92.9627C105.289 91.3069 105.529 89.4168 105.136 87.6065C104.743 85.7961 103.741 84.1746 102.297 83.0111C100.853 81.8477 99.0533 81.2125 97.1975 81.2111H96.7441C94.9509 81.3112 93.2413 82.0012 91.8824 83.1735C90.5236 84.3459 89.5919 85.9343 89.2331 87.691C88.8741 89.4476 89.1082 91.2734 89.8987 92.8832C90.6892 94.493 91.9916 95.7962 93.6024 96.5892L86.0463 138.079L85.8157 139.381L84.4556 146.907L79.6117 173.861Z" fill="#731213"/>
<path fill-rule="evenodd" clip-rule="evenodd" d="M187.075 77.3857L179.837 119.463C178.684 118.836 178.898 118.487 175.948 118.487C173.744 118.749 171.668 119.66 169.984 121.103C168.3 122.547 167.084 124.458 166.491 126.592L157.741 174.688H117.13L125.879 125.465C130.444 100.036 156.699 73.8211 187.075 77.3857Z" fill="#731213"/>
<path fill-rule="evenodd" clip-rule="evenodd" d="M225.603 82.2282C226.732 82.1091 227.83 82.0456 228.927 82.0059L221.26 123.631C219.571 124.391 218.193 125.703 217.351 127.35C216.509 128.997 216.255 130.881 216.628 132.692C217.003 134.503 217.984 136.132 219.41 137.312C220.835 138.492 222.622 139.152 224.473 139.184C226.326 139.216 228.133 138.617 229.599 137.487C231.064 136.356 232.101 134.761 232.537 132.964C232.973 131.167 232.783 129.275 231.998 127.6C231.213 125.926 229.881 124.568 228.219 123.75L235.752 82.3631C245.862 83.8696 255.072 89.0167 261.643 96.8335C268.215 104.65 271.694 114.597 271.424 124.798C271.577 137.425 267.12 149.676 258.886 159.263C250.651 168.85 239.202 175.117 226.676 176.894C220.777 177.507 214.816 176.852 209.191 174.973C203.567 173.095 198.411 170.035 194.07 166.002C189.729 161.968 186.304 157.053 184.024 151.588C181.745 146.122 180.664 140.234 180.855 134.317C180.707 121.692 185.167 109.444 193.4 99.86C201.634 90.2754 213.08 84.0083 225.603 82.2282Z" fill="#731213"/>
<path fill-rule="evenodd" clip-rule="evenodd" d="M367.8 173.862H327.164L343.342 86.7297H383.787L367.8 173.862Z" fill="#731213"/>
<path fill-rule="evenodd" clip-rule="evenodd" d="M328.079 139.311L335.166 99.385L320.73 99.5279L321.724 94.1293C322.309 91.9893 323.522 90.073 325.208 88.6271C326.893 87.181 328.974 86.2715 331.181 86.0155C333.027 85.8509 334.882 86.1913 336.55 87L343.787 44.9227C343.31 44.8671 341.354 44.8195 340.876 44.7798C311.114 42.1837 285.638 67.9858 281.144 93.0019L266.453 174.695H307.089L313.508 139.398L328.079 139.311Z" fill="#731213"/>
<path d="M668.934 48.4946L663.802 75.156L663.571 76.3571L664.794 76.3449L673.134 76.2618L666.411 114.181L657.222 114.239L656.408 114.244L656.248 115.043L655.452 119.012L655.45 119.022L655.449 119.032C655.184 120.508 654.827 121.973 654.475 123.414C654.371 123.843 654.267 124.269 654.166 124.694C653.734 126.509 653.354 128.298 653.314 129.866C653.273 131.434 653.565 132.972 654.68 134.099C655.787 135.218 657.501 135.722 659.805 135.722C659.968 135.722 660.723 135.707 661.479 135.692L661.562 135.69C661.745 135.686 661.926 135.683 662.099 135.679L655.304 173.684C654.155 173.67 652.318 173.648 651.864 173.648C646.082 173.597 640.391 172.206 635.241 169.583L635.241 169.583C630.089 166.96 625.62 163.177 622.185 158.533C615.152 149.004 614.909 136.668 618.085 118.939C618.085 118.937 618.086 118.935 618.086 118.932L631.632 48.4946H668.934Z" fill="#15243F" stroke="#15243F" stroke-width="2"/>
<path d="M553.45 121.777L553.45 121.78C553.498 124.937 553.237 128.091 552.671 131.198C552.671 131.199 552.671 131.199 552.671 131.2L544.972 172.862H509.686C485.079 172.862 465.177 156.711 464.889 131.291C465.073 124 467.098 116.874 470.777 110.572C474.282 104.569 479.179 99.4993 485.05 95.7863L500.374 124.771C499.606 126.491 499.388 128.411 499.758 130.266L499.758 130.267C500.163 132.298 501.248 134.13 502.834 135.464L502.834 135.464C504.421 136.797 506.414 137.552 508.486 137.605C510.559 137.657 512.587 137.005 514.24 135.754C515.892 134.503 517.07 132.728 517.577 130.72C518.085 128.713 517.894 126.592 517.035 124.708C516.175 122.823 514.7 121.286 512.851 120.35L512.851 120.35C511.228 119.529 509.402 119.212 507.607 119.432L485.528 77.9995C502.893 73.5048 519.629 74.787 532.112 81.8434C544.788 89.0093 553.223 102.209 553.45 121.777Z" fill="#15243F" stroke="#15243F" stroke-width="2"/>
<path fill-rule="evenodd" clip-rule="evenodd" d="M424.211 223.755L432.165 180.452H416.869L408.731 224.818C408.525 225.948 408.152 227.042 407.624 228.065C406.956 229.329 406.051 230.456 404.959 231.387C403.537 232.528 401.898 233.375 400.14 233.879C397.694 234.605 395.15 234.95 392.597 234.901C390.136 234.979 387.68 234.633 385.338 233.879C383.861 233.43 382.547 232.564 381.558 231.387C380.813 230.426 380.36 229.273 380.251 228.065C380.127 226.982 380.175 225.887 380.393 224.818L388.532 180.485H373.219L365.256 223.788C364.696 226.648 364.903 229.604 365.86 232.359C366.86 235.008 368.545 237.351 370.746 239.153C373.287 241.203 376.221 242.721 379.371 243.613C383.203 244.734 387.185 245.274 391.18 245.215C395.422 245.26 399.651 244.737 403.752 243.662C407.288 242.737 410.649 241.248 413.701 239.252C416.434 237.455 418.793 235.155 420.649 232.475C422.422 229.853 423.626 226.895 424.186 223.788L424.211 223.755ZM447.881 243.214L451.711 222.376H457.31L467.703 243.214H483.996L470.083 216.696L491.405 196.581H475.598L457.301 214.412H453.178L459.405 180.493H445.073L433.59 243.214H447.881ZM528.586 207.502C526.985 207.326 525.376 207.239 523.766 207.244C522.362 207.234 520.96 207.346 519.575 207.577C518.123 207.819 516.712 208.263 515.385 208.897C514.038 209.563 512.852 210.51 511.906 211.671C510.865 213.054 510.17 214.663 509.878 216.363L504.941 243.239H490.794L499.359 196.564H513.549L511.873 205.608C512.346 204.761 512.885 203.95 513.482 203.183C514.164 202.355 514.956 201.623 515.837 201.007C517.171 200.061 518.571 199.212 520.028 198.466C520.824 198.017 521.654 197.635 522.542 197.195C523.485 196.777 524.464 196.443 525.468 196.198C526.565 195.931 527.69 195.797 528.82 195.8C529.101 195.795 529.381 195.814 529.658 195.858C529.978 195.879 530.298 195.918 530.614 195.974L528.51 207.502H528.586ZM577.483 243.214L577.785 241.553C576.988 240.868 576.352 240.017 575.924 239.061C575.522 238.11 575.394 237.066 575.555 236.047L580.24 210.558C580.978 207.651 580.536 204.574 579.008 201.987C577.312 199.627 574.826 197.938 571.993 197.22C568.117 196.144 564.099 195.651 560.075 195.758C558.291 195.747 556.509 195.835 554.736 196.024C552.613 196.247 550.516 196.656 548.466 197.245C546.292 197.853 544.215 198.761 542.298 199.944C540.297 201.166 538.566 202.776 537.21 204.678C535.686 206.882 534.66 209.386 534.201 212.02H547.611C547.845 211.053 548.176 210.113 548.6 209.213C549.081 208.202 549.733 207.28 550.528 206.489C551.498 205.563 552.655 204.853 553.923 204.404C555.632 203.825 557.43 203.544 559.236 203.573C560.883 203.516 562.524 203.784 564.064 204.362C565.114 204.734 566.002 205.453 566.579 206.397C567.017 207.283 567.144 208.288 566.939 209.254C566.732 210.313 566.237 211.296 565.506 212.095C564.674 212.958 563.623 213.584 562.463 213.905C559.706 214.636 557.007 215.251 554.409 215.765C551.81 216.28 549.313 216.779 546.974 217.269C544.761 217.723 542.577 218.311 540.437 219.029C538.541 219.652 536.735 220.518 535.064 221.604C533.488 222.657 532.149 224.022 531.133 225.615C529.984 227.457 529.215 229.506 528.87 231.645C528.272 234.195 528.552 236.87 529.667 239.244C530.765 241.266 532.545 242.841 534.696 243.696C537.313 244.723 540.112 245.217 542.926 245.149C545.292 245.147 547.65 244.869 549.95 244.319C551.835 243.869 553.667 243.224 555.415 242.392C556.773 241.761 558.079 241.026 559.32 240.191C560.368 239.468 561.147 238.92 561.684 238.53V238.737C561.675 238.811 561.662 238.883 561.642 238.953C561.504 239.714 561.504 240.493 561.642 241.254C561.763 241.936 562.01 242.589 562.371 243.181L577.483 243.214ZM564.089 224.818C563.705 227.254 562.726 229.56 561.24 231.537C559.904 233.179 558.146 234.435 556.152 235.175C554.003 235.942 551.731 236.311 549.447 236.263C548.276 236.304 547.112 236.077 546.044 235.598C545.278 235.227 544.631 234.651 544.175 233.937C543.789 233.288 543.555 232.562 543.488 231.811C543.404 231.119 543.427 230.419 543.555 229.735C543.758 228.833 544.19 227.998 544.812 227.31C545.56 226.435 546.456 225.696 547.461 225.125C548.583 224.469 549.815 224.019 551.098 223.797C552.364 223.564 553.763 223.306 555.289 223.008C556.814 222.709 558.415 222.326 560.066 221.911C561.697 221.502 563.306 221.008 564.886 220.433L564.047 224.826L564.089 224.818ZM611.428 191.24L613.406 180.444H599.082L597.112 191.24H611.428ZM601.873 243.247L610.439 196.572H596.19L587.557 243.214L601.873 243.247ZM664.801 243.247L670.542 211.987C671.327 208.839 670.986 205.52 669.578 202.593C668.148 200.123 665.842 198.271 663.108 197.394C659.598 196.238 655.91 195.7 652.212 195.808C650.329 195.817 648.459 196.134 646.68 196.747C644.812 197.386 643.045 198.286 641.433 199.421C639.75 200.611 638.247 202.031 636.966 203.64L638.257 196.572H624.117L615.543 243.247H629.716L635.256 213.108C635.434 212.221 635.781 211.374 636.279 210.616C636.909 209.63 637.715 208.765 638.659 208.067C639.877 207.185 641.241 206.522 642.691 206.107C644.624 205.553 646.629 205.288 648.641 205.318C650.296 205.249 651.947 205.515 653.494 206.098C654.479 206.46 655.284 207.187 655.74 208.125C656.154 209.03 656.332 210.023 656.26 211.015C656.175 212.13 656.024 213.239 655.807 214.337L650.494 243.272L664.801 243.247ZM730.302 220.516C730.624 218.887 730.806 217.234 730.847 215.574C730.922 213.84 730.769 212.104 730.394 210.409C729.966 208.518 729.26 206.699 728.299 205.01C727.586 203.766 726.707 202.623 725.684 201.613C724.501 200.454 723.164 199.46 721.711 198.657C719.965 197.729 718.102 197.036 716.171 196.597C713.811 196.03 711.391 195.751 708.963 195.767C705.446 195.735 701.945 196.231 698.578 197.237C695.337 198.231 692.309 199.807 689.643 201.888C686.846 204.12 684.522 206.877 682.804 210.002C680.772 213.697 679.379 217.702 678.68 221.853C678.012 225.145 678.043 228.54 678.773 231.819C679.438 234.562 680.82 237.082 682.779 239.128C684.789 241.182 687.262 242.732 689.995 243.654C693.138 244.715 696.441 245.232 699.76 245.182C703.935 245.22 708.086 244.571 712.047 243.264C715.555 242.119 718.813 240.33 721.652 237.99C724.269 235.821 726.367 233.103 727.796 230.034H713.723C713.3 230.854 712.732 231.594 712.047 232.218C711.189 232.99 710.247 233.667 709.239 234.236C708.162 234.867 707.015 235.371 705.82 235.739C704.629 236.114 703.389 236.307 702.14 236.312C700.452 236.359 698.775 236.024 697.237 235.332C695.987 234.766 694.893 233.912 694.044 232.841C693.273 231.824 692.735 230.654 692.468 229.411C692.196 228.213 692.17 226.973 692.393 225.765C692.393 225.516 692.476 225.225 692.543 224.843C692.61 224.461 692.636 224.112 692.703 223.747C692.75 223.438 692.829 223.135 692.937 222.841H729.757C729.8 222.56 729.863 222.282 729.95 222.011C730.008 221.787 730.042 221.562 730.101 221.346C730.159 221.131 730.243 220.84 730.302 220.516ZM716.271 215.608H694.253C694.485 214.388 694.9 213.209 695.485 212.111C696.125 210.832 696.975 209.668 698 208.665C699.155 207.546 700.518 206.66 702.014 206.057C703.79 205.338 705.695 204.982 707.613 205.01C709.099 204.985 710.577 205.244 711.963 205.774C713.005 206.197 713.926 206.867 714.645 207.726C715.28 208.502 715.747 209.397 716.02 210.359C716.293 211.267 716.435 212.21 716.439 213.158C716.454 213.967 716.394 214.775 716.263 215.574L716.271 215.608Z" fill="#731213"/>
</g>
<defs>
<filter id="filter0_f" x="0.604004" y="0.439941" width="781.396" height="214.149" filterUnits="userSpaceOnUse" color-interpolation-filters="sRGB">
<feFlood flood-opacity="0" result="BackgroundImageFix"/>
<feBlend mode="normal" in="SourceGraphic" in2="BackgroundImageFix" result="shape"/>
<feGaussianBlur stdDeviation="20" result="effect1_foregroundBlur"/>
</filter>
<filter id="filter1_if" x="35.604" y="35.4399" width="711.396" height="144.149" filterUnits="userSpaceOnUse" color-interpolation-filters="sRGB">
<feFlood flood-opacity="0" result="BackgroundImageFix"/>
<feBlend mode="normal" in="SourceGraphic" in2="BackgroundImageFix" result="shape"/>
<feColorMatrix in="SourceAlpha" type="matrix" values="0 0 0 0 0 0 0 0 0 0 0 0 0 0 0 0 0 0 127 0" result="hardAlpha"/>
<feOffset dy="4"/>
<feGaussianBlur stdDeviation="2"/>
<feComposite in2="hardAlpha" operator="arithmetic" k2="-1" k3="1"/>
<feColorMatrix type="matrix" values="0 0 0 0 0 0 0 0 0 0 0 0 0 0 0 0 0 0 0.25 0"/>
<feBlend mode="normal" in2="shape" result="effect1_innerShadow"/>
<feGaussianBlur stdDeviation="2.5" result="effect2_foregroundBlur"/>
</filter>
<filter id="filter2_i" x="39" y="44" width="696" height="201.22" filterUnits="userSpaceOnUse" color-interpolation-filters="sRGB">
<feFlood flood-opacity="0" result="BackgroundImageFix"/>
<feBlend mode="normal" in="SourceGraphic" in2="BackgroundImageFix" result="shape"/>
<feColorMatrix in="SourceAlpha" type="matrix" values="0 0 0 0 0 0 0 0 0 0 0 0 0 0 0 0 0 0 127 0" result="hardAlpha"/>
<feOffset/>
<feGaussianBlur stdDeviation="10"/>
<feComposite in2="hardAlpha" operator="arithmetic" k2="-1" k3="1"/>
<feColorMatrix type="matrix" values="0 0 0 0 0 0 0 0 0 0 0 0 0 0 0 0 0 0 0.5 0"/>
<feBlend mode="normal" in2="shape" result="effect1_innerShadow"/>
</filter>
</defs>
</svg>
