<svg width="1096" height="336" viewBox="0 0 1096 336" fill="none" xmlns="http://www.w3.org/2000/svg">
<g filter="url(#filter0_i)">
<path fill-rule="evenodd" clip-rule="evenodd" d="M63.9518 204.492H0L24.8493 66.9723C27.8254 49.9909 36.1268 34.3914 48.5567 22.4225C60.9866 10.4536 76.9029 2.7335 94.0115 0.375042C103.3 -0.592144 112.687 0.43752 121.544 3.39477C130.399 6.35201 138.517 11.1682 145.353 17.5193C152.188 23.8705 157.581 31.6093 161.169 40.2149C164.757 48.8206 166.458 58.0935 166.155 67.4098V69.3601L162.873 72.123L156.611 78.3739L150.925 85.1249L145.814 92.251L141.368 99.6895L137.611 107.366L134.58 115.254L132.3 123.255L129.908 136.582C119.753 143.636 107.988 148.037 95.6898 149.384C92.0332 149.768 88.3517 149.859 84.6805 149.659L96.9423 82.9996C99.6016 81.7901 101.766 79.7088 103.076 77.1014C104.387 74.494 104.764 71.5177 104.145 68.6669C103.526 65.8161 101.948 63.2626 99.6742 61.4305C97.4002 59.5985 94.5667 58.5982 91.6443 58.5961H90.9304C88.1065 58.7536 85.4144 59.8402 83.2746 61.6863C81.1348 63.5324 79.6678 66.0338 79.1026 68.8C78.5374 71.5662 78.906 74.4412 80.1509 76.9762C81.3956 79.5112 83.4465 81.5634 85.983 82.8121L74.0844 148.147L73.7212 150.197L71.5795 162.049L63.9518 204.492Z" fill="#841819"/>
</g>
<path d="M1.19689 203.492L25.8333 67.1501L25.8342 67.1449C28.7738 50.3726 36.973 34.9648 49.2503 23.1429C61.5237 11.3247 77.2387 3.70022 94.1316 1.36795C103.272 0.418462 112.511 1.43295 121.227 4.34329C129.947 7.25535 137.941 11.998 144.673 18.2519C151.403 24.5059 156.714 32.1261 160.246 40.5996L160.246 40.5997C163.779 49.0736 165.454 58.2041 165.155 67.3773L165.155 67.3936V67.4098V68.8948L162.229 71.3581L162.197 71.3853L162.167 71.4153L155.904 77.6662L155.874 77.6967L155.846 77.7297L150.16 84.4807L150.135 84.5105L150.112 84.5422L145.002 91.6682L144.977 91.7021L144.956 91.7379L140.51 99.1765L140.488 99.2123L140.47 99.2499L136.712 106.926L136.693 106.966L136.677 107.007L133.646 114.896L133.63 114.937L133.618 114.98L131.338 122.981L131.325 123.03L131.316 123.079L128.997 135.996C119.058 142.817 107.578 147.075 95.5833 148.39C92.3574 148.728 89.1119 148.836 85.8713 148.713L97.8336 83.6817C100.482 82.3524 102.636 80.2043 103.97 77.5504C105.383 74.7387 105.789 71.5291 105.122 68.4548C104.454 65.3804 102.753 62.6271 100.302 60.6518L99.6742 61.4305L100.302 60.6517C97.8499 58.6766 94.7953 57.5984 91.645 57.5961H91.6443H90.9304H90.9025L90.8747 57.5976C87.8307 57.7674 84.9284 58.9388 82.6213 60.9291L82.6213 60.9291C80.3143 62.9195 78.7323 65.6167 78.1229 68.5999C77.5133 71.5829 77.9109 74.6834 79.2532 77.417C80.4834 79.9224 82.4438 81.9902 84.8679 83.3543L73.1006 147.967L73.0998 147.972L72.7372 150.019L72.7366 150.022L70.5954 161.871L70.5952 161.872L63.1155 203.492H1.19689Z" stroke="#841819" stroke-width="2"/>
<g filter="url(#filter1_i)">
<path fill-rule="evenodd" clip-rule="evenodd" d="M233.175 52.5724L221.778 118.832C219.962 117.844 220.3 117.294 215.653 117.294C212.182 117.708 208.914 119.142 206.262 121.415C203.61 123.688 201.695 126.697 200.761 130.059L186.984 205.795H123.032L136.809 128.284C143.998 88.2401 185.343 46.9591 233.175 52.5724Z" fill="#841819"/>
</g>
<path d="M232.01 53.4499L221.043 117.205C220.779 117.043 220.485 116.885 220.116 116.752C219.213 116.426 217.978 116.294 215.653 116.294H215.594L215.535 116.301C211.868 116.738 208.413 118.254 205.611 120.656C202.809 123.058 200.785 126.238 199.798 129.791L199.785 129.835L199.777 129.88L186.149 204.795H124.225L137.793 128.46C141.343 108.69 153.342 88.5588 170.399 74.0688C187.193 59.8007 208.82 51.0597 232.01 53.4499Z" stroke="#841819" stroke-width="2"/>
<g filter="url(#filter2_i)">
<path fill-rule="evenodd" clip-rule="evenodd" d="M915.016 51.2474L903.631 117.507C901.815 116.507 902.165 115.957 897.506 115.957C894.032 116.362 890.759 117.796 888.107 120.072C885.456 122.349 883.547 125.366 882.627 128.734L868.849 204.47H804.86L818.7 126.959C825.839 86.9151 867.221 45.6341 915.016 51.2474Z" fill="#192D52"/>
</g>
<path d="M913.85 52.1249L902.897 115.871C902.635 115.709 902.343 115.55 901.976 115.417C901.073 115.088 899.836 114.957 897.506 114.957H897.448L897.39 114.964C893.718 115.392 890.259 116.907 887.456 119.314L888.107 120.072L887.456 119.314C884.653 121.721 882.635 124.909 881.662 128.47L881.65 128.512L881.643 128.555L868.015 203.47H806.054L819.684 127.134L819.684 127.134C823.209 107.365 835.205 87.2339 852.259 72.7438C869.053 58.4758 890.679 49.7349 913.85 52.1249Z" stroke="#192D52" stroke-width="2"/>
<g filter="url(#filter3_i)">
<path fill-rule="evenodd" clip-rule="evenodd" d="M989.013 143.586H1012.37C1018.46 143.586 1020.66 134.835 1014.59 127.821C1009.18 122.087 1005.41 115.007 1003.67 107.32C1001.94 99.6336 1002.31 91.6238 1004.74 84.1287C1007.18 76.6338 1011.58 69.9292 1017.5 64.7164C1023.42 59.5036 1030.63 55.9744 1038.39 54.4979C1043.08 53.2996 1047.83 52.3481 1052.63 51.6475C1057.02 51.0002 1061.46 50.6742 1065.9 50.6724H1096L1085.62 110.056H1061.32C1057.32 110.056 1052.28 116.207 1060.24 123.746C1079.82 142.236 1085.37 188.505 1047.34 199.457C1036.03 202.765 1024.31 204.447 1012.52 204.457H978.354L989.013 143.586Z" fill="#192D52"/>
</g>
<path d="M1012.52 203.457H979.544L989.853 144.586H1012.37C1016.01 144.586 1018.41 141.928 1019.02 138.511C1019.64 135.108 1018.55 130.868 1015.34 127.167L1015.33 127.15L1015.32 127.135C1010.03 121.531 1006.34 114.612 1004.65 107.1L1004.65 107.1C1002.96 99.589 1003.32 91.7618 1005.7 84.4374C1008.07 77.1133 1012.38 70.5612 1018.16 65.4669L1018.16 65.4668C1023.95 60.3725 1031 56.9233 1038.57 55.4803L1038.6 55.4745L1038.63 55.4668C1043.29 54.2772 1048.01 53.3325 1052.77 52.637L1052.77 52.6368C1057.12 51.9966 1061.51 51.6742 1065.9 51.6724C1065.9 51.6724 1065.9 51.6724 1065.9 51.6724L1094.81 51.6724L1084.78 109.056H1061.32C1058.86 109.056 1056.23 110.905 1055.34 113.779C1054.42 116.743 1055.4 120.54 1059.55 124.472L1059.55 124.473C1069.11 133.498 1075.3 149.391 1074.39 164.368C1073.5 179.264 1065.61 193.156 1047.06 198.496L1047.06 198.497C1035.84 201.778 1024.21 203.448 1012.52 203.457Z" stroke="#192D52" stroke-width="2"/>
<g filter="url(#filter4_i)">
<path fill-rule="evenodd" clip-rule="evenodd" d="M293.846 60.1984C295.624 60.0109 297.353 59.9109 299.081 59.8484L287.007 125.396C284.348 126.593 282.178 128.659 280.852 131.253C279.526 133.846 279.125 136.812 279.714 139.664C280.304 142.516 281.848 145.082 284.094 146.94C286.338 148.798 289.151 149.838 292.067 149.888C294.984 149.938 297.831 148.995 300.138 147.215C302.447 145.434 304.079 142.922 304.765 140.093C305.451 137.262 305.153 134.284 303.917 131.646C302.681 129.01 300.583 126.871 297.966 125.583L309.827 60.411C325.749 62.7833 340.252 70.8884 350.6 83.1977C360.948 95.507 366.426 111.17 366.001 127.233C366.242 147.118 359.224 166.409 346.257 181.506C333.29 196.602 315.261 206.471 295.537 209.27C286.247 210.235 276.86 209.204 268.002 206.245C259.146 203.287 251.027 198.469 244.191 192.118C237.355 185.766 231.962 178.026 228.372 169.419C224.782 160.813 223.08 151.541 223.381 142.223C223.148 122.342 230.171 103.056 243.136 87.9635C256.102 72.8705 274.127 63.0017 293.846 60.1984Z" fill="#841819"/>
</g>
<path d="M278.735 139.866L278.735 139.866C279.371 142.941 281.035 145.708 283.456 147.71C285.876 149.713 288.908 150.834 292.05 150.888C295.194 150.942 298.262 149.926 300.749 148.007L300.749 148.007C303.237 146.087 304.997 143.379 305.737 140.328L305.737 140.328C306.477 137.277 306.155 134.066 304.822 131.222L304.822 131.222C303.598 128.61 301.588 126.451 299.082 125.041L310.637 61.5499C325.941 64.0634 339.851 71.9658 349.834 83.8412C360.025 95.9635 365.42 111.388 365.002 127.207L365.001 127.226L365.002 127.245C365.239 146.886 358.307 165.942 345.499 180.855C332.694 195.762 314.892 205.509 295.415 208.278C286.273 209.225 277.035 208.208 268.319 205.296L268.002 206.245L268.319 205.296C259.598 202.384 251.603 197.639 244.872 191.385C238.14 185.13 232.83 177.509 229.295 169.035C225.76 160.56 224.084 151.43 224.38 142.255L224.381 142.233L224.381 142.211C224.151 122.574 231.087 103.524 243.895 88.6151C256.698 73.711 274.496 63.9636 293.969 61.191C295.287 61.0525 296.579 60.9624 297.871 60.9001L286.116 124.711C283.47 126.028 281.31 128.158 279.962 130.797C278.532 133.593 278.1 136.792 278.735 139.866Z" stroke="#841819" stroke-width="2"/>
<g filter="url(#filter5_i)">
<path fill-rule="evenodd" clip-rule="evenodd" d="M592.939 204.495H528.949L553.811 66.9746C556.778 49.9934 565.071 34.3914 577.495 22.4178C589.918 10.4443 605.83 2.71787 622.936 0.352446C632.223 -0.614929 641.61 0.41471 650.466 3.37205C659.321 6.3294 667.439 11.1458 674.273 17.4972C681.108 23.8486 686.5 31.5875 690.085 40.1931C693.673 48.7989 695.371 58.0716 695.067 67.3872C695.122 71.6463 694.829 75.9027 694.19 80.1141C693.213 80.9059 692.236 81.7393 691.259 82.6144C688.754 84.8148 686.374 87.0776 684.057 89.4654C681.262 92.4674 678.651 95.6362 676.242 98.9543C674.851 101.005 673.561 103.042 672.334 105.205C671.106 107.368 670.092 109.581 669.077 111.881C668.063 114.182 667.362 116.582 666.572 119.032C665.783 121.483 665.408 124.033 664.969 126.646C664.706 128.609 664.506 130.547 664.368 132.484C653.067 141.923 639.232 147.832 624.589 149.474C620.919 149.856 617.226 149.952 613.542 149.762L625.817 83.102C628.459 81.9021 630.615 79.84 631.928 77.2551C633.24 74.6703 633.633 71.7163 633.041 68.8792C632.449 66.042 630.907 63.4905 628.669 61.6442C626.43 59.798 623.63 58.7668 620.727 58.7204C617.823 58.6741 614.99 59.6152 612.694 61.3891C610.399 63.163 608.775 65.664 608.093 68.4807C607.41 71.2975 607.707 74.2625 608.937 76.888C610.167 79.5135 612.255 81.6433 614.857 82.927L602.996 148.274L601.857 154.525L600.479 162.176L592.939 204.495Z" fill="#192D52"/>
</g>
<path d="M530.146 203.495L554.795 67.1525L554.796 67.1468C557.727 50.3746 565.918 34.9644 578.188 23.1378C590.455 11.3152 606.166 3.68451 623.056 1.34533C632.196 0.395694 641.434 1.41016 650.149 4.32056C658.869 7.23274 666.863 11.9756 673.592 18.2297L674.273 17.4972L673.592 18.2297C680.322 24.4839 685.632 32.1042 689.162 40.5777L689.162 40.5779C692.694 49.0516 694.367 58.182 694.067 67.3546L694.066 67.3773L694.067 67.4001C694.119 71.4765 693.849 75.5503 693.258 79.5835C692.37 80.3111 691.482 81.072 690.595 81.8664C688.072 84.0831 685.674 86.3631 683.34 88.769L683.332 88.7764L683.325 88.7839C680.502 91.8155 677.866 95.0157 675.433 98.3667L675.423 98.3797L675.414 98.3931C674.012 100.461 672.707 102.521 671.464 104.712C670.21 106.921 669.179 109.172 668.163 111.478C667.299 113.436 666.654 115.47 666.016 117.484C665.885 117.899 665.753 118.313 665.621 118.726C664.893 120.985 664.506 123.326 664.124 125.634C664.077 125.916 664.03 126.199 663.983 126.481L663.98 126.497L663.978 126.513C663.732 128.352 663.54 130.17 663.402 131.987C652.313 141.142 638.789 146.874 624.483 148.48C621.244 148.816 617.986 148.928 614.734 148.813L626.708 83.7845C629.339 82.4659 631.484 80.3381 632.819 77.7079C634.235 74.9205 634.659 71.7348 634.02 68.6748C633.381 65.615 631.718 62.8636 629.305 60.8728C626.892 58.8822 623.872 57.7706 620.743 57.7206C617.613 57.6706 614.558 58.6851 612.083 60.5978C609.608 62.5104 607.857 65.2073 607.121 68.2452C606.385 71.2828 606.705 74.4805 608.031 77.3122C609.25 79.9135 611.25 82.0634 613.743 83.4688L602.013 148.095L602.012 148.096L600.873 154.346L600.872 154.348L599.495 161.999L599.494 162.001L592.101 203.495H530.146Z" stroke="#192D52" stroke-width="2"/>
<g filter="url(#filter6_i)">
<path fill-rule="evenodd" clip-rule="evenodd" d="M517.765 204.495H453.776L479.251 67.2871H542.94L517.765 204.495Z" fill="#841819"/>
</g>
<path d="M541.74 68.2871L516.932 203.495H454.978L480.083 68.2871H541.74Z" stroke="#841819" stroke-width="2"/>
<g filter="url(#filter7_i)">
<path fill-rule="evenodd" clip-rule="evenodd" d="M455.216 150.087L466.376 87.2152L443.643 87.4403L445.209 78.939C446.13 75.5692 448.04 72.5516 450.694 70.2746C453.348 67.9976 456.625 66.5653 460.101 66.1622C463.008 65.903 465.93 66.4389 468.555 67.7124L479.953 1.45275C479.201 1.36523 476.12 1.29022 475.368 1.22771C428.5 -2.86038 388.383 37.7705 381.307 77.1638L358.173 205.808H422.163L432.27 150.225L455.216 150.087Z" fill="#841819"/>
</g>
<path d="M467.786 66.2842C465.322 65.3155 462.661 64.9299 460.012 65.1661L459.999 65.1673L459.985 65.1688C456.312 65.5949 452.849 67.1087 450.043 69.5157C447.238 71.9226 445.219 75.1126 444.244 78.6752L444.233 78.7161L444.225 78.7579L442.66 87.2592L442.44 88.4522L443.653 88.4402L465.18 88.2271L454.377 149.092L432.264 149.225L431.435 149.23L431.287 150.046L421.328 204.808H359.369L382.291 77.3408L382.291 77.3406C385.785 57.8918 397.453 38.0828 414.072 23.6451C430.683 9.21388 452.171 0.208057 475.282 2.22394L475.286 2.22427C475.634 2.25322 476.418 2.28353 477.227 2.31478C477.358 2.31986 477.49 2.32496 477.621 2.33009C478.033 2.34619 478.431 2.36247 478.779 2.37874L467.786 66.2842Z" stroke="#841819" stroke-width="2"/>
<g filter="url(#filter8_i)">
<path fill-rule="evenodd" clip-rule="evenodd" d="M989.313 112.081L1000.46 49.2096L985.43 49.3595L993.872 5.50317H931.924L910.344 117.72C905.334 145.686 905.584 165.714 917.082 181.292C922.636 188.801 929.862 194.919 938.193 199.16C946.522 203.402 955.726 205.653 965.077 205.733C966.004 205.733 970.864 205.795 971.816 205.808L983.088 142.761C982.562 142.761 978.078 142.861 977.59 142.861C963.812 142.861 970.075 130.722 972.279 118.432L973.532 112.181L989.313 112.081Z" fill="#192D52"/>
</g>
<path d="M965.082 204.733C965.859 204.733 969.258 204.775 970.981 204.797L981.89 143.78C981.431 143.789 980.89 143.8 980.345 143.811L980.249 143.813C979.043 143.837 977.841 143.861 977.59 143.861C974.028 143.861 971.515 143.081 969.927 141.475C968.332 139.864 967.879 137.631 967.942 135.229C968.004 132.827 968.588 130.063 969.269 127.202C969.426 126.541 969.589 125.874 969.752 125.202C970.307 122.929 970.875 120.599 971.295 118.256L971.297 118.246L971.299 118.236L972.551 111.985L972.711 111.186L973.525 111.181L988.474 111.087L999.265 50.2216L985.44 50.3594L984.217 50.3716L984.448 49.1705L992.661 6.50317H932.75L911.328 117.896L910.344 117.72M965.082 204.733C965.084 204.733 965.085 204.733 965.086 204.733L965.077 205.733V204.733C965.079 204.733 965.081 204.733 965.082 204.733ZM965.082 204.733C955.887 204.653 946.837 202.44 938.647 198.269C930.454 194.098 923.347 188.082 917.886 180.697M917.886 180.697C906.657 165.483 906.323 145.838 911.327 117.902L911.326 117.908L910.344 117.72M917.886 180.697L917.082 181.292M917.886 180.697C917.886 180.697 917.886 180.697 917.887 180.698L917.082 181.292M910.344 117.72L931.924 5.50317L917.082 181.292M910.344 117.72C905.334 145.686 905.584 165.714 917.082 181.292" stroke="#192D52" stroke-width="2"/>
<g filter="url(#filter9_i)">
<path fill-rule="evenodd" clip-rule="evenodd" d="M811.686 122.458C811.762 127.534 811.343 132.603 810.433 137.597L798.071 204.495H741.196C701.73 204.495 669.529 178.503 669.078 137.447C669.369 125.691 672.633 114.199 678.565 104.038C684.497 93.8768 692.905 85.3766 703.007 79.3265L728.295 127.158C726.958 129.736 726.538 132.691 727.105 135.537C727.674 138.385 729.194 140.954 731.419 142.824C733.643 144.694 736.439 145.752 739.346 145.826C742.253 145.9 745.099 144.985 747.416 143.231C749.733 141.477 751.383 138.988 752.095 136.174C752.808 133.359 752.54 130.386 751.335 127.745C750.13 125.102 748.061 122.948 745.468 121.635C742.874 120.322 739.909 119.929 737.063 120.52L700.841 52.5476L701.129 52.4474C757.528 37.1327 810.959 59.8235 811.686 122.458Z" fill="#192D52"/>
</g>
<path d="M810.686 122.473L810.686 122.469C810.326 91.4721 796.95 70.4873 776.792 59.0922C756.803 47.7924 730.002 45.8452 702.304 53.1677L737.603 119.408C740.44 118.978 743.349 119.441 745.92 120.743L745.92 120.743C748.715 122.158 750.945 124.48 752.245 127.33C753.544 130.179 753.833 133.384 753.064 136.419C752.297 139.454 750.517 142.137 748.019 144.028C745.521 145.919 742.454 146.905 739.32 146.826C736.187 146.746 733.174 145.605 730.776 143.59L730.775 143.59C728.377 141.574 726.738 138.804 726.125 135.733L726.125 135.733C725.547 132.837 725.917 129.838 727.172 127.174L702.62 80.7334C693.063 86.6576 685.098 94.8303 679.429 104.542C673.585 114.552 670.368 125.873 670.078 137.454C670.531 177.858 702.184 203.495 741.196 203.495H797.239L809.449 137.418L810.686 122.473ZM810.686 122.473C810.761 127.483 810.347 132.486 809.45 137.416L810.433 137.597C811.343 132.603 811.762 127.534 811.686 122.458L810.686 122.473Z" stroke="#192D52" stroke-width="2"/>
<mask id="path-21-inside-1" fill="white">
<path fill-rule="evenodd" clip-rule="evenodd" d="M608.647 302.79L621.078 235.963H597.173L584.454 304.43C584.132 306.174 583.549 307.862 582.725 309.441C581.68 311.392 580.266 313.131 578.559 314.568C576.337 316.328 573.776 317.635 571.028 318.413C567.205 319.533 563.229 320.065 559.239 319.99C555.393 320.111 551.555 319.577 547.895 318.413C545.586 317.721 543.533 316.384 541.988 314.568C540.823 313.084 540.115 311.305 539.944 309.441C539.752 307.77 539.826 306.08 540.167 304.43L552.886 236.015H528.954L516.511 302.841C515.634 307.255 515.959 311.816 517.454 316.068C519.018 320.156 521.651 323.772 525.09 326.552C529.06 329.716 533.646 332.058 538.569 333.434C544.559 335.164 550.781 335.999 557.025 335.908C563.654 335.976 570.264 335.17 576.673 333.511C582.2 332.083 587.451 329.785 592.221 326.705C596.493 323.932 600.179 320.382 603.08 316.247C605.851 312.201 607.733 307.636 608.608 302.841L608.647 302.79ZM645.638 332.819L651.624 300.662H660.374L676.617 332.819H702.081L680.337 291.895L713.66 260.853H688.956L660.361 288.371H653.917L663.649 236.028H641.25L623.305 332.819H645.638ZM771.766 277.707C769.266 277.436 766.751 277.302 764.234 277.31C762.04 277.295 759.849 277.466 757.685 277.823C755.415 278.197 753.209 278.883 751.136 279.861C749.031 280.888 747.177 282.35 745.7 284.141C744.073 286.275 742.986 288.758 742.53 291.383L734.815 332.857H712.704L726.091 260.828H748.267L745.647 274.785C746.387 273.478 747.228 272.226 748.162 271.043C749.227 269.765 750.466 268.634 751.843 267.685C753.927 266.225 756.116 264.914 758.392 263.763C759.637 263.071 760.933 262.481 762.322 261.802C763.796 261.157 765.325 260.642 766.893 260.264C768.608 259.851 770.367 259.644 772.133 259.649C772.572 259.641 773.009 259.67 773.443 259.738C773.943 259.77 774.442 259.831 774.936 259.918L771.648 277.707H771.766ZM848.184 332.819L848.656 330.256C847.41 329.198 846.417 327.886 845.748 326.411C845.119 324.942 844.92 323.331 845.172 321.758L852.494 282.424C853.646 277.938 852.956 273.189 850.568 269.197C847.917 265.555 844.032 262.949 839.605 261.84C833.546 260.179 827.267 259.419 820.978 259.585C818.191 259.567 815.406 259.703 812.634 259.995C809.318 260.339 806.039 260.97 802.836 261.879C799.439 262.817 796.193 264.219 793.196 266.044C790.069 267.93 787.364 270.415 785.245 273.35C782.863 276.751 781.259 280.615 780.542 284.68H801.5C801.866 283.188 802.383 281.737 803.046 280.348C803.797 278.788 804.816 277.365 806.059 276.144C807.574 274.716 809.383 273.62 811.364 272.927C814.036 272.033 816.846 271.6 819.668 271.645C822.241 271.557 824.806 271.971 827.213 272.863C828.853 273.436 830.242 274.545 831.143 276.003C831.828 277.37 832.026 278.921 831.706 280.412C831.383 282.046 830.608 283.562 829.466 284.795C828.167 286.128 826.524 287.093 824.711 287.589C820.402 288.717 816.184 289.665 812.123 290.46C808.063 291.255 804.159 292.024 800.505 292.78C797.045 293.481 793.633 294.388 790.288 295.497C787.325 296.458 784.502 297.795 781.891 299.47C779.428 301.095 777.336 303.202 775.748 305.661C773.951 308.502 772.75 311.665 772.211 314.965C771.276 318.9 771.714 323.03 773.456 326.693C775.173 329.812 777.954 332.244 781.315 333.562C785.406 335.148 789.78 335.91 794.178 335.805C797.876 335.803 801.561 335.373 805.155 334.524C808.101 333.83 810.964 332.834 813.695 331.55C815.819 330.577 817.859 329.442 819.799 328.154C821.437 327.039 822.655 326.193 823.493 325.59V325.911C823.48 326.024 823.459 326.135 823.428 326.244C823.211 327.418 823.211 328.62 823.428 329.794C823.616 330.847 824.003 331.854 824.567 332.768L848.184 332.819ZM827.252 304.43C826.651 308.189 825.123 311.748 822.799 314.799C820.711 317.333 817.964 319.272 814.848 320.412C811.489 321.597 807.938 322.166 804.369 322.091C802.539 322.156 800.72 321.804 799.051 321.066C797.854 320.493 796.842 319.605 796.13 318.503C795.527 317.501 795.161 316.38 795.056 315.222C794.925 314.154 794.96 313.074 795.161 312.018C795.478 310.626 796.153 309.338 797.125 308.275C798.295 306.925 799.695 305.785 801.265 304.904C803.018 303.892 804.944 303.197 806.949 302.854C808.927 302.495 811.115 302.097 813.499 301.636C815.883 301.175 818.385 300.585 820.965 299.944C823.514 299.312 826.029 298.551 828.497 297.663L827.187 304.443L827.252 304.43ZM901.234 252.612L904.326 235.951H881.94L878.862 252.612H901.234ZM886.302 332.87L899.689 260.841H877.421L863.929 332.819L886.302 332.87ZM984.647 332.87L993.62 284.628C994.846 279.771 994.314 274.649 992.114 270.133C989.879 266.321 986.274 263.462 982.001 262.109C976.516 260.324 970.752 259.495 964.973 259.662C962.03 259.676 959.109 260.164 956.328 261.11C953.408 262.097 950.647 263.486 948.128 265.237C945.498 267.073 943.148 269.265 941.146 271.748L943.164 260.841H921.066L907.666 332.87H929.816L938.474 286.359C938.752 284.99 939.294 283.684 940.072 282.514C941.057 280.991 942.317 279.657 943.792 278.579C945.695 277.219 947.828 276.195 950.093 275.554C953.115 274.701 956.248 274.29 959.393 274.337C961.979 274.231 964.559 274.642 966.977 275.541C968.516 276.1 969.775 277.222 970.488 278.669C971.133 280.066 971.412 281.598 971.3 283.129C971.166 284.85 970.93 286.561 970.592 288.255L962.288 332.909L984.647 332.87ZM1087.01 297.791C1087.52 295.276 1087.8 292.726 1087.87 290.165C1087.98 287.489 1087.74 284.809 1087.16 282.193C1086.49 279.275 1085.39 276.468 1083.88 273.862C1082.77 271.942 1081.4 270.179 1079.8 268.62C1077.95 266.831 1075.86 265.297 1073.59 264.058C1070.86 262.626 1067.95 261.557 1064.93 260.879C1061.24 260.004 1057.46 259.573 1053.66 259.597C1048.17 259.549 1042.7 260.314 1037.44 261.866C1032.37 263.4 1027.64 265.833 1023.47 269.043C1019.1 272.488 1015.47 276.744 1012.78 281.565C1009.61 287.267 1007.43 293.449 1006.34 299.855C1005.29 304.935 1005.34 310.173 1006.48 315.235C1007.52 319.467 1009.68 323.356 1012.74 326.513C1015.89 329.683 1019.75 332.076 1024.02 333.498C1028.93 335.135 1034.1 335.933 1039.28 335.857C1045.81 335.914 1052.29 334.913 1058.48 332.896C1063.97 331.13 1069.06 328.369 1073.5 324.757C1077.59 321.41 1080.86 317.216 1083.1 312.479H1061.1C1060.44 313.745 1059.56 314.887 1058.48 315.85C1057.14 317.042 1055.67 318.086 1054.1 318.964C1052.41 319.938 1050.62 320.716 1048.75 321.284C1046.89 321.862 1044.95 322.159 1043 322.168C1040.36 322.24 1037.74 321.724 1035.34 320.656C1033.39 319.782 1031.68 318.464 1030.35 316.811C1029.15 315.242 1028.3 313.436 1027.89 311.518C1027.46 309.67 1027.42 307.756 1027.77 305.891C1027.77 305.507 1027.9 305.058 1028 304.469C1028.11 303.879 1028.15 303.341 1028.25 302.777C1028.33 302.3 1028.45 301.832 1028.62 301.38H1086.16C1086.23 300.945 1086.33 300.517 1086.46 300.098C1086.56 299.752 1086.61 299.406 1086.7 299.073C1086.79 298.74 1086.92 298.291 1087.01 297.791ZM1065.09 290.216H1030.68C1031.04 288.334 1031.69 286.515 1032.6 284.821C1033.6 282.847 1034.93 281.05 1036.53 279.502C1038.34 277.775 1040.47 276.408 1042.81 275.477C1045.58 274.369 1048.56 273.819 1051.56 273.862C1053.88 273.823 1056.19 274.223 1058.35 275.042C1059.98 275.694 1061.42 276.728 1062.55 278.053C1063.54 279.25 1064.27 280.632 1064.69 282.116C1065.12 283.518 1065.34 284.973 1065.35 286.436C1065.37 287.684 1065.28 288.932 1065.07 290.165L1065.09 290.216Z"/>
</mask>
<g filter="url(#filter10_i)">
<path fill-rule="evenodd" clip-rule="evenodd" d="M608.647 302.79L621.078 235.963H597.173L584.454 304.43C584.132 306.174 583.549 307.862 582.725 309.441C581.68 311.392 580.266 313.131 578.559 314.568C576.337 316.328 573.776 317.635 571.028 318.413C567.205 319.533 563.229 320.065 559.239 319.99C555.393 320.111 551.555 319.577 547.895 318.413C545.586 317.721 543.533 316.384 541.988 314.568C540.823 313.084 540.115 311.305 539.944 309.441C539.752 307.77 539.826 306.08 540.167 304.43L552.886 236.015H528.954L516.511 302.841C515.634 307.255 515.959 311.816 517.454 316.068C519.018 320.156 521.651 323.772 525.09 326.552C529.06 329.716 533.646 332.058 538.569 333.434C544.559 335.164 550.781 335.999 557.025 335.908C563.654 335.976 570.264 335.17 576.673 333.511C582.2 332.083 587.451 329.785 592.221 326.705C596.493 323.932 600.179 320.382 603.08 316.247C605.851 312.201 607.733 307.636 608.608 302.841L608.647 302.79ZM645.638 332.819L651.624 300.662H660.374L676.617 332.819H702.081L680.337 291.895L713.66 260.853H688.956L660.361 288.371H653.917L663.649 236.028H641.25L623.305 332.819H645.638ZM771.766 277.707C769.266 277.436 766.751 277.302 764.234 277.31C762.04 277.295 759.849 277.466 757.685 277.823C755.415 278.197 753.209 278.883 751.136 279.861C749.031 280.888 747.177 282.35 745.7 284.141C744.073 286.275 742.986 288.758 742.53 291.383L734.815 332.857H712.704L726.091 260.828H748.267L745.647 274.785C746.387 273.478 747.228 272.226 748.162 271.043C749.227 269.765 750.466 268.634 751.843 267.685C753.927 266.225 756.116 264.914 758.392 263.763C759.637 263.071 760.933 262.481 762.322 261.802C763.796 261.157 765.325 260.642 766.893 260.264C768.608 259.851 770.367 259.644 772.133 259.649C772.572 259.641 773.009 259.67 773.443 259.738C773.943 259.77 774.442 259.831 774.936 259.918L771.648 277.707H771.766ZM848.184 332.819L848.656 330.256C847.41 329.198 846.417 327.886 845.748 326.411C845.119 324.942 844.92 323.331 845.172 321.758L852.494 282.424C853.646 277.938 852.956 273.189 850.568 269.197C847.917 265.555 844.032 262.949 839.605 261.84C833.546 260.179 827.267 259.419 820.978 259.585C818.191 259.567 815.406 259.703 812.634 259.995C809.318 260.339 806.039 260.97 802.836 261.879C799.439 262.817 796.193 264.219 793.196 266.044C790.069 267.93 787.364 270.415 785.245 273.35C782.863 276.751 781.259 280.615 780.542 284.68H801.5C801.866 283.188 802.383 281.737 803.046 280.348C803.797 278.788 804.816 277.365 806.059 276.144C807.574 274.716 809.383 273.62 811.364 272.927C814.036 272.033 816.846 271.6 819.668 271.645C822.241 271.557 824.806 271.971 827.213 272.863C828.853 273.436 830.242 274.545 831.143 276.003C831.828 277.37 832.026 278.921 831.706 280.412C831.383 282.046 830.608 283.562 829.466 284.795C828.167 286.128 826.524 287.093 824.711 287.589C820.402 288.717 816.184 289.665 812.123 290.46C808.063 291.255 804.159 292.024 800.505 292.78C797.045 293.481 793.633 294.388 790.288 295.497C787.325 296.458 784.502 297.795 781.891 299.47C779.428 301.095 777.336 303.202 775.748 305.661C773.951 308.502 772.75 311.665 772.211 314.965C771.276 318.9 771.714 323.03 773.456 326.693C775.173 329.812 777.954 332.244 781.315 333.562C785.406 335.148 789.78 335.91 794.178 335.805C797.876 335.803 801.561 335.373 805.155 334.524C808.101 333.83 810.964 332.834 813.695 331.55C815.819 330.577 817.859 329.442 819.799 328.154C821.437 327.039 822.655 326.193 823.493 325.59V325.911C823.48 326.024 823.459 326.135 823.428 326.244C823.211 327.418 823.211 328.62 823.428 329.794C823.616 330.847 824.003 331.854 824.567 332.768L848.184 332.819ZM827.252 304.43C826.651 308.189 825.123 311.748 822.799 314.799C820.711 317.333 817.964 319.272 814.848 320.412C811.489 321.597 807.938 322.166 804.369 322.091C802.539 322.156 800.72 321.804 799.051 321.066C797.854 320.493 796.842 319.605 796.13 318.503C795.527 317.501 795.161 316.38 795.056 315.222C794.925 314.154 794.96 313.074 795.161 312.018C795.478 310.626 796.153 309.338 797.125 308.275C798.295 306.925 799.695 305.785 801.265 304.904C803.018 303.892 804.944 303.197 806.949 302.854C808.927 302.495 811.115 302.097 813.499 301.636C815.883 301.175 818.385 300.585 820.965 299.944C823.514 299.312 826.029 298.551 828.497 297.663L827.187 304.443L827.252 304.43ZM901.234 252.612L904.326 235.951H881.94L878.862 252.612H901.234ZM886.302 332.87L899.689 260.841H877.421L863.929 332.819L886.302 332.87ZM984.647 332.87L993.62 284.628C994.846 279.771 994.314 274.649 992.114 270.133C989.879 266.321 986.274 263.462 982.001 262.109C976.516 260.324 970.752 259.495 964.973 259.662C962.03 259.676 959.109 260.164 956.328 261.11C953.408 262.097 950.647 263.486 948.128 265.237C945.498 267.073 943.148 269.265 941.146 271.748L943.164 260.841H921.066L907.666 332.87H929.816L938.474 286.359C938.752 284.99 939.294 283.684 940.072 282.514C941.057 280.991 942.317 279.657 943.792 278.579C945.695 277.219 947.828 276.195 950.093 275.554C953.115 274.701 956.248 274.29 959.393 274.337C961.979 274.231 964.559 274.642 966.977 275.541C968.516 276.1 969.775 277.222 970.488 278.669C971.133 280.066 971.412 281.598 971.3 283.129C971.166 284.85 970.93 286.561 970.592 288.255L962.288 332.909L984.647 332.87ZM1087.01 297.791C1087.52 295.276 1087.8 292.726 1087.87 290.165C1087.98 287.489 1087.74 284.809 1087.16 282.193C1086.49 279.275 1085.39 276.468 1083.88 273.862C1082.77 271.942 1081.4 270.179 1079.8 268.62C1077.95 266.831 1075.86 265.297 1073.59 264.058C1070.86 262.626 1067.95 261.557 1064.93 260.879C1061.24 260.004 1057.46 259.573 1053.66 259.597C1048.17 259.549 1042.7 260.314 1037.44 261.866C1032.37 263.4 1027.64 265.833 1023.47 269.043C1019.1 272.488 1015.47 276.744 1012.78 281.565C1009.61 287.267 1007.43 293.449 1006.34 299.855C1005.29 304.935 1005.34 310.173 1006.48 315.235C1007.52 319.467 1009.68 323.356 1012.74 326.513C1015.89 329.683 1019.75 332.076 1024.02 333.498C1028.93 335.135 1034.1 335.933 1039.28 335.857C1045.81 335.914 1052.29 334.913 1058.48 332.896C1063.97 331.13 1069.06 328.369 1073.5 324.757C1077.59 321.41 1080.86 317.216 1083.1 312.479H1061.1C1060.44 313.745 1059.56 314.887 1058.48 315.85C1057.14 317.042 1055.67 318.086 1054.1 318.964C1052.41 319.938 1050.62 320.716 1048.75 321.284C1046.89 321.862 1044.95 322.159 1043 322.168C1040.36 322.24 1037.74 321.724 1035.34 320.656C1033.39 319.782 1031.68 318.464 1030.35 316.811C1029.15 315.242 1028.3 313.436 1027.89 311.518C1027.46 309.67 1027.42 307.756 1027.77 305.891C1027.77 305.507 1027.9 305.058 1028 304.469C1028.11 303.879 1028.15 303.341 1028.25 302.777C1028.33 302.3 1028.45 301.832 1028.62 301.38H1086.16C1086.23 300.945 1086.33 300.517 1086.46 300.098C1086.56 299.752 1086.61 299.406 1086.7 299.073C1086.79 298.74 1086.92 298.291 1087.01 297.791ZM1065.09 290.216H1030.68C1031.04 288.334 1031.69 286.515 1032.6 284.821C1033.6 282.847 1034.93 281.05 1036.53 279.502C1038.34 277.775 1040.47 276.408 1042.81 275.477C1045.58 274.369 1048.56 273.819 1051.56 273.862C1053.88 273.823 1056.19 274.223 1058.35 275.042C1059.98 275.694 1061.42 276.728 1062.55 278.053C1063.54 279.25 1064.27 280.632 1064.69 282.116C1065.12 283.518 1065.34 284.973 1065.35 286.436C1065.37 287.684 1065.28 288.932 1065.07 290.165L1065.09 290.216Z" fill="#841819"/>
</g>
<path fill-rule="evenodd" clip-rule="evenodd" d="M608.647 302.79L621.078 235.963H597.173L584.454 304.43C584.132 306.174 583.549 307.862 582.725 309.441C581.68 311.392 580.266 313.131 578.559 314.568C576.337 316.328 573.776 317.635 571.028 318.413C567.205 319.533 563.229 320.065 559.239 319.99C555.393 320.111 551.555 319.577 547.895 318.413C545.586 317.721 543.533 316.384 541.988 314.568C540.823 313.084 540.115 311.305 539.944 309.441C539.752 307.77 539.826 306.08 540.167 304.43L552.886 236.015H528.954L516.511 302.841C515.634 307.255 515.959 311.816 517.454 316.068C519.018 320.156 521.651 323.772 525.09 326.552C529.06 329.716 533.646 332.058 538.569 333.434C544.559 335.164 550.781 335.999 557.025 335.908C563.654 335.976 570.264 335.17 576.673 333.511C582.2 332.083 587.451 329.785 592.221 326.705C596.493 323.932 600.179 320.382 603.08 316.247C605.851 312.201 607.733 307.636 608.608 302.841L608.647 302.79ZM645.638 332.819L651.624 300.662H660.374L676.617 332.819H702.081L680.337 291.895L713.66 260.853H688.956L660.361 288.371H653.917L663.649 236.028H641.25L623.305 332.819H645.638ZM771.766 277.707C769.266 277.436 766.751 277.302 764.234 277.31C762.04 277.295 759.849 277.466 757.685 277.823C755.415 278.197 753.209 278.883 751.136 279.861C749.031 280.888 747.177 282.35 745.7 284.141C744.073 286.275 742.986 288.758 742.53 291.383L734.815 332.857H712.704L726.091 260.828H748.267L745.647 274.785C746.387 273.478 747.228 272.226 748.162 271.043C749.227 269.765 750.466 268.634 751.843 267.685C753.927 266.225 756.116 264.914 758.392 263.763C759.637 263.071 760.933 262.481 762.322 261.802C763.796 261.157 765.325 260.642 766.893 260.264C768.608 259.851 770.367 259.644 772.133 259.649C772.572 259.641 773.009 259.67 773.443 259.738C773.943 259.77 774.442 259.831 774.936 259.918L771.648 277.707H771.766ZM848.184 332.819L848.656 330.256C847.41 329.198 846.417 327.886 845.748 326.411C845.119 324.942 844.92 323.331 845.172 321.758L852.494 282.424C853.646 277.938 852.956 273.189 850.568 269.197C847.917 265.555 844.032 262.949 839.605 261.84C833.546 260.179 827.267 259.419 820.978 259.585C818.191 259.567 815.406 259.703 812.634 259.995C809.318 260.339 806.039 260.97 802.836 261.879C799.439 262.817 796.193 264.219 793.196 266.044C790.069 267.93 787.364 270.415 785.245 273.35C782.863 276.751 781.259 280.615 780.542 284.68H801.5C801.866 283.188 802.383 281.737 803.046 280.348C803.797 278.788 804.816 277.365 806.059 276.144C807.574 274.716 809.383 273.62 811.364 272.927C814.036 272.033 816.846 271.6 819.668 271.645C822.241 271.557 824.806 271.971 827.213 272.863C828.853 273.436 830.242 274.545 831.143 276.003C831.828 277.37 832.026 278.921 831.706 280.412C831.383 282.046 830.608 283.562 829.466 284.795C828.167 286.128 826.524 287.093 824.711 287.589C820.402 288.717 816.184 289.665 812.123 290.46C808.063 291.255 804.159 292.024 800.505 292.78C797.045 293.481 793.633 294.388 790.288 295.497C787.325 296.458 784.502 297.795 781.891 299.47C779.428 301.095 777.336 303.202 775.748 305.661C773.951 308.502 772.75 311.665 772.211 314.965C771.276 318.9 771.714 323.03 773.456 326.693C775.173 329.812 777.954 332.244 781.315 333.562C785.406 335.148 789.78 335.91 794.178 335.805C797.876 335.803 801.561 335.373 805.155 334.524C808.101 333.83 810.964 332.834 813.695 331.55C815.819 330.577 817.859 329.442 819.799 328.154C821.437 327.039 822.655 326.193 823.493 325.59V325.911C823.48 326.024 823.459 326.135 823.428 326.244C823.211 327.418 823.211 328.62 823.428 329.794C823.616 330.847 824.003 331.854 824.567 332.768L848.184 332.819ZM827.252 304.43C826.651 308.189 825.123 311.748 822.799 314.799C820.711 317.333 817.964 319.272 814.848 320.412C811.489 321.597 807.938 322.166 804.369 322.091C802.539 322.156 800.72 321.804 799.051 321.066C797.854 320.493 796.842 319.605 796.13 318.503C795.527 317.501 795.161 316.38 795.056 315.222C794.925 314.154 794.96 313.074 795.161 312.018C795.478 310.626 796.153 309.338 797.125 308.275C798.295 306.925 799.695 305.785 801.265 304.904C803.018 303.892 804.944 303.197 806.949 302.854C808.927 302.495 811.115 302.097 813.499 301.636C815.883 301.175 818.385 300.585 820.965 299.944C823.514 299.312 826.029 298.551 828.497 297.663L827.187 304.443L827.252 304.43ZM901.234 252.612L904.326 235.951H881.94L878.862 252.612H901.234ZM886.302 332.87L899.689 260.841H877.421L863.929 332.819L886.302 332.87ZM984.647 332.87L993.62 284.628C994.846 279.771 994.314 274.649 992.114 270.133C989.879 266.321 986.274 263.462 982.001 262.109C976.516 260.324 970.752 259.495 964.973 259.662C962.03 259.676 959.109 260.164 956.328 261.11C953.408 262.097 950.647 263.486 948.128 265.237C945.498 267.073 943.148 269.265 941.146 271.748L943.164 260.841H921.066L907.666 332.87H929.816L938.474 286.359C938.752 284.99 939.294 283.684 940.072 282.514C941.057 280.991 942.317 279.657 943.792 278.579C945.695 277.219 947.828 276.195 950.093 275.554C953.115 274.701 956.248 274.29 959.393 274.337C961.979 274.231 964.559 274.642 966.977 275.541C968.516 276.1 969.775 277.222 970.488 278.669C971.133 280.066 971.412 281.598 971.3 283.129C971.166 284.85 970.93 286.561 970.592 288.255L962.288 332.909L984.647 332.87ZM1087.01 297.791C1087.52 295.276 1087.8 292.726 1087.87 290.165C1087.98 287.489 1087.74 284.809 1087.16 282.193C1086.49 279.275 1085.39 276.468 1083.88 273.862C1082.77 271.942 1081.4 270.179 1079.8 268.62C1077.95 266.831 1075.86 265.297 1073.59 264.058C1070.86 262.626 1067.95 261.557 1064.93 260.879C1061.24 260.004 1057.46 259.573 1053.66 259.597C1048.17 259.549 1042.7 260.314 1037.44 261.866C1032.37 263.4 1027.64 265.833 1023.47 269.043C1019.1 272.488 1015.47 276.744 1012.78 281.565C1009.61 287.267 1007.43 293.449 1006.34 299.855C1005.29 304.935 1005.34 310.173 1006.48 315.235C1007.52 319.467 1009.68 323.356 1012.74 326.513C1015.89 329.683 1019.75 332.076 1024.02 333.498C1028.93 335.135 1034.1 335.933 1039.28 335.857C1045.81 335.914 1052.29 334.913 1058.48 332.896C1063.97 331.13 1069.06 328.369 1073.5 324.757C1077.59 321.41 1080.86 317.216 1083.1 312.479H1061.1C1060.44 313.745 1059.56 314.887 1058.48 315.85C1057.14 317.042 1055.67 318.086 1054.1 318.964C1052.41 319.938 1050.62 320.716 1048.75 321.284C1046.89 321.862 1044.95 322.159 1043 322.168C1040.36 322.24 1037.74 321.724 1035.34 320.656C1033.39 319.782 1031.68 318.464 1030.35 316.811C1029.15 315.242 1028.3 313.436 1027.89 311.518C1027.46 309.67 1027.42 307.756 1027.77 305.891C1027.77 305.507 1027.9 305.058 1028 304.469C1028.11 303.879 1028.15 303.341 1028.25 302.777C1028.33 302.3 1028.45 301.832 1028.62 301.38H1086.16C1086.23 300.945 1086.33 300.517 1086.46 300.098C1086.56 299.752 1086.61 299.406 1086.7 299.073C1086.79 298.74 1086.92 298.291 1087.01 297.791ZM1065.09 290.216H1030.68C1031.04 288.334 1031.69 286.515 1032.6 284.821C1033.6 282.847 1034.93 281.05 1036.53 279.502C1038.34 277.775 1040.47 276.408 1042.81 275.477C1045.58 274.369 1048.56 273.819 1051.56 273.862C1053.88 273.823 1056.19 274.223 1058.35 275.042C1059.98 275.694 1061.42 276.728 1062.55 278.053C1063.54 279.25 1064.27 280.632 1064.69 282.116C1065.12 283.518 1065.34 284.973 1065.35 286.436C1065.37 287.684 1065.28 288.932 1065.07 290.165L1065.09 290.216Z" stroke="#841819" stroke-width="2" mask="url(#path-21-inside-1)"/>
<defs>
<filter id="filter0_i" x="0" y="0.0227051" width="166.189" height="204.47" filterUnits="userSpaceOnUse" color-interpolation-filters="sRGB">
<feFlood flood-opacity="0" result="BackgroundImageFix"/>
<feBlend mode="normal" in="SourceGraphic" in2="BackgroundImageFix" result="shape"/>
<feColorMatrix in="SourceAlpha" type="matrix" values="0 0 0 0 0 0 0 0 0 0 0 0 0 0 0 0 0 0 127 0" result="hardAlpha"/>
<feOffset/>
<feGaussianBlur stdDeviation="10"/>
<feComposite in2="hardAlpha" operator="arithmetic" k2="-1" k3="1"/>
<feColorMatrix type="matrix" values="0 0 0 0 0 0 0 0 0 0 0 0 0 0 0 0 0 0 0.5 0"/>
<feBlend mode="normal" in2="shape" result="effect1_innerShadow"/>
</filter>
<filter id="filter1_i" x="123.032" y="52.0576" width="110.144" height="153.737" filterUnits="userSpaceOnUse" color-interpolation-filters="sRGB">
<feFlood flood-opacity="0" result="BackgroundImageFix"/>
<feBlend mode="normal" in="SourceGraphic" in2="BackgroundImageFix" result="shape"/>
<feColorMatrix in="SourceAlpha" type="matrix" values="0 0 0 0 0 0 0 0 0 0 0 0 0 0 0 0 0 0 127 0" result="hardAlpha"/>
<feOffset/>
<feGaussianBlur stdDeviation="10"/>
<feComposite in2="hardAlpha" operator="arithmetic" k2="-1" k3="1"/>
<feColorMatrix type="matrix" values="0 0 0 0 0 0 0 0 0 0 0 0 0 0 0 0 0 0 0.5 0"/>
<feBlend mode="normal" in2="shape" result="effect1_innerShadow"/>
</filter>
<filter id="filter2_i" x="804.86" y="50.7327" width="110.156" height="153.737" filterUnits="userSpaceOnUse" color-interpolation-filters="sRGB">
<feFlood flood-opacity="0" result="BackgroundImageFix"/>
<feBlend mode="normal" in="SourceGraphic" in2="BackgroundImageFix" result="shape"/>
<feColorMatrix in="SourceAlpha" type="matrix" values="0 0 0 0 0 0 0 0 0 0 0 0 0 0 0 0 0 0 127 0" result="hardAlpha"/>
<feOffset/>
<feGaussianBlur stdDeviation="10"/>
<feComposite in2="hardAlpha" operator="arithmetic" k2="-1" k3="1"/>
<feColorMatrix type="matrix" values="0 0 0 0 0 0 0 0 0 0 0 0 0 0 0 0 0 0 0.5 0"/>
<feBlend mode="normal" in2="shape" result="effect1_innerShadow"/>
</filter>
<filter id="filter3_i" x="978.354" y="50.6724" width="117.646" height="153.785" filterUnits="userSpaceOnUse" color-interpolation-filters="sRGB">
<feFlood flood-opacity="0" result="BackgroundImageFix"/>
<feBlend mode="normal" in="SourceGraphic" in2="BackgroundImageFix" result="shape"/>
<feColorMatrix in="SourceAlpha" type="matrix" values="0 0 0 0 0 0 0 0 0 0 0 0 0 0 0 0 0 0 127 0" result="hardAlpha"/>
<feOffset/>
<feGaussianBlur stdDeviation="10"/>
<feComposite in2="hardAlpha" operator="arithmetic" k2="-1" k3="1"/>
<feColorMatrix type="matrix" values="0 0 0 0 0 0 0 0 0 0 0 0 0 0 0 0 0 0 0.5 0"/>
<feBlend mode="normal" in2="shape" result="effect1_innerShadow"/>
</filter>
<filter id="filter4_i" x="223.347" y="59.8484" width="142.677" height="149.773" filterUnits="userSpaceOnUse" color-interpolation-filters="sRGB">
<feFlood flood-opacity="0" result="BackgroundImageFix"/>
<feBlend mode="normal" in="SourceGraphic" in2="BackgroundImageFix" result="shape"/>
<feColorMatrix in="SourceAlpha" type="matrix" values="0 0 0 0 0 0 0 0 0 0 0 0 0 0 0 0 0 0 127 0" result="hardAlpha"/>
<feOffset/>
<feGaussianBlur stdDeviation="10"/>
<feComposite in2="hardAlpha" operator="arithmetic" k2="-1" k3="1"/>
<feColorMatrix type="matrix" values="0 0 0 0 0 0 0 0 0 0 0 0 0 0 0 0 0 0 0.5 0"/>
<feBlend mode="normal" in2="shape" result="effect1_innerShadow"/>
</filter>
<filter id="filter5_i" x="528.949" y="0" width="166.152" height="204.495" filterUnits="userSpaceOnUse" color-interpolation-filters="sRGB">
<feFlood flood-opacity="0" result="BackgroundImageFix"/>
<feBlend mode="normal" in="SourceGraphic" in2="BackgroundImageFix" result="shape"/>
<feColorMatrix in="SourceAlpha" type="matrix" values="0 0 0 0 0 0 0 0 0 0 0 0 0 0 0 0 0 0 127 0" result="hardAlpha"/>
<feOffset/>
<feGaussianBlur stdDeviation="10"/>
<feComposite in2="hardAlpha" operator="arithmetic" k2="-1" k3="1"/>
<feColorMatrix type="matrix" values="0 0 0 0 0 0 0 0 0 0 0 0 0 0 0 0 0 0 0.5 0"/>
<feBlend mode="normal" in2="shape" result="effect1_innerShadow"/>
</filter>
<filter id="filter6_i" x="453.776" y="67.2871" width="89.1644" height="137.208" filterUnits="userSpaceOnUse" color-interpolation-filters="sRGB">
<feFlood flood-opacity="0" result="BackgroundImageFix"/>
<feBlend mode="normal" in="SourceGraphic" in2="BackgroundImageFix" result="shape"/>
<feColorMatrix in="SourceAlpha" type="matrix" values="0 0 0 0 0 0 0 0 0 0 0 0 0 0 0 0 0 0 127 0" result="hardAlpha"/>
<feOffset/>
<feGaussianBlur stdDeviation="10"/>
<feComposite in2="hardAlpha" operator="arithmetic" k2="-1" k3="1"/>
<feColorMatrix type="matrix" values="0 0 0 0 0 0 0 0 0 0 0 0 0 0 0 0 0 0 0.5 0"/>
<feBlend mode="normal" in2="shape" result="effect1_innerShadow"/>
</filter>
<filter id="filter7_i" x="358.173" y="0.942871" width="121.779" height="204.865" filterUnits="userSpaceOnUse" color-interpolation-filters="sRGB">
<feFlood flood-opacity="0" result="BackgroundImageFix"/>
<feBlend mode="normal" in="SourceGraphic" in2="BackgroundImageFix" result="shape"/>
<feColorMatrix in="SourceAlpha" type="matrix" values="0 0 0 0 0 0 0 0 0 0 0 0 0 0 0 0 0 0 127 0" result="hardAlpha"/>
<feOffset/>
<feGaussianBlur stdDeviation="10"/>
<feComposite in2="hardAlpha" operator="arithmetic" k2="-1" k3="1"/>
<feColorMatrix type="matrix" values="0 0 0 0 0 0 0 0 0 0 0 0 0 0 0 0 0 0 0.5 0"/>
<feBlend mode="normal" in2="shape" result="effect1_innerShadow"/>
</filter>
<filter id="filter8_i" x="907.238" y="5.50317" width="93.2226" height="200.304" filterUnits="userSpaceOnUse" color-interpolation-filters="sRGB">
<feFlood flood-opacity="0" result="BackgroundImageFix"/>
<feBlend mode="normal" in="SourceGraphic" in2="BackgroundImageFix" result="shape"/>
<feColorMatrix in="SourceAlpha" type="matrix" values="0 0 0 0 0 0 0 0 0 0 0 0 0 0 0 0 0 0 127 0" result="hardAlpha"/>
<feOffset/>
<feGaussianBlur stdDeviation="10"/>
<feComposite in2="hardAlpha" operator="arithmetic" k2="-1" k3="1"/>
<feColorMatrix type="matrix" values="0 0 0 0 0 0 0 0 0 0 0 0 0 0 0 0 0 0 0.5 0"/>
<feBlend mode="normal" in2="shape" result="effect1_innerShadow"/>
</filter>
<filter id="filter9_i" x="669.078" y="47.8347" width="142.617" height="156.66" filterUnits="userSpaceOnUse" color-interpolation-filters="sRGB">
<feFlood flood-opacity="0" result="BackgroundImageFix"/>
<feBlend mode="normal" in="SourceGraphic" in2="BackgroundImageFix" result="shape"/>
<feColorMatrix in="SourceAlpha" type="matrix" values="0 0 0 0 0 0 0 0 0 0 0 0 0 0 0 0 0 0 127 0" result="hardAlpha"/>
<feOffset/>
<feGaussianBlur stdDeviation="10"/>
<feComposite in2="hardAlpha" operator="arithmetic" k2="-1" k3="1"/>
<feColorMatrix type="matrix" values="0 0 0 0 0 0 0 0 0 0 0 0 0 0 0 0 0 0 0.5 0"/>
<feBlend mode="normal" in2="shape" result="effect1_innerShadow"/>
</filter>
<filter id="filter10_i" x="516.03" y="235.951" width="571.865" height="99.9638" filterUnits="userSpaceOnUse" color-interpolation-filters="sRGB">
<feFlood flood-opacity="0" result="BackgroundImageFix"/>
<feBlend mode="normal" in="SourceGraphic" in2="BackgroundImageFix" result="shape"/>
<feColorMatrix in="SourceAlpha" type="matrix" values="0 0 0 0 0 0 0 0 0 0 0 0 0 0 0 0 0 0 127 0" result="hardAlpha"/>
<feOffset/>
<feGaussianBlur stdDeviation="10"/>
<feComposite in2="hardAlpha" operator="arithmetic" k2="-1" k3="1"/>
<feColorMatrix type="matrix" values="0 0 0 0 0 0 0 0 0 0 0 0 0 0 0 0 0 0 0.5 0"/>
<feBlend mode="normal" in2="shape" result="effect1_innerShadow"/>
</filter>
</defs>
</svg>
