<svg width="859" height="165" viewBox="0 0 859 165" fill="none" xmlns="http://www.w3.org/2000/svg">
<g opacity="0.15">
<path d="M0.598446 159.747L19.9649 52.57L19.9654 52.5674C22.2793 39.3647 28.7335 27.2362 38.3977 17.9304C48.06 8.6264 60.432 2.62444 73.7311 0.789345C80.936 0.0402756 88.2181 0.839565 95.0881 3.13353C101.96 5.42835 108.26 9.16574 113.564 14.0941C118.868 19.0226 123.053 25.0277 125.837 31.7053L125.837 31.7054C128.621 38.3832 129.941 45.5787 129.706 52.8078L129.705 52.8159V52.824V54.1197L127.312 56.135L127.296 56.1486L127.281 56.1636L122.373 61.062L122.358 61.0773L122.344 61.0938L117.888 66.3841L117.875 66.399L117.864 66.4149L113.86 71.9991L113.847 72.0161L113.837 72.034L110.352 77.8631L110.342 77.8811L110.333 77.8998L107.388 83.9152L107.378 83.935L107.37 83.9557L104.995 90.1375L104.987 90.1584L104.981 90.1798L103.195 96.4499L103.188 96.4739L103.183 96.4985L101.345 106.737C93.4953 112.148 84.4186 115.526 74.933 116.565C72.2829 116.843 69.6159 116.924 66.954 116.807L76.4131 65.3839C78.4918 64.3751 80.1828 62.7101 81.2215 60.6432C82.2995 58.4978 82.6098 56.0488 82.1005 53.703C81.5912 51.3573 80.2932 49.2563 78.4224 47.749L78.1087 48.1383L78.4223 47.749C76.5515 46.2418 74.2205 45.4189 71.8165 45.4172H71.8161H71.2566H71.2427L71.2288 45.418C68.9058 45.5475 66.6911 46.4415 64.9306 47.9602L65.2572 48.3388L64.9306 47.9602C63.1702 49.4791 61.9631 51.5371 61.4981 53.8134C61.033 56.0895 61.3363 58.4552 62.3606 60.541C63.3289 62.5132 64.8903 64.13 66.8214 65.1687L57.5636 116.003L57.5632 116.005L57.2788 117.61L57.2785 117.612L55.6005 126.898L55.6004 126.898L49.697 159.747H0.598446Z" fill="#BCB3B4" stroke="#BCB3B4"/>
<path d="M182.143 41.6352L173.425 92.3154C173.406 92.3029 173.387 92.2904 173.368 92.2779C173.32 92.2472 173.273 92.2166 173.226 92.1861C172.983 92.0298 172.732 91.8797 172.396 91.7584C171.739 91.5213 170.816 91.4164 168.994 91.4164H168.965L168.935 91.42C166.117 91.7558 163.463 92.9206 161.31 94.7662C159.157 96.6118 157.601 99.0552 156.843 101.785L156.836 101.807L156.832 101.83L146.111 160.769H97.0093L107.701 100.616C110.495 85.0524 119.937 69.22 133.347 57.827C146.628 46.5448 163.764 39.6451 182.143 41.6352Z" fill="#BCB3B4" stroke="#BCB3B4"/>
<path d="M715.877 41.0387L707.385 90.4584C707.241 90.3818 707.081 90.308 706.898 90.2417C706.151 89.9698 705.147 89.868 703.321 89.868H703.263L703.205 89.8748C700.285 90.2156 697.534 91.4205 695.305 93.3345L695.956 94.0932L695.305 93.3345C693.076 95.2486 691.471 97.7849 690.697 100.617L690.685 100.659L690.677 100.702L680.03 159.23H631.914L642.55 99.6652L642.55 99.6649C645.302 84.2277 654.674 68.4954 668.004 57.1694C681.073 46.0659 697.876 39.2544 715.877 41.0387Z" stroke="#BCB3B4" stroke-width="2"/>
<path d="M793.451 159.221H767.867L775.87 113.52H793.334C796.319 113.52 798.264 111.336 798.761 108.581C799.255 105.841 798.377 102.454 795.828 99.5112L795.814 99.495L795.799 99.4794C791.68 95.1164 788.811 89.7289 787.495 83.8807L787.494 83.8806C786.177 78.0323 786.458 71.9381 788.308 66.2354C790.159 60.5329 793.512 55.4314 798.016 51.4649L798.016 51.4649C802.519 47.4984 808.008 44.8127 813.907 43.6892L813.938 43.6834L813.968 43.6758C817.611 42.7454 821.303 42.0066 825.024 41.4626L825.025 41.4625C828.422 40.9623 831.85 40.7105 835.284 40.709C835.284 40.709 835.284 40.709 835.284 40.709L857.679 40.709L849.892 85.2444H831.691C829.661 85.2444 827.52 86.7606 826.799 89.0979C826.05 91.5253 826.867 94.5823 830.16 97.6983L830.161 97.699C837.598 104.724 842.425 117.115 841.722 128.792C841.023 140.39 834.888 151.186 820.461 155.341L820.457 155.343C811.685 157.908 802.593 159.213 793.451 159.221Z" stroke="#BCB3B4" stroke-width="2"/>
<path d="M218.705 109.547L218.705 109.547C219.191 111.893 220.461 114.005 222.309 115.533C224.155 117.061 226.469 117.917 228.867 117.958C231.266 117.999 233.608 117.224 235.506 115.759L235.2 115.363L235.506 115.759C237.404 114.294 238.747 112.228 239.312 109.9C239.877 107.571 239.631 105.121 238.614 102.951L238.614 102.951C237.651 100.897 236.052 99.2095 234.057 98.1369L243.198 47.9085C255.366 49.8391 266.434 56.0895 274.361 65.5186C282.392 75.0712 286.643 87.2262 286.313 99.6918L286.313 99.7014L286.313 99.711C286.5 115.171 281.044 130.171 270.962 141.91C260.881 153.645 246.866 161.318 231.533 163.496C224.327 164.243 217.046 163.443 210.175 161.147L210.017 161.622L210.175 161.147C203.303 158.852 197.003 155.113 191.698 150.185C186.393 145.256 182.208 139.25 179.423 132.571C176.637 125.893 175.317 118.698 175.55 111.468L175.55 111.457L175.55 111.446C175.369 95.988 180.829 80.9926 190.911 69.2574C200.99 57.5244 215.001 49.8515 230.331 47.6701C231.494 47.5477 232.631 47.4733 233.767 47.4239L224.465 97.9205C222.387 98.9196 220.692 100.572 219.642 102.627C218.551 104.761 218.221 107.201 218.705 109.547Z" fill="#BCB3B4" stroke="#BCB3B4"/>
<path d="M415.703 159.25L434.973 52.6619L434.974 52.6561C437.262 39.558 443.659 27.5235 453.242 18.2875C462.821 9.05546 475.088 3.09648 488.278 1.26908C495.408 0.528745 502.615 1.32043 509.414 3.59098C516.218 5.86331 522.456 9.56404 527.706 14.444L527.706 14.444C532.958 19.324 537.1 25.2699 539.855 31.8815L539.855 31.8817C542.611 38.4934 543.916 45.6176 543.682 52.7746L543.682 52.7974L543.682 52.8202C543.723 55.9753 543.516 59.1284 543.062 62.2507C542.386 62.8065 541.71 63.3869 541.034 63.9918C539.053 65.7324 537.17 67.5229 535.337 69.4122L535.33 69.4196L535.323 69.4271C533.104 71.8092 531.033 74.3238 529.121 76.9569L529.111 76.9699L529.102 76.9833C528.001 78.6072 526.975 80.2269 525.998 81.9494C525.01 83.6906 524.198 85.4633 523.401 87.271C522.719 88.8173 522.21 90.4246 521.71 92.0028C521.607 92.3273 521.504 92.6506 521.401 92.9718C520.825 94.759 520.519 96.6095 520.22 98.416C520.184 98.6379 520.147 98.859 520.11 99.0793L520.107 99.0956L520.105 99.112C519.916 100.526 519.767 101.924 519.659 103.322C511.015 110.435 500.484 114.889 489.345 116.14C486.901 116.394 484.443 116.483 481.988 116.408L491.307 65.8013C493.366 64.7441 495.044 63.0633 496.095 60.993C497.227 58.7648 497.566 56.2182 497.055 53.772C496.544 51.3261 495.215 49.1267 493.286 47.5355C491.357 45.9443 488.944 45.0558 486.442 45.0158C483.94 44.9758 481.499 45.7867 479.52 47.3156C477.542 48.8444 476.142 51.0002 475.554 53.4287C474.965 55.8569 475.221 58.413 476.282 60.6767C477.234 62.7093 478.782 64.397 480.713 65.5212L471.548 116.014L471.548 116.015L470.655 120.913L470.655 120.915L469.575 126.91L469.575 126.912L463.813 159.25H415.703Z" stroke="#BCB3B4" stroke-width="2"/>
<path d="M424.869 53.2288L405.325 159.75H356.198L375.976 53.2288H424.869Z" fill="#BCB3B4" stroke="#BCB3B4"/>
<path d="M281.277 160.779L299.299 60.5569L299.299 60.5568C302.05 45.2457 311.23 29.6667 324.297 18.315C337.36 6.96648 354.272 -0.127679 372.474 1.46004L372.476 1.4602C372.742 1.48231 373.349 1.50576 373.984 1.53033C374.087 1.53431 374.191 1.53832 374.294 1.54236C374.746 1.56006 375.185 1.57824 375.524 1.59666L366.795 52.3389C364.816 51.4992 362.657 51.1575 360.509 51.3491L360.509 51.3489L360.496 51.3505C357.673 51.6779 355.012 52.841 352.857 54.6903C350.701 56.5397 349.15 58.9905 348.401 61.7277L348.395 61.7481L348.391 61.769L347.165 68.4309L347.055 69.0275L347.661 69.0215L364.873 68.8511L356.306 117.116L338.741 117.222L338.327 117.224L338.252 117.632L330.406 160.779H281.277Z" fill="#BCB3B4" stroke="#BCB3B4"/>
<path d="M756.278 160.22C756.864 160.22 759.325 160.25 760.718 160.268L769.189 112.893C768.894 112.899 768.569 112.905 768.242 112.912L768.147 112.914C767.21 112.933 766.276 112.951 766.078 112.951C763.262 112.951 761.223 112.335 759.919 111.018C758.61 109.694 758.252 107.873 758.301 105.965C758.351 104.057 758.814 101.872 759.347 99.6307C759.471 99.1101 759.599 98.5856 759.727 98.0578C760.161 96.2775 760.604 94.4604 760.932 92.6316L760.934 92.6216L760.936 92.6116L761.918 87.7132L762.078 86.9148L762.892 86.9097L774.426 86.8366L782.805 39.5745L772.232 39.6799L771.009 39.6921L771.24 38.491L777.627 5.31244H731.119L714.366 92.426L713.382 92.2497M756.278 160.22C756.279 160.22 756.281 160.22 756.282 160.22L756.273 161.22V160.22C756.275 160.22 756.277 160.22 756.278 160.22ZM756.278 160.22C749.106 160.158 742.047 158.432 735.659 155.179C729.269 151.925 723.726 147.233 719.466 141.473M719.466 141.473C710.725 129.629 710.445 114.317 714.365 92.4323L714.364 92.4385L713.382 92.2497M719.466 141.473L718.662 142.067M719.466 141.473C719.466 141.473 719.466 141.473 719.467 141.473L718.662 142.067M713.382 92.2497L730.293 4.31244L718.662 142.067M713.382 92.2497C709.456 114.165 709.652 129.86 718.662 142.067" stroke="#BCB3B4" stroke-width="2"/>
<path d="M635.069 95.9778L635.069 95.9743C634.788 71.7529 624.342 55.3833 608.619 46.4954C593.08 37.7112 572.246 36.158 550.673 41.804L578.135 93.3366C580.354 93.0323 582.621 93.4087 584.63 94.4256L584.63 94.4257C586.864 95.5568 588.647 97.4132 589.686 99.691C590.724 101.968 590.955 104.531 590.341 106.956C589.728 109.382 588.305 111.527 586.308 113.039C584.312 114.55 581.86 115.338 579.355 115.275C576.851 115.211 574.442 114.299 572.526 112.689L572.525 112.688C570.609 111.077 569.298 108.863 568.808 106.408L568.808 106.408C568.354 104.128 568.634 101.769 569.6 99.6646L550.518 63.5723C543.146 68.186 537 74.5191 532.614 82.0322C528.054 89.844 525.543 98.6782 525.316 107.716C525.671 139.237 550.358 159.25 580.831 159.25H624.568L634.104 107.648L635.069 95.9778ZM635.069 95.9778C635.128 99.8893 634.805 103.796 634.104 107.645L635.088 107.827C635.8 103.913 636.129 99.9403 636.069 95.9627L635.069 95.9778Z" stroke="#BCB3B4" stroke-width="2"/>
</g>
</svg>
